<svg width="760" height="695" viewBox="0 0 760 695" fill="none" xmlns="http://www.w3.org/2000/svg">
<path d="M146.5 50.5C162.167 41.3333 196.7 22.7 209.5 21.5" stroke="black"/>
<path d="M545.53 465.374L542.215 463.137L540.13 466.226L543.065 468.524L545.53 465.374ZM496.011 521.805L498.554 518.717L495.919 516.547L493.362 518.809L496.011 521.805ZM516.362 538.561L519.563 540.96L521.855 537.902L518.905 535.473L516.362 538.561ZM511.03 545.676L507.829 543.278L505.484 546.407L508.56 548.822L511.03 545.676ZM675.372 674.742L678.064 671.783L677.957 671.685L677.843 671.596L675.372 674.742ZM739.222 609.493L741.892 606.514L741.812 606.443L741.729 606.376L739.222 609.493ZM569.545 472.958L572.053 469.841L569.059 467.432L566.532 470.327L569.545 472.958ZM563.729 479.622L561.263 482.772L564.249 485.11L566.742 482.252L563.729 479.622ZM592 300C592 360.429 573.648 416.559 542.215 463.137L548.846 467.612C581.144 419.754 600 362.073 600 300H592ZM300 8C461.267 8 592 138.733 592 300H600C600 134.315 465.685 0 300 0V8ZM8 300C8 138.733 138.733 8 300 8V0C134.315 0 0 134.315 0 300H8ZM300 592C138.733 592 8 461.267 8 300H0C0 465.685 134.315 600 300 600V592ZM493.362 518.809C441.857 564.358 374.162 592 300 592V600C376.188 600 445.751 571.594 498.661 524.802L493.362 518.809ZM518.905 535.473L498.554 518.717L493.469 524.893L513.82 541.649L518.905 535.473ZM514.231 548.075L519.563 540.96L513.161 536.162L507.829 543.278L514.231 548.075ZM677.843 671.596L513.501 542.531L508.56 548.822L672.902 677.888L677.843 671.596ZM736.552 612.471C756.941 630.746 754.295 656.313 740.448 672.159C733.537 680.068 723.95 685.374 713.238 686.081C702.585 686.783 690.359 682.967 678.064 671.783L672.681 677.701C686.325 690.113 700.619 694.93 713.764 694.063C726.849 693.2 738.337 686.733 746.472 677.423C762.72 658.83 766.059 628.176 741.892 606.514L736.552 612.471ZM567.038 476.074L736.714 612.609L741.729 606.376L572.053 469.841L567.038 476.074ZM566.742 482.252L572.559 475.588L566.532 470.327L560.715 476.992L566.742 482.252ZM543.065 468.524L561.263 482.772L566.194 476.473L547.996 462.225L543.065 468.524Z" fill="black"/>
<path d="M427.711 95L426.872 95.9583C426.845 95.9752 426.847 95.9819 426.733 96.0382C426.377 96.2132 425.56 96.5442 424.047 96.9467C420.984 97.7664 418.374 98.0755 415.891 98.4041C414.401 98.5996 413.348 98.9566 412.527 99.622C412.116 99.9555 411.789 100.386 411.589 100.82C411.389 101.253 411.329 101.958 411.329 101.958V102.866L417.878 110.543C418.302 111.677 418.721 112.672 418.876 113.298C419.019 113.873 418.933 114.219 418.776 114.686C418.514 114.883 418.16 115.179 418.088 115.215C413.09 115.637 412.563 115.228 410.391 114.147C409.129 113.502 407.698 111.485 407.037 110.034C405.905 107.547 403.872 105.971 403.872 105.971L403.703 105.831L403.513 105.721C399.535 103.451 393.935 103.717 388.24 104.713C382.472 105.706 375.269 108.117 373.565 108.776H373.555C372.641 109.132 365.775 111.415 362.624 112.23C359.17 113.118 356.556 114.005 354.638 114.506C352.222 115.143 337.91 119.418 332.446 121.045C327.16 122.613 323.957 123.176 323.871 123.191C319.99 123.579 317.526 123.423 316.155 123.201C315.463 123.089 315.038 122.956 314.827 122.882C314.616 122.807 314.767 122.882 314.767 122.882L314.687 122.832C314.666 122.717 314.657 122.612 314.657 122.612L314.667 122.502L314.707 116.742V116.662C314.707 116.662 314.699 113.352 311.712 111.731C309.542 110.543 306.975 110.213 302.928 110.024H302.918C298.742 109.839 294.525 110.204 292.136 110.723C289.963 111.201 285.607 112.395 282.283 116.113C280.643 117.946 279.859 119.72 279.528 121.095C279.198 122.469 279.359 123.68 279.359 123.68L279.328 123.391C279.328 123.391 279.51 126.712 279.768 129.27V129.28C279.871 130.288 280.468 130.751 280.896 131.447C280.571 131.608 280.766 131.54 280.317 131.746C278.142 132.745 274.562 134.174 269.076 135.779C258.539 138.872 251.657 139.453 251.657 139.453L249.251 139.662L249.44 142.058C249.576 143.814 250.222 147.626 250.848 151.312C251.474 154.998 252.066 158.34 252.066 158.34C252.072 158.376 252.334 159.984 252.655 161.834C252.979 163.704 253.318 165.649 253.603 166.745C254.05 168.483 255.067 171.659 255.121 171.826C255.121 171.826 255.836 174.706 258.664 176.039C261.275 177.265 265.042 177.494 269.036 175.929H269.047C272.824 174.442 274.395 172.348 275.805 170.708C277.215 169.078 277.654 168.592 277.731 168.502C277.748 168.487 279.916 166.516 282.433 167.364C285.056 168.263 287.332 172.078 287.355 172.116L287.504 172.425L287.594 172.575C287.594 172.575 288.811 175.175 289.012 176.997C288.746 177.396 288.154 178.135 286.736 179.224C284.011 181.3 282.446 181.052 280.287 180.871C278.134 180.681 277.23 180.379 275.715 180.691L276.074 180.651L272.471 180.841L272.361 180.851C268.13 181.454 265.557 183.155 265.493 183.197C263.741 184.26 262.7 186.02 262.099 187.929C261.49 189.86 261.24 192.045 261.2 194.427C261.121 199.192 261.876 204.768 262.887 210.17C264.656 219.62 266.754 226.357 267.38 228.438C249.732 230.807 229.742 234.723 218.485 237.642H218.474C212.42 239.216 209.042 240.897 207.044 242.384C206.046 243.127 205.398 243.826 204.978 244.44C204.761 244.757 204.752 244.898 204.638 245.189C203.107 247.686 203.115 250.296 203.9 251.927C204.697 253.584 206.056 254.443 206.056 254.443L206.316 254.602L206.596 254.692C206.596 254.692 209.294 255.537 209.94 258.655V258.665C210.467 261.198 207.065 264.126 207.065 264.126L207.005 264.166L206.945 264.216C206.945 264.216 201.786 268.512 194.028 269.836C189.833 270.555 187.091 270.92 185.073 270.715C183.056 270.509 181.588 269.874 179.293 268.059C177.795 266.866 177.736 265.9 178.115 264.485C178.495 263.067 179.74 261.445 180.721 260.742C184.056 258.344 185.694 255.965 186.361 254.263V254.253L186.371 254.243C187.025 252.528 186.601 250.929 186.601 250.929L186.421 250.24L182.937 247.055L182.777 246.936C179.572 244.805 175.094 244.139 169.959 243.851C164.825 243.563 159.064 243.808 153.608 244.25C144.074 245.025 137.642 246.176 135.629 246.516C135.284 244.436 134.302 239.063 134.501 234.238C134.619 231.363 134.954 229.391 135.24 228.178C135.526 226.966 135.689 226.671 135.689 226.671L135.749 226.551L136.078 225.593L136.089 225.563C136.089 225.563 138.351 218.629 141.369 214.272L140.89 213.973L141.389 214.262C141.389 214.262 143.122 211.703 145.522 211.467C148.829 211.148 148.99 212.122 151.672 212.436C155.067 212.843 157.239 212.651 158.739 212.216C159.49 211.998 160.063 211.709 160.506 211.397C160.907 211.116 161.25 210.683 161.325 210.589C166.156 206.724 168.301 201.744 168.313 201.714C169.957 197.669 170.02 193.662 169.51 190.464C169.256 188.865 168.868 187.471 168.422 186.321C167.977 185.171 167.575 184.321 166.845 183.516V183.506H166.835C164.918 181.416 161.693 179.113 161.554 179.013H161.544C161.538 179.008 160.557 178.203 159.158 177.846C157.952 177.537 156.189 177.803 154.416 178.474C154.714 176.338 154.868 174.201 155.914 171.666C157.465 167.906 160.92 161.171 160.995 161.025L161.035 160.935L161.045 160.915C161.124 160.781 166.098 152.365 168.282 146.63C170.47 140.895 170.459 136.338 170.459 136.338V135.51L169.93 134.851C169.93 134.851 168.969 133.622 167.933 132.295C167.193 131.348 166.706 130.699 166.246 130.099C170.147 130.906 173.314 129.231 173.314 129.231L173.413 129.171L173.523 129.081C179.192 124.797 182.298 117.541 182.298 117.541L182.268 117.621L187.659 106.7L182.398 98.1747L181.36 97.975C181.36 97.975 181.055 97.9195 180.92 97.9151C180.786 97.9111 180.666 97.9146 180.531 97.9251C180.261 97.946 179.955 97.9977 179.543 98.0848C178.719 98.2591 177.455 98.5911 175.34 99.3127C172.261 100.358 171.273 100.972 170.159 101.539L168.652 99.2927L168.193 98.8235L168.182 98.8135C168.17 98.8021 167.914 98.5704 167.753 98.4642C167.589 98.3553 167.417 98.2543 167.224 98.1747C166.838 98.0154 166.4 97.9232 165.896 97.8752C164.889 97.7792 163.582 97.8748 161.564 98.3344C157.14 99.3392 152.089 102.128 149.375 105.741C148.248 107.244 147.57 108.425 147.169 109.295C147.046 109.561 147.08 109.566 146.999 109.794C138.938 116.711 132.404 119.625 132.285 119.677C129.944 120.107 128.362 121.264 128.362 121.264L128.322 121.294L128.282 121.314C121.051 127.417 112.699 137.326 112.699 137.326L113.168 136.907C113.168 136.907 112.735 137.251 112.52 137.516C112.305 137.781 112.093 138.114 111.871 138.544C111.413 139.431 111.306 140.033 111.102 140.86C111 141.274 110.908 141.686 110.843 142.078C110.778 142.463 110.627 142.615 110.792 143.546C110.816 143.683 110.881 143.582 110.912 143.705C106.939 148.892 104.891 151.122 104.593 151.392C104.56 151.396 104.294 151.262 104.294 151.262L104.104 151.282L103.914 151.332C102.75 151.671 102.019 152.183 101.189 152.67C100.36 153.157 99.6718 153.598 99.6718 153.598L99.2725 153.858L98.993 154.247C96.7393 157.431 91.9648 165.453 91.4261 166.356C91.1721 166.483 90.9403 166.6 90.7473 166.725L90.4279 166.606L85.5364 169.341L85.207 169.88C70.051 194.803 59.1455 222.601 53.4722 252.256L53.3624 252.806L53.7018 254.103L52.7135 256.329L52.6736 256.619C50.2561 270.575 49 284.922 49 299.554C49 309.094 49.5329 318.498 50.5773 327.775L50.5872 327.795L51.1862 332.706L51.1962 332.717C55.6728 366.539 66.923 398.24 83.5299 426.393L85.0273 428.919V428.939C128.837 501.236 208.285 549.549 298.985 549.549C429.759 549.549 537.138 449.087 548.081 321.126L548.131 320.547L547.263 318.431L548.421 316.485L548.461 315.906C548.809 310.501 549 305.037 549 299.534C549 277.141 546.056 255.411 540.525 234.757L540.395 234.278L538.907 232.391L539.367 230.554L539.187 229.935C530.8 200.968 516.785 173.463 499.256 149.875L498.867 149.345L494.016 147.299L491.959 148.766L490.552 149.715C490.196 149.27 489.99 149.07 489.653 148.637C487.904 146.386 486.429 144.394 486.429 144.394L486.359 144.294L486.279 144.204C481.24 138.66 478.028 134.09 477.275 133.034L477.454 132.744L475.967 128.182L475.867 128.013C474.444 125.254 471.84 122.608 469.528 120.406C467.216 118.204 465.186 116.563 465.186 116.563L465.116 116.503L465.046 116.443C465.046 116.443 462.279 114.438 459.785 113.458C457.373 112.51 454.993 112.45 454.993 112.45L453.795 112.4L453.546 112.699C447.381 108.317 432.832 96.747 432.832 96.747L432.473 96.4576L427.711 95ZM428.819 100.411L430.177 100.82C430.734 101.27 446.85 114.3 452.578 118.07L454.394 119.248L455.832 117.521C456.474 117.595 457.075 117.6 458.018 117.97C459.311 118.478 462.122 120.337 462.211 120.396C462.288 120.459 464.068 121.905 466.184 123.92C468.322 125.956 470.674 128.599 471.505 130.169L472.134 132.095L471.385 133.273L472.313 134.591C472.313 134.591 476.804 140.952 482.515 147.279C482.515 147.279 484.027 149.325 485.82 151.631C487.376 153.634 488.992 155.627 490.382 157.052C489.024 157.609 487.1 158.314 484.482 159.019C479.078 160.475 473.861 162.902 473.861 162.902C473.861 162.902 469.549 164.308 471.185 167.823C472.826 171.348 475.258 173.044 475.258 173.044C475.258 173.044 478.706 176.394 478.832 178.934C478.944 181.488 477.867 182.655 475.128 184.165C472.404 185.685 469.907 185.982 469.907 185.982C469.907 185.982 463.404 187.149 460.184 184.105C456.965 181.065 456.371 176.029 456.371 176.029C456.371 176.029 456.122 171.77 450.781 169.95C445.44 168.129 438.881 172.016 438.881 172.016C438.881 172.016 433.72 174.746 428.19 178.325C422.655 181.908 412.214 186.296 405.659 188.597L404.421 189.555L405.649 188.607C402.935 186.102 388.822 169.381 386.073 165.467C383.325 161.544 382.915 160.649 382.43 159.338C381.944 158.027 383.256 155.077 384.436 153.698C385.597 152.324 386.966 152.048 389.787 152.67C392.608 153.286 394.459 154.526 398.931 153.079C403.408 151.642 403.622 148.271 403.962 144.833C404.312 141.396 400.176 134.109 396.875 130.598C393.573 127.092 388.903 126.536 385.664 126.745C382.435 126.954 380.591 129.294 378.726 130.329C376.871 131.358 373.356 132.391 371.778 131.706C370.2 131.012 367.79 130.326 365.11 125.577C363.261 122.319 361.862 119.627 360.897 117.77C361.918 117.47 362.636 117.242 363.842 116.932C367.411 116.009 373.643 113.952 375.322 113.298V113.308C376.229 112.958 383.98 110.368 389.058 109.495H389.068C394.128 108.61 399.144 108.973 400.938 109.924C401.184 110.166 402.221 111.154 402.625 112.04C403.545 114.062 405.148 116.943 408.205 118.489H408.215L408.225 118.499C410.423 119.593 412.955 120.504 418.508 120.046C418.689 120.046 418.82 120.051 419.007 120.017C419.321 119.958 419.66 119.863 420.025 119.697C420.754 119.365 421.586 118.804 422.61 117.84L422.96 117.511L423.159 117.092C423.956 115.37 423.94 113.548 423.588 112.13C423.236 110.712 422.685 109.6 422.29 108.487L422.14 108.067L417.818 102.986C420.012 102.696 422.363 102.423 425.295 101.639C427.003 101.184 428.074 100.773 428.819 100.411ZM165.118 102.737L168.492 107.758L170.449 106.67C170.449 106.67 172.239 105.786 174.681 104.803C173.289 107.879 171.013 112.569 167.773 116.592C167.773 116.592 165.957 119.279 164.549 118.619C163.146 117.968 161.501 117.913 160.136 118.2C158.772 118.491 154.519 119.901 150.673 125.068C146.837 130.234 146.393 134.114 148.457 135.27C150.437 136.379 153.26 135.015 155.095 133.483L159.378 132.744C159.365 132.816 159.371 132.943 159.358 132.994C159.232 133.45 158.604 139.624 151.462 152.001C149.67 155.108 147.358 159.715 146.271 161.934L146.281 161.993C146.279 161.99 146.231 161.924 146.231 161.924C134.636 164.07 125.998 166.762 123.051 167.883C120.094 169 120.036 168.282 120.036 168.282C119.012 167.078 122.153 163.311 122.153 163.311C122.153 163.311 125.332 158.972 126.585 154.986C127.528 151.999 124.614 151.564 123.101 151.532C122.597 151.521 122.252 151.552 122.252 151.552C118.572 152.139 115.923 153.89 112.879 157.561C110.519 160.406 109.085 164.302 108.546 166.366C108.202 167.662 107.608 168.861 107.608 168.861C107.608 168.861 107.165 169.666 105.422 170.429C103.402 171.312 99.4621 172.355 99.4621 172.355C99.4621 172.355 96.8385 172.573 94.94 171.627C94.3272 171.325 93.2035 171.401 92.2247 171.547L92.4244 171.397C92.4244 171.397 92.6679 171.228 92.9734 171.028C93.2649 170.836 93.646 170.637 93.5824 170.658L94.6904 170.329L95.1796 169.52C95.1796 169.52 100.616 160.475 102.726 157.411C102.963 157.262 103.149 157.143 103.645 156.852C103.935 156.682 103.995 156.663 104.294 156.513L105.082 157.631L107.109 155.864C107.109 155.864 109.835 153.425 115.664 145.582L115.684 145.542L117.411 143.466L115.744 142.357C115.769 142.242 115.783 142.151 115.814 142.028C115.972 141.386 116.325 140.495 116.183 140.77C116.248 140.645 116.244 140.654 116.253 140.64L116.403 140.461C116.403 140.461 124.723 130.707 131.357 125.088C131.37 125.077 132.06 124.525 133.423 124.369L133.762 124.339L134.082 124.199C134.082 124.199 141.622 121.034 150.583 113.178L151.232 112.619L151.382 111.781C151.382 111.781 151.331 111.844 151.571 111.322C151.812 110.799 152.302 109.907 153.248 108.646C154.691 106.725 159.627 103.751 162.642 103.066C164.139 102.725 164.775 102.725 165.118 102.737ZM302.698 114.875C306.536 115.055 308.372 115.443 309.377 115.993H309.387C309.581 116.099 309.846 116.929 309.856 116.962L309.816 122.372L309.826 122.173C309.826 122.173 309.737 123.019 309.976 124.01C310.214 124.992 310.964 126.47 312.542 127.164C312.706 127.249 312.863 127.338 313.221 127.464C313.726 127.641 314.428 127.829 315.377 127.983C317.274 128.29 320.145 128.447 324.421 128.013H324.511L324.601 127.993C324.601 127.993 328.247 127.351 333.825 125.696C339.287 124.07 354.155 119.659 355.866 119.208C355.988 119.176 356.182 119.111 356.306 119.078C356.938 120.382 357.797 122.112 359.949 125.786C364.344 133.332 371.976 136.243 375.273 135.899C378.157 135.598 383.113 134.242 385.046 132.115C386.964 129.984 388.899 130.259 388.899 130.259C393.089 129.991 394.116 133.492 397.564 138.444C401.002 143.397 398.882 147.249 398.882 147.249C396.6 150.274 394.044 149.656 391.704 149.176C389.946 148.807 389.766 148.601 387.731 148.207C381.399 147.377 379.276 152.061 379.276 152.061C374.736 159.077 380.094 164.16 380.094 164.16C380.094 164.16 392.091 180.228 401.228 190.134C394.32 192.508 385.355 195.515 385.355 195.515C385.355 195.515 373.162 200.018 365.14 201.115C357.129 202.203 355.357 201.045 354.269 199.957C353.167 198.87 354.449 195.046 354.449 195.046C354.449 195.046 357.729 188.36 356.146 184.893C354.568 181.427 344.237 180.521 344.067 180.521C343.873 180.521 332.812 179.241 322.455 185.053C313.258 190.21 312.053 193.019 312.053 193.019C312.053 193.019 309.125 197.573 312.602 202.084C316.52 207.187 321.726 207.654 321.726 207.654C321.726 207.654 326.68 208.039 327.835 209.501C328.996 210.952 328.205 212.535 328.205 212.535C328.205 212.535 326.57 217.025 317.393 218.904C317.393 218.904 301.952 223.437 273.17 227.529C267.431 206.791 267.061 193.728 267.061 193.728C266.597 189.422 267.253 187.788 269.367 186.62C270.177 186.288 271.388 185.9 273.021 185.662L276.515 185.492L276.574 185.482C277.168 185.519 277.781 185.545 278.441 185.592C278.984 185.625 278.852 185.623 279.859 185.712H279.869C281.224 185.826 283.178 185.821 285.339 185.213C286.473 184.942 287.494 184.591 288.324 184.125C290.378 182.979 296.01 179.901 295.622 173.623C295.243 167.349 290.241 159.91 286.148 157.351C285.63 157.027 285.092 156.767 284.541 156.553C284.002 156.342 283.451 156.178 282.894 156.063C282.887 156.062 282.88 156.064 282.874 156.063C280.627 155.605 278.296 155.894 276.335 156.612C275.346 156.975 274.449 157.434 273.71 157.98C270.767 160.165 269.602 162.982 267.81 163.88C266.471 164.544 264.711 165.861 262.779 166.216C262.132 166.331 261.465 166.337 260.792 166.176C258.102 165.535 257.97 159.517 256.819 152.729C256.112 148.557 255.593 145.553 255.262 143.665C257.23 143.462 261.641 143.025 270.445 140.441C276.127 138.778 279.934 137.27 282.355 136.158C284.776 135.046 285.948 134.221 285.948 134.221L289.701 131.536L285.359 129.969C285.359 129.969 284.718 129.938 284.6 128.791C284.362 126.426 284.171 123.121 284.171 123.121L284.16 122.981L284.141 122.831C284.141 122.831 284.093 122.837 284.24 122.223C284.388 121.608 284.77 120.618 285.907 119.348C288.135 116.855 291.375 115.871 293.175 115.474C294.767 115.129 298.999 114.711 302.698 114.875ZM99.9811 251.428C86.8129 251.36 93.8119 241.096 93.8119 241.096C93.8119 241.096 96.9117 235.667 97.4555 232.531C97.4555 232.531 98.5401 224.051 90.5575 224.604C82.5702 225.148 81.0042 232.111 81.0042 232.111C81.0042 232.111 80.4632 236 80.5749 238.87C80.6769 241.754 80.5643 247.846 76.9712 251.308C73.3926 254.77 69.5441 253.704 69.5441 253.704C69.5441 253.704 63.0794 250.88 61.7976 250.22C60.7939 249.7 59.8898 249.647 59.0124 249.781C64.505 223.148 74.3099 198.102 87.6825 175.4L88.9503 174.182L87.5328 176.289C88.1834 176.177 88.7207 176.019 88.7207 176.019C88.7207 176.019 90.6836 175.695 94.1213 176.598C98.5739 177.783 104.154 174.192 104.154 174.192C104.154 174.192 108.391 171.65 110.343 167.484L112.09 162.602C112.09 162.602 113.508 157.884 117.461 156.383C117.461 156.383 118.998 155.554 121.494 155.525C123.985 155.501 123.4 157.242 123.4 157.242C123.4 157.242 123.129 158.377 120.555 161.674C117.987 164.961 117.291 167.484 117.291 167.484C117.291 167.484 115.748 170.985 118.229 172.126C118.229 172.126 119.397 172.813 122.791 171.687C126.19 170.555 137.454 167.589 144.334 166.535L144.384 166.525L144.374 166.545C143.082 170.226 141.437 175.984 142.088 179.213C143.078 184.122 147.708 184.125 147.708 184.125C147.708 184.125 148.656 184.129 150.054 183.865L150.543 184.025C150.543 184.025 151.012 184.153 151.332 184.175C151.651 184.196 152.019 184.173 152.45 184.105C153.311 183.97 154.398 183.636 155.834 182.907C156.09 182.777 156.246 182.774 156.453 182.707C158.109 184.269 158.569 188.8 158.569 189.745C158.569 191.027 158.536 198.128 153.618 201.604C153.618 201.604 151.623 203.122 148.826 203.122C146.015 203.122 144.194 202.303 144.194 202.303C144.194 202.303 139.42 200.979 136.478 202.702C133.545 204.441 130.036 208.039 127.264 213.244C124.501 218.449 122.196 227.736 122.322 234.587C122.419 239.981 123.151 245.086 123.69 248.568C123.69 248.568 112.533 251.501 99.9811 251.428ZM499.147 158.19C514.301 179.761 526.492 204.325 534.106 230.105C533.913 230.12 533.739 230.105 533.537 230.145C531.677 230.524 531.5 231.905 528.625 232.371C525.746 232.837 522.42 233.851 519.172 238.77C515.918 243.679 519.172 249.801 519.172 249.801C519.172 249.801 520.917 252.672 521.757 254.153C522.592 255.639 526.943 264.909 521.947 271.673C521.947 271.673 519.269 274.792 514.54 275.845C510.359 276.768 511.423 271.884 510.996 269.267C510.996 269.267 510.371 258.193 504.986 251.847C500.252 246.283 491.65 256.162 487.367 259.454C483.377 262.507 471.703 274.55 454.933 283.352L454.315 275.286C454.315 275.286 453.91 270.96 451.569 264.215C446.816 250.494 442.136 244.2 442.136 244.2C442.136 244.2 439.264 237.801 432.582 237.801C426.12 237.801 425.634 243.711 425.634 243.711C425.634 243.711 424.108 248.399 421.631 249.85C419.218 251.254 412.072 255.42 408.285 251.288C403.711 246.306 401.208 240.481 400.718 234.916C400.237 229.342 402.515 227.08 402.515 227.08C402.515 227.08 402.99 225.633 410.351 225.633C418.601 225.633 420.124 223.097 420.124 223.097C420.124 223.097 421.698 221.649 421.572 218.415C421.431 215.186 420.182 208.245 417.778 203.841C416.195 200.952 412.637 196.365 409.602 192.85L404.911 192.001V191.991L405.41 193.298L409.602 192.819C412.472 191.751 416.43 190.205 420.693 188.277C429.438 184.344 433.603 181.056 437.604 178.774C437.604 178.774 446.419 173.337 451.619 173.483C451.619 173.483 452.835 173.443 452.947 175.04C453.059 176.638 453.446 178.992 453.995 180.361C454.539 181.725 457.57 189.206 467.252 190.304C476.934 191.411 481.068 184.883 481.068 184.883C481.068 184.883 484.377 179.787 478.662 173.732C478.662 173.732 474.006 168.735 473.861 168.352C473.861 168.352 473.353 167.603 474.669 167.224C475.912 166.863 488.475 163.33 494.365 160.835L495.628 160.237C495.628 160.237 496.531 159.9 496.861 159.777C497.688 159.363 498.584 158.791 499.147 158.19ZM343.697 184.814C347.1 184.778 349.477 185.063 349.477 185.063C349.477 185.063 353.456 185.498 352.791 188.188C352.111 190.883 349.864 195.385 349.776 197.701C349.674 200.003 349.822 202.68 354.329 204.559C358.844 206.434 365.329 205.857 365.329 205.857C365.329 205.857 372.051 205.518 383.049 201.964C394.037 198.414 405.35 194.327 405.35 194.327C410.568 191.357 404.725 192.551 404.591 192.171L405.35 194.327L405.36 194.377C415.003 203.831 416.76 215.341 416.76 215.341C416.76 215.341 418.058 219.877 415.383 220.222C413.052 220.518 407.606 220.572 407.606 220.572C407.606 220.572 405.541 220.776 402.176 221.46C398.816 222.145 396.677 225.722 396.196 228.198C395.725 230.675 394.275 237.476 399.99 248.144C405.69 258.806 412.907 258.326 412.907 258.326C419.171 257.777 421.1 256.67 424.746 254.193C428.286 251.78 429.903 246.428 430.107 245.398C430.321 244.364 430.799 243.332 431.615 243.332C432.45 243.332 432.167 243.334 434.09 243.063C436.023 242.791 437.474 244.156 439.052 247.395C440.081 249.468 445.58 258.536 447.167 263.906C448.75 269.262 450.136 274.623 450.262 279.439C450.325 281.333 450.58 283.501 450.881 285.424C442.831 289.439 424.563 298.303 412.658 302.469C412.658 302.469 403.545 306.165 399.84 306.262C399.84 306.262 399.019 306.292 399.67 305.394C400.316 304.496 401.019 303.835 402.136 301.82C403.258 299.79 405.28 295.23 405.28 290.52C405.28 285.815 399.843 281.204 392.263 282.025C384.688 282.835 377.449 284.944 368.724 288.304C360.008 291.664 352.489 298.791 351.484 304.695C350.469 310.599 356.855 314.009 356.855 314.009C356.855 314.009 364.063 317.658 364.981 319.629C365.893 321.6 365.22 323.432 365.22 323.432C365.22 323.432 364.587 325.4 361.417 327.216C358.261 329.046 349.657 333.475 349.657 333.475C349.657 333.475 338.95 339.38 322.664 340.812C322.664 340.812 307.816 342.072 299.275 342.499C299.171 342.508 299.064 342.515 298.955 342.519C299.141 337.061 298.903 332.2 298.336 327.915V327.904C297.959 325.05 297.431 322.451 296.789 320.098V320.088C296.469 318.913 296.117 317.806 295.741 316.754V316.743C295.365 315.691 294.957 314.701 294.533 313.769V313.758C294.107 312.824 293.663 311.949 293.195 311.133C289.287 304.267 282.905 300.638 279.759 299.104C278.973 298.719 277.925 298.389 276.724 298.136C275.523 297.882 274.167 297.706 272.751 297.636C271.01 297.55 269.227 297.696 267.5 297.976C266.417 298.152 265.333 298.334 264.376 298.685L264.365 298.695C263.132 299.148 262.132 299.572 261.311 300.013L261.3 300.023C260.482 300.463 259.836 300.91 259.284 301.4C258.949 301.697 258.695 302.055 258.415 302.389C258.231 302.609 258.009 302.796 257.837 303.037C257.833 303.043 257.831 303.051 257.826 303.057C257.398 303.661 256.991 304.334 256.539 305.114C256.535 305.121 256.533 305.127 256.528 305.134C255.619 306.696 254.604 307.429 253.823 307.769C253.038 308.111 252.485 308.059 252.485 308.059C252.485 308.059 245.559 308.272 243.311 297.707C241.748 290.304 242.184 285.402 243.012 282.353C243.218 281.596 243.442 280.956 243.671 280.417L243.681 280.406C243.909 279.87 244.137 279.438 244.34 279.099L244.35 279.089C244.753 278.416 245.042 278.127 245.049 278.12L245.059 278.11C245.059 278.11 245.259 277.878 245.588 277.571C246.154 277.044 247.324 276.289 249.272 275.694C249.998 275.473 250.728 275.247 251.697 275.115C256.81 274.416 260.098 275.671 264.016 276.643C267.638 277.55 270.479 277.18 274.757 275.245C275.101 275.089 275.391 275.003 275.756 274.826C276.979 274.23 278.03 273.541 278.9 272.729C279.335 272.325 279.733 271.889 280.078 271.422L280.088 271.411C280.777 270.477 281.272 269.408 281.596 268.187C282.084 266.345 282.164 264.157 281.795 261.529C280.844 254.745 280.584 253.152 274.588 232.569C287.719 230.76 296.668 229.199 312.562 225.511C312.562 225.511 327.322 222.895 330.401 217.495C332.188 214.339 335.425 210.022 330.191 205.676C330.191 205.676 329.572 204.902 326.338 204.169C323.104 203.435 320.626 202.941 317.902 200.994C315.174 199.037 315.227 196.771 315.227 196.771C315.227 196.771 314.996 194.61 319.42 192.119C319.42 192.119 323.552 189.097 331.758 186.499C335.866 185.205 340.295 184.848 343.698 184.812L343.697 184.814ZM125.088 273.659C125 278.083 124.343 287.447 119.677 289.641C119.677 289.641 118.096 290.469 115.454 288.484C112.813 286.498 109.962 286.419 108.806 286.377C108.454 286.364 107.733 286.437 106.849 286.697C104.836 287.287 101.968 288.86 100.59 292.736C98.6136 298.297 98.7701 305.792 99.1828 310.206C99.6004 314.624 103.611 321.636 108.447 321.636C108.447 321.636 110.626 322.315 113.398 319.46C116.156 316.614 117.775 316.366 119.008 316.405C120.246 316.448 122.641 317.718 124.209 330.231C125.7 342.098 126.847 352.155 126.735 362.954C127.901 364.373 128.73 366.079 129.765 367.756C133.707 367.319 140.046 366.626 147.349 365.839C159.624 364.523 167.872 363.196 175.5 364.342C183.138 365.483 185.592 371.45 185.592 371.45C185.592 371.45 186.117 372.968 184.365 374.085C182.67 375.173 180.729 376.747 179.763 378.407C178.796 380.087 177.769 383.595 180.541 388.29C183.319 392.966 190.935 396.015 197.422 395.238C203.904 394.476 213.62 391.982 219.374 390.486C225.623 388.85 231.143 385.772 231.862 380.873C232.576 375.974 224.415 369.733 224.415 369.733C224.415 369.733 220.468 366.764 219.993 366.089C219.507 365.414 220.472 365.121 220.472 365.121C220.472 365.121 225.079 364.012 227.06 363.114C229.022 362.191 234.451 359.982 243.342 357.204C252.232 354.417 270.575 351.145 270.575 351.145C270.575 351.145 280.696 349.529 293.325 348.509L296.141 347.836L293.365 348.499C293.331 349.694 293.284 350.911 293.235 352.183C292.541 371.003 296.739 380.663 296.739 380.663C299.123 385.844 301.699 389.545 305.204 391.924C308.695 394.298 313.468 392.681 315.007 391.924C316.542 391.147 320.804 389.194 324.441 386.883C328.078 384.571 327.948 383.595 332.347 379.535C336.751 375.491 342.43 376.601 342.43 376.601C342.43 376.601 347.816 376.74 350.895 382.969C353.978 389.199 353.348 398.078 352.562 401.298C351.795 404.517 350.396 406.623 347.391 406.059C344.38 405.501 339.414 404.999 337.598 404.931C335.777 404.863 330.654 404.691 325.988 405.91C321.434 407.099 315.272 410.389 309.407 419.915C304.848 427.291 307.09 434.54 308.139 437.405C308.96 439.648 311.219 442.763 313.2 446.609L316.874 447.837L316.479 446.407L313.2 446.629C306.971 447.382 296.433 448.88 286.038 451.391C273.306 454.488 261.159 456.972 252.516 462.541C252.516 462.541 246.047 466.836 249.771 471.017C253.485 475.202 257.368 476.996 257.368 476.996C257.368 476.996 259.662 478.002 259.624 478.623C259.58 479.429 259.546 480.123 257.837 481.109C257.837 481.109 251.069 485.073 237.891 485.292C224.713 485.505 218.906 485.384 215.041 481.908C211.846 479.038 215.84 472.953 215.84 472.953C215.84 472.953 217.442 469.979 215.84 465.895C214.237 461.826 205.069 461.753 205.069 461.753L192.371 461.104C177.343 460.71 157.499 459.037 148.667 457.939C148.667 457.939 148.609 457.924 148.507 457.909V457.899C148.42 457.778 148.34 457.646 148.257 457.53C148.257 457.53 139.16 441.129 140.122 435.109C140.122 435.109 140.445 431.077 146.141 429.339C150.108 428.12 149.592 431.978 161.255 434.08C161.255 434.08 171.306 436.781 173.933 429.478C176.55 422.171 171.177 413.007 171.177 413.007C171.177 413.007 164.141 400.111 155.425 399.62C150.812 399.363 152.071 402.462 145.113 404.113C145.113 404.113 135.827 405.005 132.884 399.441C129.32 392.701 127.831 385.027 127.953 379.905C128.06 375.049 128.216 374.664 128.532 373.246C128.75 372.246 129.464 370.407 129.765 367.756C129.765 367.756 133.443 362.604 126.166 362.615C124.593 362.804 122.712 362.983 120.765 363.134C115.851 363.479 108.733 362.856 99.8816 360.239C91.025 357.607 85.4994 352.786 84.708 349.887C84.1544 347.881 84.8777 345.045 84.8777 345.045C84.8777 345.045 86.5306 338.654 85.4866 333.386C84.4184 328.127 82.6639 324.001 77.5704 320.927C72.4818 317.859 69.5943 318.392 69.5943 318.392C69.5943 318.392 65.032 317.689 65.2019 325.409C65.3816 333.135 66.3499 336.37 66.3499 336.37C66.3499 336.37 67.2241 339.091 65.8208 339.445C64.4224 339.795 62.2271 337.698 62.2271 337.698C62.2271 337.698 58.7456 334.499 55.8981 331.269L55.3987 327.236V327.216C54.376 318.125 53.8514 308.906 53.8514 299.554C53.8514 285.276 55.0902 271.289 57.4352 257.677L58.7629 254.702C59.7553 254.917 60.6596 255.261 60.6596 255.261C60.6596 255.261 66.1739 258.235 68.6357 258.745C71.0975 259.255 72.8832 258.43 74.4855 257.328C77.0444 255.555 80.0358 251.879 81.2837 248.393C82.3956 245.256 82.6413 236.773 82.6413 236.773L82.6613 236.843C82.6613 236.843 82.6548 234.799 82.6014 234.328C82.5431 233.852 82.245 231.641 83.5997 230.524C84.9495 229.388 85.8239 228.84 89.15 228.757C92.4518 228.675 93.4525 230.604 93.4525 230.604C93.4525 230.604 94.5805 232.175 94.5805 233.2C94.5805 234.219 94.251 234.857 94.2511 234.857C94.2511 234.857 92.4517 237.893 91.8253 239.389C91.1941 240.879 88.7357 245.814 89.4495 249.96C90.1681 254.097 96.637 256.03 96.637 256.03C96.637 256.03 101.789 257.242 109.135 256.16L124.314 253.714C124.698 259.23 125.151 270.037 125.088 273.659ZM268.997 233.319C269.004 233.345 271.488 243.281 273.379 249.711C275.263 256.149 276.103 262.511 276.384 263.836C276.666 265.167 276.6 267.534 274.847 268.937C273.104 270.341 268.832 271.537 267.929 271.673C267.021 271.813 265.326 271.466 263.087 270.694C260.844 269.927 258.615 269.786 258.615 269.786C258.615 269.786 253.229 268.872 247.494 270.624C241.755 272.368 237.412 278.237 237.063 285.588C236.718 292.935 236.784 296.656 239.658 303.158C242.523 309.664 247.704 313.372 251.617 313.44C255.541 313.508 258.748 311.485 260.991 308.339C263.22 305.183 263.856 304.695 263.856 304.695C266.517 303.229 273.301 302.589 276.734 303.857C280.171 305.109 286.474 309.066 289.951 316.864C292.762 323.166 293.645 330.211 293.494 342.899L296.309 345.075L296.38 343.605L293.464 342.909C285.501 343.569 276.274 344.656 276.274 344.656C276.274 344.656 255.441 347.615 236.364 353.5C220.166 358.492 217.087 361.247 217.087 361.247C217.087 361.247 213.629 364.133 216.508 368.294C216.508 368.294 218.164 370.908 221.51 373.535C224.836 376.167 227.519 378.672 227.14 379.944C226.751 381.226 225.732 381.801 225.732 381.801C225.732 381.801 221.071 385.953 201.974 389.158C201.974 389.158 189.684 391.53 185.902 387.82C182.124 384.101 183.785 381.611 183.785 381.611C183.785 381.611 184.042 380.775 186.8 379.056C186.8 379.056 191.411 376.162 189.935 370.67C188.463 365.159 179.604 358.313 170.029 358.372C170.029 358.372 158.842 358.399 130.229 362.065C130.229 362.065 130.191 362.066 130.099 362.085C130.108 360.835 130.081 359.501 129.999 358.072C129.557 350.012 128.97 337.58 127.883 330.34C126.8 323.101 124.803 311.903 118.209 311.573C118.209 311.573 114.949 311.321 110.273 315.866C105.981 320.022 102.101 312.427 101.888 307.79C101.63 302.347 102.525 296.85 103.874 294.223C105.219 291.596 108.935 291.47 109.634 291.528C110.343 291.591 112.326 292.353 114.696 293.824C117.065 295.305 120.325 295.312 122.252 293.385C124.17 291.472 126.855 289.225 127.952 280.767C129.04 272.313 129.037 263.547 128.012 253.045L127.992 252.995C131.902 252.281 138.38 251.198 145.382 250.509C156.676 249.402 168.622 249.239 173.643 249.87C173.643 249.87 175.993 250.168 175.61 251.008C175.309 251.669 173.563 253.025 173.563 253.025C173.563 253.025 172.909 253.414 170.389 256.259C167.869 259.104 167.131 261.868 167.025 264.325C166.908 266.777 169.533 274.017 178.754 275.955C187.985 277.882 198.55 274.298 198.55 274.298C198.55 274.298 204.523 272.923 210.659 267.45C210.835 267.308 210.908 267.22 211.148 267C211.457 266.713 211.767 266.471 212.076 266.162C212.38 265.858 212.523 265.542 212.775 265.234C212.843 265.144 212.898 265.068 212.965 264.974C218.027 258.392 212.136 251.078 212.136 251.078C212.136 251.078 211.065 249.602 208.991 248.932C208.991 248.932 208.088 248.686 208.612 248.103C208.912 247.77 209.549 246.789 210.868 245.777C211.816 245.18 213.08 244.494 215.261 243.711C215.271 243.708 215.3 243.704 215.311 243.701C220.198 242.441 234.646 237.878 268.987 233.339L268.997 233.319ZM533.607 233.599L534.136 234.168L535.923 236.444C541.272 256.565 544.148 277.72 544.148 299.534C544.148 304.746 543.949 309.916 543.629 315.047L541.862 318.022L542.88 320.528C541.87 322.092 541.056 323.294 539.237 326.298C533.085 336.431 532.119 344.616 532.119 344.616C532.119 344.616 531.534 347.797 531.86 349.647C532.161 351.371 532.774 352.157 532.798 352.662C532.841 353.167 532.44 357.319 530.332 361.277C528.21 365.234 526.369 366.278 526.369 366.278C526.369 366.278 522.696 368.931 522.186 367.047C521.681 365.153 521.832 363.549 522.017 362.355C522.192 361.151 523.424 354.691 523.245 352.292C523.07 349.894 520.919 351.823 520.919 351.823C520.919 351.823 520.413 352.401 519.471 353.6C518.524 354.804 513.22 361.553 511.196 363.922C506.393 369.545 502.034 373.579 490.352 382.999C490.318 383.014 490.286 383.049 490.262 383.069L490.212 383.149C489.193 381.456 488.152 380.207 487.596 379.485C486.217 377.713 483.722 378.499 480.658 371.1C477.143 362.636 476.728 355.625 477.005 351.294C477.282 346.968 478.313 345.308 480.309 343.458C482.305 341.598 491.11 342.429 491.11 342.429C491.11 342.429 495.426 343.319 499.296 336.919C503.137 330.524 502.86 320.062 501.622 314.847C500.384 309.623 498.607 305.083 491.45 304.326C484.293 303.573 481.068 312.372 481.068 312.372C481.068 312.372 479.623 315.74 478.103 317.673C476.593 319.59 472.473 319.04 472.473 319.04C470.681 318.836 468.48 319.516 466.343 315.117C464.221 310.723 459.326 299.165 459.326 299.165C457.684 295.261 456.647 291.809 455.996 289.182L452.468 287.735L452.058 291.298C454.942 301.393 460.978 314.125 463.478 319.33C466.023 324.627 471.734 325.166 475.857 324.141C479.984 323.102 481.346 320.833 483.623 315.876C485.896 310.933 487.127 310.585 487.127 310.585C487.127 310.585 488.033 309.281 492.228 309.766C496.424 310.247 497.319 313.2 497.319 313.2C497.319 313.2 499.727 318.903 499.246 324.89C498.77 330.862 497.461 333.56 496.082 335.691C494.703 337.823 487.546 337.129 487.546 337.129C487.546 337.129 475.237 335.755 474.14 350.545C473.047 365.331 477.983 375.572 477.983 375.572C479.78 379.49 481.634 381.557 483.144 382.659C484.659 383.752 486.099 385.205 486.099 385.205C486.099 385.205 486.358 385.436 486.728 385.924H486.718C477.944 393.032 475.352 395.336 468.36 400.279C468.36 400.279 460.379 406.23 451.649 410.94C442.899 415.64 432.632 415.083 432.632 415.083C432.632 415.083 429.84 414.782 431.194 412.767C432.534 410.752 434.268 405.849 434.938 403.353C435.618 400.853 436.952 394.517 431.863 392.502C426.775 390.487 417.209 393.451 417.209 393.451C417.209 393.451 395.231 399.306 386.272 409.143C377.571 418.704 384.885 422.959 384.885 422.959C384.885 422.959 388.302 425.338 391.613 426.513C394.74 427.625 394.107 428.616 393.33 429.198C393.33 429.198 383.518 435.451 371.927 438.782C371.927 438.782 356.068 443.646 340.652 444.642C325.356 445.63 318.883 446.018 318.86 446.019L318.87 446.009C317.219 442.766 315.506 439.86 315.506 439.86C315.506 439.86 315.11 439.286 314.607 438.292V438.282C314.356 437.783 314.074 437.176 313.799 436.485V436.475C313.523 435.783 313.252 435.006 313.02 434.159V434.149C312.789 433.303 312.591 432.389 312.471 431.425V431.414C312.233 429.481 312.29 427.351 312.911 425.175V425.165C313.221 424.079 313.681 422.981 314.308 421.891V421.881C314.935 420.789 315.619 419.794 316.325 418.886V418.876C317.032 417.965 317.77 417.15 318.511 416.41C321.476 413.452 324.522 411.809 326.227 411.039L326.238 411.029C327.084 410.648 327.586 410.493 327.595 410.49C327.595 410.49 334.881 408.875 342.15 410.56C345.601 411.351 348.178 411.074 349.906 410.61C350.765 410.381 351.41 410.113 351.843 409.891L351.853 409.881C352.271 409.665 352.502 409.502 352.502 409.502C352.502 409.502 352.757 409.384 353.171 409.082L353.181 409.072C353.595 408.77 354.157 408.285 354.758 407.535C354.966 407.276 355.185 406.94 355.397 406.617C355.494 406.469 355.591 406.359 355.687 406.197C355.991 405.687 356.293 405.096 356.575 404.43C356.578 404.424 356.582 404.417 356.585 404.41C356.674 404.201 356.741 403.927 356.825 403.702C357.012 403.2 357.203 402.712 357.364 402.124C357.461 401.771 357.528 401.332 357.614 400.946C357.732 400.406 357.862 399.906 357.953 399.299C357.954 399.291 357.962 399.287 357.963 399.279C358.436 396.136 358.538 391.978 357.903 387.849C357.902 387.842 357.904 387.836 357.903 387.829C357.691 386.454 357.397 385.088 357.005 383.757V383.746C355.433 378.41 352.306 373.738 346.713 372.196C341.105 370.657 336.821 371.355 333.935 372.426C332.498 372.961 331.409 373.58 330.68 374.075L330.669 374.085C329.952 374.574 329.571 374.934 329.571 374.934V374.944C329.566 374.949 328.064 376.596 326.317 378.378L326.307 378.388C324.559 380.17 322.569 382.074 321.595 382.561C319.633 383.537 316.624 385.276 316.624 385.276C316.624 385.276 312.421 387.799 309.566 388.43C307.678 388.853 300.892 379.835 300.192 372.908V372.897C299.869 369.702 299.38 366.804 299.034 363.064C299.029 363.009 299.029 362.931 299.024 362.875C298.687 359.172 298.487 354.66 298.714 348.21V348.13L298.704 348.12C300.687 348.004 302.707 347.908 304.734 347.831C322.078 347.204 330.672 345.137 339.893 343.069C349.108 341.005 362.078 333.47 364.001 332.018C365.923 330.586 369.958 328.807 370.769 322.515C371.585 316.227 364.15 312.043 364.15 312.043C364.15 312.043 358.231 308.919 356.983 307.531C355.74 306.137 356.893 304.796 356.893 304.796C356.893 304.796 360.242 297.585 370.958 293.365C381.665 289.131 388.869 287.996 393.379 287.506C397.905 287.025 399.436 288.65 400.058 289.422C400.679 290.185 400.677 291.784 400.158 293.415C399.662 294.911 397.999 298.45 397.023 300.184C396.067 301.912 394.491 306.089 395.496 308.06C396.506 310.026 399.58 310.945 403.562 310.226C407.548 309.503 418.07 306.525 427.29 302.679C436.516 298.834 451.928 291.299 451.928 291.299C451.928 291.299 451.969 291.278 452.037 291.239L453.186 289.572L455.996 289.182C460.944 286.453 469.412 281.458 475.457 276.355C484.546 268.717 493.419 260.696 495.682 258.686C497.939 256.661 500.016 255.035 502.031 255.132C504.046 255.234 505.594 256.666 506.832 262.09C508.085 267.518 508.316 271.986 508.899 274.628C509.467 277.264 510.284 280.33 513.411 280.957C516.538 281.583 520.752 278.858 522.335 277.503C523.938 276.163 526.807 271.789 526.618 265.933C526.618 265.933 526.949 258.144 522.924 250.749C522.924 250.749 521.23 247.772 520.608 246.956C520.181 246.383 519.845 245.794 520.558 244.4C521.277 243.012 522.82 240.417 525.699 238.79C527.884 237.547 529.975 237.252 531.18 236.864C531.18 236.864 532.53 236.548 534.224 235.606L533.607 233.599ZM124.788 371.279C123.967 374.586 123.887 377.906 124.678 383.757C125.46 389.633 128.615 401.82 133.193 405C139.273 409.23 143.246 409.159 147.349 408.844C151.437 408.518 154.267 405.38 154.267 405.38C154.267 405.38 155.872 403.727 157.591 404.232C159.32 404.742 164.126 407.44 167.584 414.354C171.046 421.268 171.81 428.877 166.046 430.237C160.283 431.567 150.364 426.134 150.364 426.134C150.364 426.134 144.724 422.991 140.121 426.453C135.504 429.915 135.379 435.226 137.686 441.757C138.953 445.34 141.483 451.17 145.033 457.24L148.477 458.687L148.137 458.228L144.973 457.24C139.442 456.166 129.227 453.999 125.187 451.979C121.502 450.134 119.526 450.464 120.016 446.628C120.507 442.904 116.353 437.714 116.353 437.714C116.353 437.714 110.592 431.466 105.402 427.581C100.211 423.687 98.0046 424.846 98.0046 424.846C98.0046 424.846 95.6528 426.095 97.7651 431.135C99.8821 436.185 101.938 437.953 101.938 437.953C101.938 437.953 102.955 439.014 102.377 439.301C101.804 439.592 100.025 438.252 98.5437 436.995C97.8988 436.46 94.907 433.63 92.2846 431.185C91.267 429.59 90.1714 428.052 89.19 426.433L89.18 426.413L87.7126 423.928L87.7025 423.917C72.1145 397.488 61.3982 367.856 56.6565 336.28C57.7591 337.582 59.007 339.035 61.0189 341.112C66.2824 346.555 67.9469 343.128 67.9469 343.128C67.9469 343.128 69.178 339.705 67.6873 333.485C66.1967 327.246 66.4581 323.555 69.2646 323.652C72.0711 323.744 80.2268 325.403 82.7711 332.157C82.7711 332.157 83.8272 335.31 82.8609 339.345C81.8898 343.389 82.0719 346.97 82.7711 350.485C83.4751 354.001 86.4556 357.32 89.8787 360.049C93.3067 362.778 103.216 367.503 112.869 368.115C122.517 368.727 125.492 368.23 125.492 368.23C125.288 369.196 125.045 370.264 124.788 371.279ZM542.791 324.371C536.942 382.482 510.851 434.591 471.624 473.531C471.654 473.028 473.861 471.036 473.861 471.036C473.861 471.036 476.707 467.998 478.552 465.575C480.402 463.157 479.221 463.299 479.221 463.299C479.221 463.299 478.319 463.069 474.43 465.535C470.54 468.002 467.791 469.708 467.791 469.708C467.791 469.708 459.427 474.496 454.115 477.584C454.073 477.608 453.978 477.66 453.935 477.684C454.888 476.196 455.888 474.758 456.9 473.372V473.361C459.951 469.189 463.15 465.529 465.735 462.65C469.925 457.974 474.949 450.391 474.949 450.391C474.949 450.391 478.055 445.076 478.183 442.595C478.183 442.587 478.183 442.583 478.183 442.575C478.202 442.225 478.15 441.941 478.033 441.726V441.716C477.402 440.595 474.616 441.801 469.847 445.36C466.102 448.16 463.221 449.899 460.783 451.14C459.588 451.656 458.406 452.063 457.339 452.178C452.323 452.741 452.532 447.583 452.867 445.32C453.207 443.038 454.386 437.815 458.028 435.747C461.67 433.678 466.763 433.757 470.337 433.271C473.92 432.785 475.558 431.764 475.558 431.764C475.558 431.764 481.41 428.045 485.261 421.791C489.121 415.527 492.559 405.413 492.957 395.377C493.107 391.682 492.609 388.812 491.849 386.552H491.869C501.469 378.91 510.656 369.212 510.656 369.212C510.656 369.212 516.757 363.094 519.82 357.772C522.71 352.781 519.95 362.085 519.95 362.085C519.95 362.085 518.403 369.438 520.889 372.167C522.865 374.328 528.475 368.314 528.475 368.314C528.475 368.314 531.812 364.488 533.157 358.311C535.138 349.207 534.056 347.39 534.056 347.39C534.056 347.39 532.864 345.501 533.606 343.258C534.333 341.102 538.885 329.397 542.791 324.371ZM488.525 386.044L487.876 386.842L488.435 389.188C489.455 391.975 490.193 396.387 489.134 402.874C486.857 416.829 482.875 421.302 482.875 421.302C482.875 421.302 477.912 428.24 472.144 428.939C466.356 429.624 460.023 429.417 454.255 435.817C447.846 442.906 449.164 452.039 449.164 452.039C449.164 452.039 449.721 457.612 455.712 456.102C461.68 454.582 467.801 449.985 472.413 446.329C477.012 442.682 474.19 447.566 474.19 447.566C470.136 455.471 462.431 463.389 462.431 463.389C462.431 463.389 459.745 465.728 453.836 474.05C452.301 476.208 451.08 478.07 450.022 479.75C443.968 483.023 435.425 487.344 429.728 489.683C422.794 492.533 419.238 493.157 419.855 492.249C420.467 491.346 422.091 490.013 422.091 490.013C422.091 490.013 424.037 488.076 424.037 486.119C424.037 486.119 424.646 483.279 416.241 485.041C407.846 486.794 400.259 490.921 400.259 490.921C400.259 490.921 387.763 496.662 390.715 500.085C390.715 500.085 391.28 500.991 393.79 501.792C396.315 502.603 389.338 504.737 389.338 504.737C382.7 506.912 377.613 507.909 371.169 509.239C363.477 510.822 358.619 511.91 354.848 512.743C354.845 512.73 354.841 512.716 354.838 512.703L354.868 512.693C353.662 508.145 351.166 504.17 349.647 501.802C349.343 501.328 348.842 500.466 348.659 500.175V500.165C348.275 499.554 347.832 499.013 347.261 498.557C346.711 498.118 346.033 497.767 345.195 497.519C343.421 496.99 340.893 496.93 337.039 497.569C329.484 498.832 320.598 502.61 320.598 502.61C320.598 502.61 318.304 503.822 315.157 504.916C312.01 506.011 308.009 506.99 304.585 506.534C302.013 506.191 300.203 505.004 298.955 503.539C298.541 503.052 298.186 502.538 297.887 502.012V502.001C297.589 501.475 297.347 500.939 297.148 500.414V500.404C296.95 499.879 296.794 499.369 296.679 498.887V498.876C296.45 497.907 296.373 497.064 296.39 496.52C296.409 495.982 296.514 495.464 296.709 494.963V494.953C296.906 494.452 297.208 493.972 297.607 493.515C298.414 492.599 299.656 491.779 301.441 491.08C305.01 489.672 313.403 487.788 325.639 487.156C333.281 486.762 337.922 483.496 340.333 481.107C341.782 479.671 342.43 478.561 342.43 478.561C343.03 477.695 343.808 476.42 344.186 474.968V474.957C344.563 473.508 344.549 471.877 343.548 470.286L343.537 470.275C343.205 469.747 342.759 469.22 342.19 468.708L342.18 468.698C341.608 468.185 340.904 467.691 340.053 467.211L340.043 467.2C338.334 466.244 337.046 465.591 336.02 465.104L336.01 465.094C334.987 464.609 334.222 464.299 333.574 464.026L333.564 464.015C332.264 463.469 331.412 463.087 329.771 461.832C328.123 460.567 326.408 459.167 324.93 457.549C324.194 456.744 323.515 455.888 322.933 454.964L322.923 454.954C322.618 454.468 322.431 453.909 322.184 453.386C321.962 452.913 321.672 452.475 321.505 451.969V451.959C321.482 451.884 321.434 451.783 321.406 451.699C321.281 451.332 321.146 450.924 320.996 450.551L320.976 450.541L320.634 448.917C315.874 447.015 318.215 448.713 321.046 450.551C324.601 450.26 329.192 449.926 333.305 449.722C341.525 449.324 354.387 447.435 361.855 445.799C369.333 444.139 380.642 440.657 389.008 436.336C397.379 431.995 397.783 428.958 397.783 428.958C397.783 428.958 399.377 426.657 395.886 424.127C392.395 421.583 390.853 422.272 387.76 419.136C384.677 415.994 390.456 411.269 390.456 411.269C390.456 411.269 393.434 407.093 409.982 400.718C426.515 394.347 429.312 396.475 430.156 397.174C431.006 397.873 431.11 400.162 430.755 401.706C430.415 403.255 428.364 408.77 427.261 411.669C426.159 414.553 425.72 418.498 430.196 419.445C434.673 420.387 440.948 419.411 446.837 417.299C460.88 412.278 465.075 406.146 488.275 389.307C488.334 389.269 488.381 389.232 488.425 389.208L488.525 386.044ZM101.628 428.799C101.628 428.799 102.275 428.557 104.523 430.257C106.766 431.951 111.795 435.478 114.286 438.522C116.777 441.542 116.622 444.252 116.622 444.252C116.622 444.252 116.124 446.985 118.818 449.932C121.503 452.865 127.235 458.254 147.269 461.342C147.39 461.362 147.437 461.368 147.558 461.382L147.948 458.657L147.439 458.967L147.589 461.373C149.977 465.005 152.719 468.56 155.744 471.605C155.744 471.605 167.71 484.847 174.372 493.237C174.372 493.237 174.769 494.007 173.613 493.317C172.458 492.608 167.459 490.3 164.769 490.562C162.074 490.824 162.582 492.479 162.582 492.479C162.582 492.479 163.743 498.565 182.059 508.82C182.059 508.82 188.659 512.524 192.82 512.524C192.82 512.524 194.164 512.716 195.825 510.857C197.505 509.007 198.003 509.205 199.159 509.589C200.31 509.963 201.846 510.793 207.614 514.959C213.382 519.121 224.592 525.517 228.617 528.216C229.896 529.071 230.638 529.674 231.183 530.203C222.483 529.508 214.195 528.478 209.75 527.817C207.075 526.77 204.413 525.71 201.784 524.573C200.902 524.034 200.583 523.786 199.618 523.205C197.108 521.68 189.555 518.793 189.555 518.793C189.555 518.793 188.879 518.55 188.757 518.503C151.839 499.881 120.269 472.232 96.9766 438.413C97.2884 438.667 97.5169 438.905 97.8451 439.161C105.366 445.046 105.412 442.705 105.412 442.705C105.412 442.705 105.713 440.759 103.974 438.622C102.231 436.481 99.4367 431.957 100.131 430.297C100.83 428.656 101.628 428.799 101.628 428.799ZM315.187 451.04C317.114 455.701 318.583 458.273 321.506 461.462C324.657 464.885 329.626 467.54 335.501 469.788C341.386 472.031 338.716 476.017 338.716 476.017C335.356 483.286 325.352 483.578 322.414 483.923C319.481 484.268 313.329 484.827 307.58 486.089C301.841 487.352 296.454 488.12 293.235 491.829C290.025 495.539 291.286 499.38 293.175 503.439C295.059 507.494 300.097 509.661 307.021 509.389C313.945 509.117 318.438 507.087 322.634 505.266C326.829 503.44 334.1 501.336 336.27 500.714C338.436 500.088 341.382 498.831 343.547 501.982C345.893 505.386 348.376 510.225 349.507 513.881C349.576 513.866 349.647 513.861 349.717 513.851C349.717 513.851 343.828 515.275 334.044 519.072C324.26 522.869 305.045 526 305.045 526C305.045 526 292.709 527.423 291.568 529.045C290.432 530.652 292.426 531.471 292.426 531.471C292.426 531.471 294.186 532.542 300.542 532.838C300.542 532.838 302.731 532.838 302.828 533.018C302.911 533.212 303.045 533.355 301.68 533.787C300.292 534.214 297.536 535.307 288.194 536.482C278.793 537.676 278.99 536.163 278.99 536.163C278.99 536.163 278.942 535.789 279.369 535.114C279.792 534.464 279.408 533.315 277.942 532.509C277.942 532.509 275.913 531.183 269.067 531.241C262.23 531.285 248.611 531.325 235.885 530.572C235.592 530.555 235.254 530.522 234.956 530.502L234.946 530.492L235.735 530.532C234.943 529.813 233.934 529.171 232.72 528.526C229.326 526.729 214.604 516.999 210.05 513.921C205.505 510.847 197.553 505.666 194.047 506.743C191.357 507.579 191.742 508.662 190.144 509.449C188.537 510.211 186.804 509.699 182.837 507.582C178.865 505.48 175.922 504.062 168.172 496.711C162.127 490.957 175.919 496.132 175.919 496.132C175.919 496.132 178.926 497.402 177.586 494.265C176.241 491.129 169.451 482.935 163.051 476.336C157.866 471.01 154.917 467.301 151.222 461.922L148.836 461.193L151.272 461.941C168.742 464.461 178.245 464.667 178.245 464.667C178.245 464.667 201.113 465.465 207.294 465.465C213.471 465.465 212.316 468.7 212.316 468.7C212.316 468.7 211.97 470.441 211.228 471.834C210.475 473.228 208.684 478.461 210.529 481.248C210.529 481.248 213.37 488.185 231.802 488.675C231.802 488.675 247.934 489.968 259.194 485.331C270.454 480.699 260.292 474.28 260.292 474.28C260.292 474.28 256.443 471.949 254.812 470.696C253.316 469.555 253.917 468.353 254.223 467.552C254.514 466.765 255.666 465.812 256.958 465.166C258.25 464.515 262.969 461.981 283.003 456.8C303.027 451.61 314.987 451.06 314.987 451.06C314.987 451.06 315.085 451.048 315.187 451.04ZM476.726 466.264C476.916 466.329 476.702 466.783 475.528 468.081C472.396 471.543 470.826 472.972 470.826 472.972C470.826 472.972 468.229 475.586 468.47 476.566C458.055 486.544 446.774 495.609 434.729 503.639C435.432 502.81 436.041 501.935 435.747 501.702C435.125 501.222 432.712 502.94 432.712 502.94C432.712 502.94 430.748 504.508 428.929 505.356C428.834 505.4 428.743 505.446 428.649 505.486C428.683 505.473 428.715 505.468 428.749 505.455C428.695 505.479 428.653 505.493 428.599 505.515C428.617 505.508 428.631 505.493 428.649 505.486C428.528 505.53 428.412 505.546 428.29 505.585C427.831 505.748 427.368 505.917 427.002 505.894C426.762 505.878 426.621 505.799 426.553 505.675C426.35 505.302 426.834 504.514 427.451 503.738C428.277 502.706 429.338 501.692 429.338 501.692C429.338 501.692 433.733 496.749 437.933 495.992C438.982 495.802 439.815 495.591 440.509 495.363C442.589 494.678 443.403 493.805 444.951 492.618C447.015 491.035 447.355 489.314 451.559 481.677C451.711 481.397 451.876 481.117 452.029 480.828L452.039 480.818C457.399 477.822 459.302 476.899 460.574 476.146C466.318 472.728 473.168 468.554 474.969 467.132C474.969 467.132 476.409 466.155 476.726 466.264ZM448.784 482.845C448.667 483.031 449.709 480.27 449.603 480.449C446.927 484.776 445.71 487.397 445.71 487.397C445.71 487.397 444.343 490.075 444.202 491.59C444.071 493.11 442.974 492.898 442.974 492.898C442.974 492.898 440.799 492.899 437.743 494.095C437.429 494.193 437.473 494.138 437.035 494.285C437.035 494.285 436.686 494.482 436.565 494.545C435.439 495.083 434.233 495.806 432.952 496.761C432.772 496.882 432.669 496.93 432.483 497.06C432.347 497.167 432.224 497.263 432.093 497.37C431.236 498.069 430.647 498.642 429.917 499.286C429.304 499.826 428.625 500.392 428.1 500.884C427.212 501.717 426.56 502.362 425.924 503.02C425.693 503.257 425.534 503.397 425.335 503.609C425.135 503.822 424.805 504.143 424.636 504.328C424.522 504.469 424.416 504.62 424.307 504.767C423.995 505.132 423.299 505.905 423.299 505.905C423.299 505.905 421.233 508.65 423.229 508.65C425.219 508.65 429.892 506.24 431.684 504.657C433.471 503.069 432.582 504.388 432.582 504.388C432.011 505.028 431.22 505.738 430.516 506.424C409.236 519.985 385.714 530.314 360.638 536.811C358.041 536.646 356.133 536.303 355.227 536.182C353.134 535.901 351.445 535.484 350.954 534.435C350.469 533.391 353.27 533.447 353.27 533.447C353.27 533.447 361.448 532.545 369.013 530.103C376.573 527.646 378.384 525.332 378.097 523.584C377.82 521.841 373.987 521.973 369.432 523.444C364.887 524.921 358.092 527.088 356.495 527.438C355.854 527.572 355.227 527.58 354.628 527.557C354.37 527.546 354.098 527.557 353.869 527.507C353.688 527.468 353.516 527.423 353.36 527.357C353.293 527.329 353.222 527.302 353.161 527.268C352.92 527.135 352.706 526.972 352.572 526.748L352.561 526.738C352.485 526.603 352.43 526.427 352.362 526.269C352.306 526.14 352.235 526.032 352.192 525.89C352.095 525.573 352.039 525.227 352.052 524.852C352.078 524.099 352.394 523.246 353.27 522.336C353.712 521.879 354.051 521.441 354.318 521.038C354.584 520.637 354.772 520.277 354.907 519.97C355.18 519.356 355.237 518.972 355.237 518.972C355.272 518.806 355.263 518.631 355.287 518.463C355.46 517.381 355.486 516.255 355.337 515.098C355.662 515.03 355.836 514.999 355.836 514.999C355.836 514.999 367.023 512.381 371.728 511.585C376.419 510.769 387.044 508.489 391.574 506.304C396.08 504.124 398.352 502.404 398.881 501.083C399.401 499.762 396.975 498.997 396.975 498.997C396.975 498.997 394.125 498.325 394.509 497.339C394.883 496.344 395.931 495.492 400.399 493.496C404.861 491.5 410.453 489.325 416.061 487.946C421.665 486.577 419.625 488.894 419.625 488.894C419.625 488.894 416.259 492.31 415.822 493.636C415.399 494.966 415.969 495.02 416.401 495.253C416.828 495.496 419.537 495.395 421.372 494.924C423.232 494.448 438.183 488.753 447.297 483.533C447.525 483.407 447.752 483.27 447.966 483.144L448.784 482.845ZM350.096 516.407C350.562 519.592 349.587 520.662 348.868 521.847C348.101 523.105 346.002 524.723 347.051 527.597C348.1 530.462 355.227 529.549 359.35 528.296C363.482 527.034 366.978 525.913 369.712 524.932C372.441 523.961 373.206 525.341 373.206 525.341C373.206 525.341 374.392 526.184 370.411 528.286C366.419 530.384 359.068 531.362 355.576 531.78C352.071 532.202 353.124 531.571 347.88 533.387C342.626 535.213 347.54 536.821 347.54 536.821C350.339 537.55 352.936 537.95 355.297 538.159C337.214 542.409 318.369 544.687 298.985 544.687C289.124 544.687 279.412 544.072 269.856 542.94C270.386 542.516 268.777 541.862 268.777 541.862C268.777 541.862 264.424 539.804 254.752 539.037C254.752 539.037 250.853 538.772 247.454 539.097C247.221 539.12 246.998 539.072 246.766 539.077C244.383 538.56 242.014 538.016 239.658 537.43C238.413 536.978 235.863 535.955 236.823 534.685C237.435 533.884 237.482 533.055 237.132 532.249C242.489 532.587 249.551 532.948 249.551 532.948C249.551 532.948 264.002 533.489 271.912 532.858C275.471 532.557 274.368 534.415 274.368 534.415C274.368 534.415 273.337 536.131 275.376 536.981C275.376 536.981 279.119 539.114 291.608 537.74C304.096 536.351 306.841 533.557 306.841 533.557C306.841 533.557 308.29 532.217 305.134 531.62C302.653 531.139 302.658 531.381 299.434 531.051C296.205 530.726 294.587 530.047 296.729 529.474C298.87 528.911 302.429 528.625 302.429 528.625C302.429 528.625 313.342 527.109 322.164 524.822C322.164 524.822 331.575 522.604 340.912 519.322C344.588 518.04 347.692 517.092 350.086 516.417L350.096 516.407ZM215.041 529.833C221.375 530.658 229.33 531.574 232.051 531.85C232.024 532.281 231.891 532.74 231.632 533.337C231.136 534.485 232.116 535.216 233.099 535.713C226.969 534.006 220.968 531.994 215.041 529.833ZM254.542 540.215C256.079 540.16 257.378 540.189 258.915 540.505C261.983 541.146 265.128 541.92 265.443 542.182C265.566 542.28 265.24 542.298 264.954 542.322C260.823 541.748 256.728 541.062 252.665 540.285C253.228 540.255 254.046 540.233 254.542 540.215Z" fill="black"/>
<path d="M132.837 134.678H133.405C132.628 137.013 129.574 140.218 128.219 142.364C127.462 143.568 126.995 145.142 125.918 146.011C126.102 146.22 125.903 146.025 126.112 146.205C126.539 146.458 130.059 145.53 130.725 145.059C131.123 145.132 131.094 145.113 131.307 145.248C131.511 145.588 128.972 150.06 128.418 150.633V150.828C129.37 150.716 130.856 150.556 131.497 150.051C133.356 148.599 133.779 145.501 135.138 143.515C135.075 143.195 135.012 142.874 134.944 142.563C133.866 142.369 131.637 142.66 130.72 143.326H130.53C130.972 141.029 134.745 136.79 136.095 134.872C138.299 131.731 140.372 128.71 142.625 125.647C143.805 124.039 145.466 122.626 146.66 121.039C148.001 119.257 149.423 116.911 151.268 115.664V115.28H150.501C149.598 115.936 147.224 116.339 146.092 116.999C146.248 117.654 146.185 117.489 146.665 117.766C145.99 119.64 143.762 121.034 142.625 122.578C140.824 125.006 138.819 127.278 137.056 129.686C136.459 130.483 136.061 131.731 135.328 132.372C134.177 133.382 130.894 133.27 129.574 134.294H129.185C129.457 132.682 133.589 127.535 134.755 126.419V126.224C132.774 126.501 131.239 127.55 129.952 128.521C130.166 128.963 130.132 128.876 130.535 129.104C129.831 130.259 128.782 131.119 128.035 132.177C127.078 133.513 126.554 135.1 125.539 136.407C125.607 136.601 125.675 136.78 125.733 136.979C126.957 136.873 132.069 135.251 132.837 134.678ZM301.698 160.631C302.66 160.951 303.621 161.267 304.592 161.587C305.364 161.597 306.18 161.577 306.69 161.393C306.646 158.218 304.922 156.96 303.81 154.862C303.262 153.794 302.961 152.323 302.087 151.595C302.422 150.42 305.607 150.099 306.884 149.672C310.001 148.647 313.541 147.623 316.687 146.598C318.163 146.118 319.916 146.224 321.111 145.452C321.81 145.525 322.169 145.593 322.456 146.025C323.145 147.055 323.718 154.12 323.213 156.207C321.281 164.282 318.863 170.594 313.803 175.426V175.615C315.677 175.314 316.571 173.498 317.833 172.546C322.936 168.691 326.393 162.971 328.214 155.824C329.283 151.624 327.539 147.506 329.176 143.918H328.986C328.632 143.005 323.733 141.233 322.257 141.223C321.46 142.083 320.314 143.243 319.178 143.724C317.435 144.462 315.109 144.253 313.614 145.253C312.22 145.137 311.162 142.486 312.079 141.413C312.031 140.976 312.041 140.869 311.885 140.645C310.725 139.718 307.763 139.815 305.733 139.878C305.087 140.485 304.514 140.607 304.204 141.617H304.014C303.912 141.986 304.102 141.859 304.204 141.995C304.33 142.073 304.995 141.961 305.359 142.189C307.535 142.418 307.486 144.938 308.627 146.224C308.496 146.559 308.579 146.419 308.423 146.613C307.67 147.21 302.111 148.812 300.931 149.114C300.033 149.337 298.921 148.783 298.246 148.72C296.614 148.584 295.172 149.497 294.211 150.065C294.73 150.828 296.318 150.638 296.901 151.405C298.94 154.12 299.853 157.616 301.698 160.631ZM339.916 157.926C340.814 158.378 340.814 159.538 341.266 160.422C342.164 162.223 343.388 164.404 343.956 166.385V167.919C344.398 169.143 345.879 169.298 346.85 170.031C347.607 169.929 347.879 169.735 348.375 169.458C348.049 165.802 345.821 162.767 344.534 159.849C344.141 158.936 343.524 157.654 343.388 156.776C343.286 156.246 343.684 155.955 343.388 155.435C343.14 154.838 343.029 155.023 342.621 154.663C342.339 154.469 342.47 154.586 342.621 154.285C342.961 153.585 343.655 152.891 343.961 152.168C344.607 150.648 344.582 149.371 345.884 148.521C345.689 146.53 342.791 146.302 340.499 146.409C340.232 146.613 339.741 146.72 339.338 146.783C339.576 147.283 339.732 147.385 340.3 147.545C340.858 153.182 336.911 158.349 334.337 161.762C333.327 163.117 331.642 163.976 330.695 165.423H330.501V165.608C333.06 165.19 338.62 159.898 339.916 157.926ZM109.763 205.768C109.37 205.851 109.394 205.812 109.195 205.957C107.797 206.676 105.442 212.881 102.659 211.148C101.242 211.158 101.111 210.881 100.348 210.371C100.445 208.545 103.548 205.21 104.781 204.418C104.932 201.485 105.689 198.339 105.354 195.586C105.155 195.518 104.966 195.45 104.781 195.397C104.102 195.173 103.567 196.212 103.048 196.737C101.64 198.15 99.9015 199.636 98.8187 201.345C97.1824 201.33 91.9529 201.282 90.9381 201.922H90.3603C90.841 200.679 94.5361 196.601 93.4339 194.814C93.3708 194.615 93.3125 194.426 93.2397 194.231C89.734 194.241 85.5096 200.48 84.4026 203.068C83.8442 204.36 83.8442 205.851 83.0624 206.909V207.103C85.6844 206.783 88.3161 206.458 90.9381 206.137C91.9335 205.923 93.3028 206.39 94.0117 205.948H96.7017C97.1484 205.375 97.5951 204.792 98.0467 204.219C99.649 202.525 101.776 200.811 103.038 198.849H103.616V201.524C102.145 202.85 99.8626 204.899 99.1974 206.904V208.439C98.2117 212.712 100.28 214.892 104.004 214.591C106.432 212.328 110.433 210.473 109.957 205.953C109.753 205.783 109.943 205.977 109.763 205.768ZM87.4858 202.311H86.3254C86.8546 200.194 88.9328 197.771 91.5159 197.698V198.655C90.6177 199.815 89.7242 200.961 88.826 202.117C88.2773 202.107 87.782 202.107 87.4858 202.311ZM501.3 203.267C500.504 201.301 499.873 199.762 498.994 198.082C497.542 195.295 496.017 191.216 491.885 191.163C490.861 192.032 489.783 192.726 489.19 194.042C485.418 202.597 493.177 212.236 496.682 216.912C497.926 218.558 499.387 220.369 501.295 221.32C500.853 228.002 495.143 230.124 489.001 227.472C484.636 225.598 481.154 221.466 478.43 217.863C477.513 216.654 476.09 215.644 475.168 214.401C474.313 213.241 473.696 211.939 472.672 210.939V210.75H472.288C472.817 212.818 474.007 214.707 474.784 216.518C478.032 223.986 482.16 229.211 488.428 233.615C491.385 235.693 496.299 238.975 500.533 235.921C507.943 230.59 504.335 210.726 501.3 203.267ZM500.732 212.498C500.227 212.983 498.12 210.463 497.654 209.997C495.507 207.846 491.201 204.069 493.624 200.388H494.58C496.464 202.345 498.202 204.214 499.387 206.914C500.013 208.366 500.125 210.823 500.917 212.105C500.8 212.444 500.883 212.299 500.732 212.498ZM373.352 250.915V248.997C374.221 245.108 374.017 240.427 374.876 236.509C376.056 231.226 374.395 226.079 379.693 224.787C379.795 224.273 379.96 224.069 379.693 223.632C379.567 223.306 379.649 223.442 379.499 223.248C379.29 223.098 379.314 223.132 378.926 223.059C377.454 224.137 373.444 224.87 371.438 225.36C369.923 225.729 368.341 225.409 367.209 226.127C367.015 226.19 366.826 226.258 366.631 226.322C366.695 226.705 366.758 227.094 366.826 227.472C369.016 228.186 371.035 227.322 372.016 229.201C372.647 230.425 372.56 234.819 372.206 236.504C370.987 242.151 371.506 248.599 370.278 254.178C369.86 256.106 370.394 259.864 369.516 261.282V261.67C368.345 261.112 367.588 259.602 366.826 258.596C365.112 256.329 362.577 254.518 360.863 252.26C359.829 250.896 358.746 249.264 357.406 248.215C357.586 244.52 358.663 240.641 359.523 237.271C360.159 234.736 360.178 232.391 361.441 230.541C362.159 229.487 363.893 228.817 365.087 228.235C365.077 227.749 365.068 227.526 364.893 227.273C364.83 227.079 364.781 226.89 364.714 226.695C362.077 227.089 359.843 228.351 357.406 229.002C355.201 229.599 352.982 229.449 351.249 230.342C351.302 230.784 351.298 230.886 351.443 231.109C351.511 231.299 351.569 231.498 351.637 231.682C358.387 231.303 357.362 234.974 356.061 240.141C355.658 241.723 355.925 243.904 355.099 245.132V245.516H354.905C353.526 243.413 351.443 241.379 349.724 239.558C349.02 238.917 348.311 238.276 347.612 237.64C347.107 236.975 346.835 236.125 346.262 235.523C346.384 233.401 348.107 232.857 349.724 232.26C349.652 231.371 349.472 231.26 349.151 230.721C344.145 231.454 339.795 234.265 334.167 234.561V234.761H333.973C333.992 235.246 333.992 235.469 334.167 235.717V236.101C335.269 236.29 336.906 235.838 338.202 236.295C340.276 237.023 342.135 239.441 343.383 241.102C345.267 243.593 348.219 245.71 350.103 248.206C351.099 249.536 352.21 251.284 353.565 252.245C353.381 255.625 352.453 259.179 351.642 262.238C351.225 263.806 351.472 265.807 350.686 267.035C350.564 267.37 350.642 267.225 350.487 267.424C348.661 263.938 345.126 261.282 342.805 258.198C338.353 252.275 333.4 246.938 328.782 241.102C328.782 240.291 328.831 239.801 329.171 239.373C329.53 238.261 330.919 237.222 332.24 237.062C332.312 236.479 332.405 236.407 332.05 235.906C331.982 235.722 331.924 235.533 331.851 235.334C327.952 235.931 324.471 237.747 320.717 238.8C318.77 239.344 316.216 239.077 314.76 240.141C314.565 240.204 314.371 240.267 314.182 240.335C314.289 241.073 314.478 241.189 314.76 241.68C316.294 241.655 317.891 241.233 319.367 241.68C323.218 242.85 325.986 247.2 328.205 250.138C329.176 251.43 330.686 252.483 331.667 253.785C335.779 259.267 340.436 264.205 344.534 269.735C346.126 271.881 348.273 273.741 349.71 276.067C350.579 276.047 350.759 275.945 351.244 275.683C352.283 271.172 352.861 266.623 354.138 262.039C354.716 259.941 355.444 257.465 355.668 255.125C357.26 255.693 358.542 258.072 359.513 259.354C362.524 263.34 366.763 266.647 369.501 270.876C370.302 270.842 370.385 270.75 370.846 270.497C371.691 263.981 372.521 257.446 373.352 250.915ZM70.3846 283.768C70.3215 295.746 69.6951 314.207 79.0323 316.815C82.4312 317.752 84.3103 315.499 85.3737 313.925C89.1901 308.244 88.1171 297.193 84.4074 292.415C82.7614 292.58 80.4016 296.494 79.6101 297.786C79.212 297.708 79.246 297.732 79.0323 297.591C78.5905 297.392 78.6196 297.271 78.2603 297.018C77.969 292.488 78.8769 288.269 79.0323 283.952C84.1015 284.447 88.4569 287.332 93.633 287.599C93.6281 286.7 93.633 285.491 94.0068 284.918C93.9634 284.472 93.9726 284.375 93.8126 284.142C93.1086 283.583 89.2047 282.656 88.0539 282.612V282.418H87.8597C88.5686 276.717 86.9566 272.309 83.0527 270.696C80.8726 270.308 78.6973 269.92 76.5171 269.536C75.4052 269.133 74.8614 268.244 74.0214 267.618C73.7398 265.773 73.3756 263.704 74.7934 262.622C74.6915 261.932 74.638 261.806 74.2156 261.466V261.277H74.0214C73.3756 262.384 72.8318 263.671 72.4919 265.122C71.3557 269.895 73.9923 273.95 76.9056 274.921C78.8332 275.236 80.7512 275.562 82.674 275.877C84.1986 276.47 84.8736 277.718 85.9321 278.766C85.8884 281.252 83.5043 281.524 81.5135 280.879C78.406 279.869 75.0993 279.165 71.9141 278.004C71.0789 277.693 70.2972 277.179 69.2193 277.038C69.0882 278.252 68.9571 279.47 68.8308 280.684C71.5208 281.515 74.2156 282.35 76.9007 283.185C76.7891 289.973 74.1136 298.111 77.4785 303.35C77.8864 303.452 78.1729 303.53 78.4399 303.739C82.2273 303.476 83.0187 300.437 84.9707 298.359C86.6313 302.34 85.3882 309.298 81.7126 310.269C80.1297 311.357 77.8136 309.949 76.9104 309.118C73.7641 306.21 73.0988 301.782 71.9238 296.824C71.5208 295.154 72.084 291.765 71.3508 290.478C71.38 288.516 71.7976 284.972 70.7682 283.952V283.763H70.3846V283.768ZM531.851 316.052C531.157 312.818 532.113 308.876 531.463 305.87V302.797C530.992 300.597 531.176 297.669 530.705 295.503C529.778 291.221 530.589 286.152 528.972 282.627C528.015 282.398 527.073 282.219 525.714 282.238C525.223 282.743 524.854 283.005 524.942 283.588C525.345 285.331 527.598 285.686 528.21 287.434C528.273 288.269 528.336 289.099 528.404 289.929C529.04 292.653 528.943 296.174 529.55 298.961V301.267C529.86 302.67 530.336 306.297 529.938 307.419C529.263 309.41 527.098 311.206 525.714 312.605C522.053 316.271 517.76 320.932 511.298 321.631C511.171 321.961 511.254 321.821 511.103 322.02C511.21 324.418 513.405 323.942 514.954 324.904C515.337 324.836 515.721 324.768 516.1 324.7C516.692 324.341 517.027 323.525 517.44 322.971C518.411 321.704 520.178 321.034 521.086 319.713H521.281C521.291 325.564 521.422 332.148 521.475 337.766H522.048C523.373 332.08 523.267 325.093 523.204 318.164C525.733 315.805 527.34 312.386 529.924 310.104V309.721H530.128C530.157 315.795 530.307 322 530.307 328.157C530.307 330.133 529.817 334.848 530.307 335.654V336.805H530.691C531.215 334.741 531.341 331.838 531.846 329.517V326.249C532.41 323.646 532.405 318.65 531.851 316.052ZM186.995 328.337C185.311 327.638 183.228 326.098 182.193 324.69C179.1 320.442 175.701 310.376 177.969 302.792C179.809 296.645 183.805 292.464 190.263 290.876C193.531 290.085 197.046 291.177 199.105 292.226C204.971 295.246 207.481 299.538 209.282 306.632C211.613 315.795 208.642 324.205 202.558 326.997C202.936 330.706 203.325 334.421 203.708 338.135C205.864 338.077 207.845 337.621 209.666 337.174C212.72 336.412 215.837 336.319 218.697 335.635C220.79 335.134 223.805 335.567 225.417 334.479C225.801 333.658 224.218 327.929 223.888 326.598C223.611 325.491 223.844 324.36 223.31 323.53V323.146C222.868 323.204 222.412 323.268 221.965 323.336C222.053 329.138 217.916 328.346 213.317 329.478C211.021 330.056 208.224 330.789 205.641 330.828C205.641 330.002 205.641 329.162 205.636 328.332C205.854 327.929 209.224 326.467 209.85 326.025C212.089 324.477 214.371 322.02 215.818 319.699C216.799 318.111 217.595 315.989 218.115 314.12C218.785 311.745 218.862 308.439 218.314 306.05C217.93 304.409 218.081 303.122 217.546 301.631C215.473 295.868 211.127 291.658 205.636 289.337C203.145 288.288 200.329 288.249 197.381 287.608C194.764 287.045 190.054 288.21 188.151 288.764C178.901 291.493 172.623 295.95 169.705 304.899C168.559 308.434 168.913 313.328 169.899 316.62C172.166 324.2 178.508 331.284 187.962 331.415V331.605C188.263 332.032 188.253 332.886 188.535 333.333C188.418 333.663 188.491 333.522 188.34 333.722C187.544 334.265 186.379 334.013 185.267 334.29C182.985 334.867 175.624 336.654 173.934 335.062C172.856 334.707 172.137 333.294 172.011 331.993C171.53 332.012 171.302 332.012 171.055 332.182H170.656C171.365 335.897 172.069 339.621 172.769 343.331H172.968V343.525C179.693 342.364 186.418 341.209 193.138 340.063C192.176 336.538 191.22 333.017 190.258 329.492C189.714 328.652 187.986 328.754 186.995 328.337ZM515.716 307.016C516.134 308.075 516.95 309.832 517.824 310.473C518.241 310.779 518.464 310.667 518.79 311.051C525.146 311.6 527.729 300.646 525.136 294.338C524.684 293.246 522.635 290.041 520.713 291.265H520.324C520.45 290.93 520.363 291.08 520.518 290.876C520.513 289.963 520.416 289.662 520.14 289.148C519.751 289.084 519.382 289.021 518.979 288.963C518.79 289.114 518.936 289.031 518.6 289.148C518.732 290.313 519.139 290.347 519.178 291.643C516.09 294.474 513.444 301.262 515.716 307.016ZM517.819 296.834C518.246 295.8 519.105 295.134 519.741 294.333C520.14 294.261 520.106 294.285 520.31 294.139C521.766 294.134 522.174 294.416 523 294.911C524.466 298.363 524.68 304.399 522.247 307.021C521.863 307.434 521.13 307.584 520.708 307.977C516.692 307.672 516.367 300.33 517.819 296.834ZM428.695 372.498C426.539 371.168 426.238 364.365 425.432 361.359C423.844 355.46 423.087 349.274 421.397 343.297C420.314 339.471 418.853 335.499 419.285 330.808C419.96 330.138 420.407 329.254 421.208 328.696C422.291 327.943 424.024 327.589 424.854 326.584C424.99 326.336 424.767 325.962 424.66 325.428C422.431 325.778 420.392 327.128 418.508 327.929C414.663 329.565 410.895 330.531 406.986 332.153C405.762 332.663 404.485 333.527 402.941 333.692V334.848C403.072 334.911 403.203 334.974 403.33 335.042C403.534 335.261 408.345 333.139 409.865 334.469C411.594 335.076 411.375 337.334 412.361 338.703C412.065 341.685 409.093 346.268 407.933 348.885C405.117 355.319 402.252 361.471 399.105 367.511C397.901 369.818 396.469 373.989 394.876 375.771V375.96C393.827 374.523 393.9 370.857 393.342 368.861C391.637 362.865 390.54 356.28 388.729 350.42C388.394 349.298 387.243 344.21 387.967 343.122C388.214 340.471 391.963 339.31 394.114 338.509C394.056 338.062 393.988 337.611 393.924 337.164C390.516 337.674 386.986 339.485 383.932 340.621C381.043 341.699 378.396 342.146 375.478 343.122C374.031 343.607 372.39 344.467 370.686 344.656V344.855H370.492C370.555 345.399 370.613 345.686 370.87 346.006C371.652 346.526 375.872 344.297 377.595 345.627C380.295 346.555 380.378 350.852 381.242 353.692C383.582 361.359 384.772 369.847 387.005 377.713C387.564 379.674 388.894 385.894 387.583 387.506C386.855 389.643 383.286 390.497 381.242 391.347C381.31 391.741 381.363 392.124 381.426 392.503C384.378 392.066 387.064 390.692 389.71 389.784C394.871 388.065 399.746 386.628 404.709 384.787C404.626 384.341 404.573 383.884 404.51 383.447C402.388 384.015 400.751 384.656 397.785 384.598C397.391 384.268 397.013 383.952 396.634 383.632C396.309 382.612 395.993 381.583 395.668 380.563C395.876 378.14 398.979 373.663 400.086 371.527C403.354 365.249 406.214 358.907 409.108 352.323C410.21 349.808 412.769 346.127 413.148 343.302C414.031 343.845 413.789 345.428 414.104 346.564C414.76 348.866 415.124 351.333 415.833 353.862C417.192 358.718 417.726 363.938 419.096 369.041C419.605 370.91 420.363 374.129 419.484 376.149C418.62 378.111 415.401 379.407 413.332 380.179C413.415 380.587 413.517 381.063 413.721 381.335C413.74 381.369 418.129 379.937 418.897 379.606C424.262 377.329 429.763 374.95 435.226 372.886C435.153 372.435 435.1 371.988 435.036 371.546C433.677 371.891 430.569 373.658 428.695 372.498ZM519.552 388.667C518.858 389.298 517.824 389.458 517.056 390.012C514.624 391.755 512.079 394.683 510.331 397.116C508.933 399.068 507.739 401.209 506.491 403.272C505.947 404.176 505.826 405.224 505.146 405.953V406.341C506.821 406.06 507.807 404.972 508.991 404.229C512.191 402.248 515.056 400.437 518.013 398.281C519.445 397.232 520.514 395.61 522.043 394.62C522.184 392.333 522.65 390.527 521.669 388.856C521.067 388.73 520.387 388.657 519.552 388.667ZM517.251 395.576C516.09 396.431 514.969 397.63 513.793 398.465C512.784 399.165 511.57 399.543 510.72 400.383H510.526C511.157 398.402 514.497 395.003 516.09 393.858C516.916 393.255 517.95 393.095 518.79 392.503H519.552C519.727 392.726 519.717 392.716 519.941 392.891C519.756 394.343 518.197 394.863 517.251 395.576ZM102.082 403.069C101.276 400.636 100.732 398.262 99.9695 395.96C99.5859 394.766 99.6684 393.406 99.0032 392.498V391.925C100.309 392.396 102.3 392.347 103.427 393.081H104.403C104.184 392.08 103.985 390.405 103.427 389.619C102.844 388.672 99.1246 388.662 98.0564 387.9C96.5414 386.71 95.1091 383.297 94.0166 381.554C91.2974 377.247 87.6946 372.658 83.6402 369.643C81.4892 368.045 79.9937 366.385 76.1433 366.375C75.6966 366.696 75.245 367.016 74.8031 367.337C73.9388 371.168 75.4781 378.252 77.6776 380.019V380.403C76.7599 380.155 75.7694 379.66 75.1819 379.058H74.9876C75.0216 380.16 75.2353 381.602 75.7548 382.321C75.9782 383.268 77.5125 384.04 78.4448 384.244C79.649 389.279 81.3193 394.445 83.0576 399.048C84.4608 402.733 85.1746 406.239 86.6992 409.798C87.4518 411.527 89.2338 412.789 89.7777 414.6H90.3458C89.9136 412.979 89.0299 411.459 88.4327 409.993C86.6652 405.744 85.262 401.238 83.8102 396.936C82.8682 394.11 82.2176 391.371 81.3144 388.672C80.9794 387.652 81.0765 386.598 80.5473 385.783V385.593C81.8534 385.831 82.6351 386.511 83.6257 386.943C85.8641 387.919 88.0102 388.288 90.3506 389.245C92.0646 389.949 94.2156 390.925 96.3132 391.163C96.5463 392.911 97.5417 397.475 98.4254 398.66V399.233C95.5024 397.227 95.5655 394.377 90.3506 394.814C90.0884 395.115 89.7291 395.382 89.3941 395.581C88.9182 396.771 88.8891 398.723 89.3941 400C90.6419 403.141 94.5992 409.667 97.8476 410.57C99.0955 411.464 100.926 410.362 101.489 409.405C102.664 410.027 102.912 412.716 103.407 414.027C104.437 416.732 105.942 420.286 108.413 421.52V421.714H108.816C108.496 419.543 107.272 417.591 106.51 415.746C104.81 411.609 103.48 407.244 102.082 403.069ZM96.5123 387.511C94.4827 387.371 92.759 386.569 91.1324 385.977C86.7915 384.365 82.8634 382.991 79.0323 381.165C78.571 379.422 75.3421 373.187 77.1095 370.993C77.2358 370.799 77.3669 370.599 77.4931 370.41C77.8864 370.328 77.867 370.361 78.0709 370.221C83.9898 370.93 89.9282 378.13 92.8609 382.127C94.0068 383.685 94.9488 386.006 96.5123 387.128V387.511ZM99.5859 404.219C99.0032 404.933 98.4351 405.632 97.8573 406.336C97.3475 406.71 96.7745 406.866 96.3229 407.298C93.0212 407.196 92.9046 403.967 91.5208 401.918C91.5448 400.029 92.2588 400.024 93.0503 399.029C93.497 399 93.5941 399 93.8175 398.849C96.7988 398.868 97.4737 400.204 99.2023 401.345C99.4839 402.486 99.6636 402.976 99.5859 404.219ZM212.56 433.804C211.759 432.488 210.181 432.144 209.098 431.114C208.763 431.002 208.904 431.08 208.714 430.925C211.191 429.648 213.827 428.235 216.401 427.089C217.09 427.856 220.29 430.935 221.397 430.347C221.591 430.289 221.781 430.235 221.97 430.162C221.907 429.075 221.849 427.987 221.776 426.895C219.353 424.477 215.784 422.476 211.778 421.714V421.903H211.589C212.04 423.234 213.521 424.501 214.677 425.171V425.744C212.4 426.079 210.38 427.181 208.331 427.861C206.928 428.313 205.233 428.249 204.092 429.012H203.524C204.354 426.681 207.102 424.783 208.515 422.86C211.312 419.087 213.531 414.469 217.935 412.294C217.819 410.522 212.71 406.856 210.827 408.065C210.356 408.312 210.686 407.963 210.443 408.444C210.156 409.143 211.108 410.007 210.827 411.134C210.457 412.615 206.792 419.582 205.83 420.359V420.558C203.849 419.883 202.344 418.019 200.455 417.096C200.79 415.329 202.276 413.979 203.145 412.678C205.345 409.356 207.107 406.195 210.443 404.025C210.414 401.471 206.291 398.805 203.524 398.849C203.534 400.029 204.131 400.689 203.912 401.728C203.232 404.855 201.8 408.016 200.649 410.76C199.892 412.532 199.552 414.639 198.338 415.936C198.076 416.081 195.949 415.907 195.454 415.562C194.73 415.552 194.007 415.586 193.541 415.746V416.13C196.775 419.262 200.275 420.335 204.684 422.287C204.072 425.467 200.868 427.589 199.304 429.978C198.498 429.978 197.848 429.925 197.386 429.59C196.945 429.662 196.911 429.682 196.619 429.784C196.697 432.615 199.047 435.018 201.412 435.547C202.999 433.77 204.99 432.911 207.374 431.901C209.554 434.173 210.181 437.422 211.021 441.117C211.385 442.734 210.793 444.506 211.215 445.919C211.953 448.414 213.283 449.157 214.478 450.905H215.823C216.668 446.39 214.594 442.01 213.516 438.422C213.201 436.892 212.88 435.343 212.56 433.804ZM516.09 401.34C514.93 402.326 513.322 402.777 512.06 403.646C510.113 405.016 508.379 406.846 506.496 408.259C505.636 408.91 504.388 409.488 503.801 410.371C502.83 411.828 503.024 414.28 501.878 415.557V416.319C503.412 415.766 504.131 413.974 505.34 413.061C506.821 411.94 508.078 410.454 509.564 409.4C510.501 408.75 511.56 408.39 512.448 407.672C513.055 407.783 513.007 407.851 513.415 408.065C513.322 412.945 510.749 416.387 509.186 419.98C508.734 421.024 508.598 422.656 507.836 423.428C507.481 423.797 506.724 423.884 506.311 424.19C505.029 425.608 503.747 427.011 502.456 428.429C501.242 430.099 500.683 432.328 499.392 433.993C499.378 434.547 499.378 435.042 499.572 435.334C499.766 435.489 500.111 435.62 500.344 435.722C502.82 433.377 505.219 431.42 507.263 428.609C510.453 424.219 512.05 418.669 514.371 413.435C515.828 410.128 517.935 406.87 517.824 402.102C517.6 401.889 517.416 401.617 517.255 401.335H516.09V401.34ZM502.64 431.702V431.891H502.446C502.781 429.585 504.534 428.949 505.34 427.269H505.724C505.476 429.177 504.029 430.891 502.64 431.702ZM215.439 434.77C215.051 436.431 219.13 440.146 220.426 441.117C221.072 441.597 221.941 442.714 222.927 442.263C223.432 442.224 223.587 442.17 223.893 442.068C224.116 441.554 224.451 440.903 224.082 440.349C223.98 437.931 217.717 435.232 215.439 434.77ZM233.886 449.551C234.211 449.716 234.478 449.653 234.847 449.361C235.522 448.808 235.153 447.846 235.619 447.055C236.697 446.283 238.605 446.482 240.042 446.089C243.971 445.054 248.554 445.127 252.91 444.166C254.973 443.714 258.387 444.943 260.018 443.981C260.212 443.909 260.411 443.85 260.591 443.777C260.499 441.267 255.692 440.189 253.089 440.918C251.938 441.243 250.598 441.957 249.443 442.258C248.544 442.321 247.646 442.389 246.748 442.442C246.447 439.32 244.903 436.887 244.83 433.62C247.719 433.557 251.341 433.178 253.274 432.085C253.235 431.104 253.055 431.104 252.701 430.551C250.501 430.022 246.728 429.939 245.014 431.114C244.529 431.095 244.301 431.095 244.058 430.925C242.985 429.565 243.495 426.798 242.524 425.36V424.593C244.592 424.146 247.971 423.777 249.054 422.287C249.205 422.088 249.122 422.238 249.244 421.908C249.069 421.733 248.996 421.573 248.86 421.325C245.854 420.568 244.553 421.087 241.951 422.097C241.14 419.495 242.116 417.436 239.455 416.713C240.023 415.727 241.912 415.771 243.101 415.372C244.956 414.761 247.068 413.935 248.676 413.071C248.802 412.741 248.71 412.877 248.87 412.682C248.763 411.711 248.491 411.745 248.098 411.148C245.325 410.934 243.111 411.202 241.562 412.682H241.193C241.421 411.25 242.315 409.201 243.106 408.075C243.65 407.288 244.65 407.395 245.029 406.346H245.223V406.152C244.83 405.647 244.451 405.132 244.068 404.627C243.164 403.996 241.863 403.933 240.999 403.272C239.722 403.253 238.498 403.258 237.736 403.656C237.838 404.394 238.168 404.86 238.314 405.385C238.843 407.371 236.935 413.489 236.197 414.416C235.6 415.169 228.666 417.674 226.782 417.106C226.335 416.965 225.034 416.31 224.67 415.945C224.514 415.756 224.597 415.907 224.475 415.572C227.199 413.008 229.161 407.307 232.929 406.157C232.997 405.836 233.06 405.516 233.128 405.195C232.186 404.224 227.617 399.427 225.252 400.966C225.058 401.034 224.869 401.083 224.684 401.151C224.684 402.792 225.5 404.03 225.063 405.768C224.179 409.22 222.213 413.314 220.45 416.145C219.392 417.839 217.085 419.689 216.993 422.107C220.13 421.792 220.887 418.553 223.325 417.674C224.034 418.329 224.733 418.97 225.442 419.607C226.447 421.112 226.257 423.384 226.782 425.36C227.68 429.522 228.583 433.688 229.472 437.849C229.593 439.903 229.724 441.942 229.86 444.001C230.37 445.875 231.9 449.104 233.886 449.551ZM240.018 434.96C240.169 436.747 241.271 441.792 242.135 443.03C242.14 443.151 242.14 443.292 242.14 443.418C239.824 443.913 237.416 444.583 234.837 444.574C234.439 441.83 233.128 439.427 233.114 436.504C236.061 436.446 237.581 435.256 240.018 434.96ZM228.879 419.024C229.185 418.504 234.284 417.693 234.842 418.058C236.881 419.004 236.153 422 237.338 423.821C236.935 424.768 232.254 426.195 230.807 426.317C230.55 424.287 230.21 420.121 228.879 419.024ZM237.721 426.322H237.916C238.285 428.07 238.493 431.07 239.455 432.474C238.765 434.154 234.522 434.013 232.919 434.969C232.249 434.566 231.366 429.745 231.385 428.439C232.851 428.308 236.658 427.045 237.721 426.322ZM204.48 437.261C204.189 437.917 204.223 438.975 203.912 439.757C202.252 443.826 201.708 444.676 204.296 448.594C205.447 448.594 205.602 448.414 206.219 448.016C206.981 444.826 207.102 438.762 204.48 437.261ZM423.514 438.417C417.906 437.033 413.191 439.801 407.365 439.383C406.811 438.796 406.394 438.461 406.029 437.655C401.975 437.771 397.498 446.807 401.611 449.565C403.81 451.056 410.079 450.192 412.754 449.565C414.235 449.216 416.556 448.89 417.746 449.75C419.358 450.949 419.071 455.489 418.508 458.019C417.867 462.753 417.221 467.492 416.585 472.241C416.017 475.115 415.439 477.995 414.857 480.879C417.804 480.864 420.577 477.854 421.407 475.688C421.888 474.435 421.63 473.251 421.985 471.847C423 467.817 423.135 463.01 424.097 458.786C424.714 456.047 424.296 453.45 424.854 450.91C425.272 449.012 425.549 442.675 425.058 440.922C424.762 439.946 424.009 439.179 423.514 438.417ZM160.504 496.446C159.848 495.95 159.392 495.071 158.775 494.528C156.478 492.488 153.779 490.522 151.283 488.759C149.214 487.312 146.389 486.448 144.548 484.734C144.5 484.316 145.145 483.297 144.747 482.233C143.121 477.888 137.032 472.852 133.22 470.522C131.458 469.424 128.501 468.924 126.884 467.822C125.689 467.749 125.068 467.701 124.772 468.584C124.301 469.638 125.786 471.114 126.301 471.852C127.617 473.707 129.122 475.873 130.914 477.218C132.254 478.232 133.784 479.121 134.944 480.301H135.522C134.774 478.232 132.565 477.111 130.914 475.887C129.404 474.766 128.734 472.818 127.457 471.464C127.559 470.857 127.627 470.91 127.845 470.502C133.152 470.541 136.595 475.411 138.984 478.567C140.052 479.98 141.756 480.806 141.868 483.185C141.305 483.185 140.819 483.19 140.528 482.991H139.95C140.863 485.53 143.951 485.317 146.102 486.647C150.414 489.313 153.885 493.498 157.624 496.819C158.896 497.956 161.115 499.077 161.465 501.053C158.858 500.918 157.012 499.466 155.342 498.359C152.361 496.416 147.588 493.027 145.539 490.289C145.15 489.784 145.024 489.021 144.573 488.565C144.043 488.026 143.305 487.866 142.849 487.225H142.082C141.892 489.221 144.058 490.653 145.34 491.833C149.316 495.474 153.575 498.835 158.595 501.442C160.406 502.379 163.708 503.977 165.709 502.787C165.442 500.034 162.3 497.805 160.504 496.446ZM278.829 509.123C269.049 502.432 254.624 495.649 237.911 496.067C237.1 496.572 235.468 496.169 234.458 496.446C233.06 496.815 232.206 497.528 231.196 498.169C231.157 502.889 238.217 505.438 242.145 506.424C244.49 507.021 246.559 505.924 247.913 505.457C248.957 501.471 244.145 500.888 241.955 498.922H241.562V498.737C256.304 498.155 267.335 502.272 275.76 508.541C277.862 510.104 280.275 512.343 281.334 514.877C281.727 515.824 281.897 517.373 281.334 518.15C280.562 520.286 278.008 520.097 275.566 520.651C269.923 521.937 262.189 518.752 259.615 516.227C259.091 517.15 259.853 518.563 259.042 519.495C258.188 521.816 255.216 521.214 252.507 521.796C248.054 522.763 241.081 520.481 238.484 518.728C237.76 518.232 237.236 517.339 236.561 516.805C236.527 516.31 236.474 516.149 236.362 515.844C236.755 515.479 237.221 514.936 237.513 514.499C243.043 514.086 245.854 514.363 249.049 517.383C248.967 517.771 249.001 517.747 248.85 517.946C248.491 518.684 247.661 518.771 246.549 518.728V519.092C248.574 519.111 249.428 518.805 250.579 518.135C250.642 517.752 250.71 517.363 250.773 516.985C250.113 516.305 249.652 515.392 248.85 514.863C245.694 512.799 239.183 511.75 235.6 514.105C235.036 516.824 236.726 518.3 238.29 519.475C241.426 521.845 244.072 523.224 248.476 524.472C249.889 524.865 251.147 524.506 252.706 524.846C254.065 525.156 256.42 525.229 257.891 524.846C260.339 524.224 263.742 521.641 260.96 518.689V518.509C262.412 519.043 263.602 520.466 264.995 521.209C268.69 523.137 274.808 524.729 280.373 523.51C283.101 522.908 285.922 522.908 286.699 520.432C287.568 519.082 286.369 517.189 285.942 516.416C284.15 513.226 281.79 511.138 278.829 509.123ZM243.286 500.281C243.966 500.738 244.354 501.694 245.014 502.204C245 502.69 244.995 502.923 244.82 503.171C243.572 506.555 236.537 504.049 234.828 502.777C234.293 502.389 234.085 501.573 233.682 501.058C233.754 500.66 233.73 500.68 233.881 500.485C234.405 499.009 235.905 499.5 237.139 498.757C239.576 498.767 241.781 499.257 243.286 500.281ZM421.577 502.199H419.654C418.377 503.219 416.289 503.35 414.837 504.117C413.565 504.802 412.016 505.729 410.812 506.618C409.807 507.341 409.229 508.648 408.311 509.488C408.331 510.449 408.35 510.595 409.083 510.837C409.278 510.988 409.132 510.915 409.457 511.032C409.661 510.803 409.846 510.721 410.04 510.449C410.2 510.332 409.904 509.944 409.846 509.313C411.706 507.448 413.084 506.419 415.804 505.273C416.498 504.996 417.974 504.142 418.877 504.7H419.266C419.134 506.594 414.818 512.42 413.502 513.343V513.911C417.037 513.003 419.397 505.933 421.766 503.355C421.708 502.918 421.718 502.806 421.572 502.593V502.199H421.577ZM406.204 516.416C405.068 517.436 402.286 517.533 401.023 518.529H400.829C401.329 517.8 402.237 517.494 402.752 516.805C403.121 516.3 403.276 515.712 403.708 515.271C403.626 514.877 403.66 514.906 403.519 514.702V514.314C397.911 513.285 388.545 518.121 385.651 520.655C384.898 521.311 384.451 522.292 383.728 522.971C383.742 523.51 383.806 523.787 383.917 524.117C387.321 524.346 393.701 522.258 394.473 519.509C394.624 519.388 394.527 519.499 394.473 519.315V518.932C392.147 518.796 389.016 519.296 387.569 520.655H387.379C388.642 518.733 393.313 517.033 395.823 516.242C396.658 515.979 398.494 515.513 399.29 516.047C399.47 516.12 399.664 516.174 399.858 516.242C399.406 518.16 396.668 520.306 394.862 520.85V521.238C397.814 520.558 400.509 519.218 403.116 518.164C404.908 517.431 406.933 517.252 408.501 516.242C409.613 515.513 413.395 510.376 413.691 508.939C409.249 509.624 408.889 514.013 406.204 516.416ZM391.026 520.262V520.84C390.662 521.078 390.399 521.602 390.059 521.796C389.064 522.379 387.738 522.316 386.792 522.952C386.355 522.903 386.258 522.913 386.034 522.753H385.845C386.364 521.112 389.53 520.364 391.026 520.262ZM310.919 538.31C310.987 538.13 311.04 537.931 311.108 537.742C306.369 537.548 301.625 537.358 296.896 537.164C296.299 537.562 295.381 537.334 294.59 537.548C293.609 537.829 292.521 538.281 291.71 538.708C291.837 539.034 291.749 538.893 291.905 539.087C293.06 540 299.79 540.053 301.13 539.087H301.509V538.708C299.474 538.063 295.765 539.684 294.211 538.708H294.012V538.509C299.12 538.155 304.84 538.3 310.157 538.315C309.637 538.669 308.564 538.563 308.039 538.893C307.85 538.961 307.661 539.024 307.471 539.087V539.471C308.627 539.655 309.773 539.854 310.924 540.039C311.103 540.243 310.904 540.063 311.113 540.228C309.414 541.359 305.024 540.893 303.436 540.039V539.655C302.572 539.257 298.625 540.063 297.862 540.228C297.216 540.374 296.551 540.16 296.129 540.417C295.328 540.461 295.25 540.558 294.789 540.801C294.896 541.423 294.959 541.359 295.177 541.762C296.415 542.054 298.557 542.083 299.97 542.53V542.34H300.164V542.146C299.445 541.869 297.45 542.02 296.702 541.583H296.318C296.959 541.078 303.237 540.233 304.393 541.005C304.723 541.122 304.582 541.039 304.777 541.194C303.752 541.379 302.723 541.583 301.698 541.762C301.82 542.093 301.742 541.952 301.892 542.146C302.208 542.36 302.829 542.36 303.427 542.34C303.233 542.7 303.165 542.865 302.849 543.103C302.912 543.219 302.98 543.355 303.043 543.486C305.762 543.481 308.049 543.209 310.336 542.724C311.696 542.428 313.366 542.971 314.371 542.34H315.91V541.952C313.293 541.947 306.758 541.694 305.155 542.724H304.587C304.747 542.52 304.568 542.704 304.772 542.53C305.529 541.656 307.059 542.093 308.413 541.762C310.55 541.253 314.085 540.383 315.91 541.762C316.425 542.083 316.105 541.728 316.1 542.34C316.619 542.325 316.979 542.325 317.25 542.156H318.6V541.762C316.847 541.34 314.284 540.544 312.837 539.66C311.997 539.14 312.376 538.441 310.919 538.31ZM115.726 184.059C115.298 185.613 114.395 186.938 113.808 188.283C112.506 191.26 111.346 194.231 110.161 197.13C109.156 199.538 108.535 203.418 107.088 205.38V205.763C109.108 205.404 110.477 203.369 111.696 202.117C114.691 199.038 121.018 191.337 120.921 185.598C120.62 185.302 120.343 184.812 120.149 184.447C118.955 184.161 117.411 184.03 115.726 184.059ZM116.498 192.134C115.619 193.581 115.133 195.008 114.187 196.363C113.322 197.601 111.953 198.558 111.113 199.825H110.914C111.162 198.359 111.953 197.174 112.463 195.979C113.604 193.255 114.386 190.551 115.721 188.108C116.459 188.123 117.022 188.181 117.449 188.487C117.911 188.74 117.585 188.4 117.833 188.876C118.226 189.832 116.964 191.357 116.498 192.134ZM457.503 133.153C455.493 131.133 453.963 128.599 451.929 126.618V126.428C450.934 126.783 447.559 129.769 446.937 130.658C445.723 130.196 445.039 128.885 444.053 128.162C440.771 125.695 437.683 122.495 431.958 122.592C431.235 123.151 430.176 123.165 429.263 123.549C426.685 124.666 424.005 126.89 422.927 129.507C421.718 132.43 422.946 136.746 423.878 138.922C425.782 143.311 428.889 147.016 431.565 150.643C433.784 153.629 436.284 156.722 440.402 157.752C445.044 158.907 447.306 153.459 449.05 151.4C450.846 149.288 454.789 148.783 456.158 146.025C456.663 145.02 456.323 143.039 455.969 142.185C455.095 140.116 450.788 134.309 449.05 133.158C449.176 131.998 449.705 131.959 450.195 131.235C451.4 131.823 451.841 133.522 452.696 134.503C453.793 135.756 455.347 136.426 456.537 137.572C458.372 137.587 459.474 137.115 460.373 136.227H460.572C460.106 134.94 458.416 134.052 457.503 133.153ZM446.554 153.901C443.16 154.702 441.475 152.478 439.639 150.633C435.095 146.093 432.016 140.471 428.491 134.882C427.282 132.959 424.194 129.376 425.801 126.618H426.563C427.535 128.07 429.181 129.08 430.22 130.463C433.089 134.27 436.6 137.596 439.44 141.413C441.188 143.768 443.126 145.977 444.815 148.327C445.68 149.536 446.35 151.07 447.515 151.973C447.306 152.847 446.933 153.255 446.554 153.901ZM449.428 140.262C450.982 142.393 453.094 143.602 453.075 147.366C452.482 147.929 452.312 148.453 451.346 148.706C451.152 148.861 451.293 148.778 450.963 148.905C448.248 144.379 444.33 140.597 441.174 136.411C440.144 135.042 438.547 133.93 437.522 132.571C435.765 130.24 433.672 128.375 431.754 126.234C431.201 125.598 430.938 124.986 430.229 124.501C430.395 124.083 430.385 124.224 430.608 123.928C433.861 123.957 435.43 126.152 437.328 127.584C442.028 131.104 445.971 135.479 449.428 140.262Z" fill="black"/>
<circle cx="299" cy="301" r="270" stroke="black" stroke-width="12"/>
<path d="M515.5 538L564 477.5" stroke="black" stroke-width="10"/>
</svg>
