<svg width="768" height="703" viewBox="0 0 768 703" fill="none" xmlns="http://www.w3.org/2000/svg">
<path d="M150.5 54.5C166.167 45.3333 200.7 26.7 213.5 25.5" stroke="#F59F0B"/>
<path d="M549.53 469.374L542.899 464.899L538.729 471.078L544.599 475.673L549.53 469.374ZM500.011 525.805L505.096 519.629L499.826 515.29L494.712 519.813L500.011 525.805ZM520.362 542.561L526.764 547.359L531.347 541.243L525.447 536.385L520.362 542.561ZM515.03 549.676L508.628 544.879L503.938 551.137L510.089 555.968L515.03 549.676ZM679.372 678.742L684.755 672.824L684.541 672.629L684.313 672.45L679.372 678.742ZM743.222 613.493L748.562 607.535L748.403 607.393L748.237 607.26L743.222 613.493ZM573.545 476.958L578.561 470.725L572.572 465.906L567.518 471.697L573.545 476.958ZM567.729 483.622L562.797 489.921L568.769 494.597L573.756 488.883L567.729 483.622ZM592 304C592 363.607 573.901 418.961 542.899 464.899L556.162 473.849C588.891 425.351 608 366.895 608 304H592ZM304 16C463.058 16 592 144.942 592 304H608C608 136.105 471.895 0 304 0V16ZM16 304C16 144.942 144.942 16 304 16V0C136.105 0 0 136.105 0 304H16ZM304 592C144.942 592 16 463.058 16 304H0C0 471.895 136.105 608 304 608V592ZM494.712 519.813C443.911 564.74 377.148 592 304 592V608C381.201 608 451.698 579.212 505.311 531.798L494.712 519.813ZM525.447 536.385L505.096 519.629L494.926 531.981L515.277 548.737L525.447 536.385ZM521.432 554.474L526.764 547.359L513.96 537.764L508.628 544.879L521.432 554.474ZM684.313 672.45L519.971 543.385L510.089 555.968L674.431 685.033L684.313 672.45ZM737.882 619.45C756.381 636.031 754.082 659.055 741.436 673.527C735.136 680.736 726.501 685.461 716.974 686.089C707.569 686.71 696.375 683.394 684.755 672.824L673.989 684.66C688.309 697.686 703.636 703.004 718.027 702.055C732.298 701.113 744.737 694.065 753.484 684.055C770.932 664.088 774.618 630.891 748.562 607.535L737.882 619.45ZM568.53 483.19L738.207 619.725L748.237 607.26L578.561 470.725L568.53 483.19ZM573.756 488.883L579.572 482.218L567.518 471.697L561.701 478.362L573.756 488.883ZM544.599 475.673L562.797 489.921L572.66 477.323L554.462 463.075L544.599 475.673Z" fill="#F59F0B"/>
<path d="M431.711 99L430.872 99.9583C430.845 99.9752 430.847 99.9819 430.733 100.038C430.377 100.213 429.56 100.544 428.047 100.947C424.984 101.766 422.373 102.075 419.891 102.404C418.401 102.6 417.348 102.957 416.527 103.622C416.116 103.956 415.789 104.387 415.589 104.82C415.389 105.253 415.329 105.958 415.329 105.958V106.866L421.878 114.543C422.302 115.677 422.721 116.672 422.876 117.298C423.019 117.873 422.933 118.219 422.776 118.686C422.514 118.883 422.16 119.179 422.088 119.215C417.09 119.637 416.563 119.228 414.391 118.147C413.129 117.502 411.698 115.485 411.037 114.034C409.905 111.547 407.872 109.971 407.872 109.971L407.703 109.831L407.513 109.721C403.535 107.451 397.935 107.717 392.24 108.713C386.472 109.706 379.269 112.117 377.565 112.776H377.555C376.641 113.132 369.775 115.415 366.624 116.23C363.17 117.118 360.556 118.005 358.638 118.506C356.222 119.143 341.91 123.418 336.446 125.045C331.16 126.613 327.957 127.176 327.871 127.191C323.99 127.579 321.526 127.423 320.155 127.201C319.463 127.089 319.038 126.956 318.827 126.882C318.616 126.807 318.767 126.882 318.767 126.882L318.687 126.832C318.666 126.717 318.657 126.612 318.657 126.612L318.667 126.502L318.707 120.742V120.662C318.707 120.662 318.699 117.352 315.712 115.731C313.542 114.543 310.975 114.213 306.928 114.024H306.918C302.742 113.839 298.525 114.204 296.136 114.723C293.963 115.201 289.607 116.395 286.283 120.113C284.643 121.946 283.859 123.72 283.528 125.095C283.198 126.469 283.359 127.68 283.359 127.68L283.328 127.391C283.328 127.391 283.51 130.712 283.768 133.27V133.28C283.871 134.288 284.468 134.751 284.896 135.447C284.571 135.608 284.766 135.54 284.317 135.746C282.142 136.745 278.562 138.174 273.076 139.779C262.539 142.872 255.657 143.453 255.657 143.453L253.251 143.662L253.44 146.058C253.576 147.814 254.222 151.626 254.848 155.312C255.474 158.998 256.066 162.34 256.066 162.34C256.072 162.376 256.334 163.984 256.655 165.834C256.979 167.704 257.318 169.649 257.603 170.745C258.05 172.483 259.067 175.659 259.121 175.826C259.121 175.826 259.836 178.706 262.664 180.039C265.275 181.265 269.042 181.494 273.036 179.929H273.047C276.824 178.442 278.395 176.348 279.805 174.708C281.215 173.078 281.654 172.592 281.731 172.502C281.748 172.487 283.916 170.516 286.433 171.364C289.056 172.263 291.332 176.078 291.355 176.116L291.504 176.425L291.594 176.575C291.594 176.575 292.811 179.175 293.012 180.997C292.746 181.396 292.154 182.135 290.736 183.224C288.011 185.3 286.446 185.052 284.287 184.871C282.134 184.681 281.23 184.379 279.715 184.691L280.074 184.651L276.471 184.841L276.361 184.851C272.13 185.454 269.557 187.155 269.493 187.197C267.741 188.26 266.7 190.02 266.099 191.929C265.49 193.86 265.24 196.045 265.2 198.427C265.121 203.192 265.876 208.768 266.887 214.17C268.656 223.62 270.754 230.357 271.38 232.438C253.732 234.807 233.742 238.723 222.485 241.642H222.474C216.42 243.216 213.042 244.897 211.044 246.384C210.046 247.127 209.398 247.826 208.978 248.44C208.761 248.757 208.752 248.898 208.638 249.189C207.107 251.686 207.115 254.296 207.9 255.927C208.697 257.584 210.056 258.443 210.056 258.443L210.316 258.602L210.596 258.692C210.596 258.692 213.294 259.537 213.94 262.655V262.665C214.467 265.198 211.065 268.126 211.065 268.126L211.005 268.166L210.945 268.216C210.945 268.216 205.786 272.512 198.028 273.836C193.833 274.555 191.091 274.92 189.073 274.715C187.056 274.509 185.588 273.874 183.293 272.059C181.795 270.866 181.736 269.9 182.115 268.485C182.495 267.067 183.74 265.445 184.721 264.742C188.056 262.344 189.694 259.965 190.361 258.263V258.253L190.371 258.243C191.025 256.528 190.601 254.929 190.601 254.929L190.421 254.24L186.937 251.055L186.777 250.936C183.572 248.805 179.094 248.139 173.959 247.851C168.825 247.563 163.064 247.808 157.608 248.25C148.074 249.025 141.642 250.176 139.629 250.516C139.284 248.436 138.302 243.063 138.501 238.238C138.619 235.363 138.954 233.391 139.24 232.178C139.526 230.966 139.689 230.671 139.689 230.671L139.749 230.551L140.078 229.593L140.089 229.563C140.089 229.563 142.351 222.629 145.369 218.272L144.89 217.973L145.389 218.262C145.389 218.262 147.122 215.703 149.522 215.467C152.829 215.148 152.99 216.122 155.672 216.436C159.067 216.843 161.239 216.651 162.739 216.216C163.49 215.998 164.063 215.709 164.506 215.397C164.907 215.116 165.25 214.683 165.325 214.589C170.156 210.724 172.301 205.744 172.313 205.714C173.957 201.669 174.02 197.662 173.51 194.464C173.256 192.865 172.868 191.471 172.422 190.321C171.977 189.171 171.575 188.321 170.845 187.516V187.506H170.835C168.918 185.416 165.693 183.113 165.554 183.013H165.544C165.538 183.008 164.557 182.203 163.158 181.846C161.952 181.537 160.189 181.803 158.416 182.474C158.714 180.338 158.868 178.201 159.914 175.666C161.465 171.906 164.92 165.171 164.995 165.025L165.035 164.935L165.045 164.915C165.124 164.781 170.098 156.365 172.282 150.63C174.47 144.895 174.459 140.338 174.459 140.338V139.51L173.93 138.851C173.93 138.851 172.969 137.622 171.933 136.295C171.193 135.348 170.706 134.699 170.246 134.099C174.147 134.906 177.314 133.231 177.314 133.231L177.413 133.171L177.523 133.081C183.192 128.797 186.298 121.541 186.298 121.541L186.268 121.621L191.659 110.7L186.398 102.175L185.36 101.975C185.36 101.975 185.055 101.92 184.92 101.915C184.786 101.911 184.666 101.915 184.531 101.925C184.261 101.946 183.955 101.998 183.543 102.085C182.719 102.259 181.455 102.591 179.34 103.313C176.261 104.358 175.273 104.972 174.159 105.539L172.652 103.293L172.193 102.824L172.182 102.814C172.17 102.802 171.914 102.57 171.753 102.464C171.589 102.355 171.417 102.254 171.224 102.175C170.838 102.015 170.4 101.923 169.896 101.875C168.889 101.779 167.582 101.875 165.564 102.334C161.14 103.339 156.089 106.128 153.375 109.741C152.248 111.244 151.57 112.425 151.169 113.295C151.046 113.561 151.08 113.566 150.999 113.794C142.938 120.711 136.404 123.625 136.285 123.677C133.944 124.107 132.362 125.264 132.362 125.264L132.322 125.294L132.282 125.314C125.051 131.417 116.699 141.326 116.699 141.326L117.168 140.907C117.168 140.907 116.735 141.251 116.52 141.516C116.305 141.781 116.093 142.114 115.871 142.544C115.413 143.431 115.306 144.033 115.102 144.86C115 145.274 114.908 145.686 114.843 146.078C114.778 146.463 114.627 146.615 114.792 147.546C114.816 147.683 114.881 147.582 114.912 147.705C110.939 152.892 108.891 155.122 108.593 155.392C108.56 155.396 108.294 155.262 108.294 155.262L108.104 155.282L107.914 155.332C106.75 155.671 106.019 156.183 105.189 156.67C104.36 157.157 103.672 157.598 103.672 157.598L103.272 157.858L102.993 158.247C100.739 161.431 95.9648 169.453 95.4261 170.356C95.1721 170.483 94.9403 170.6 94.7473 170.725L94.4279 170.606L89.5364 173.341L89.207 173.88C74.051 198.803 63.1455 226.601 57.4722 256.256L57.3624 256.806L57.7018 258.103L56.7135 260.329L56.6736 260.619C54.2561 274.575 53 288.922 53 303.554C53 313.094 53.5329 322.498 54.5773 331.775L54.5872 331.795L55.1862 336.706L55.1962 336.717C59.6728 370.539 70.923 402.24 87.5299 430.393L89.0273 432.919V432.939C132.837 505.236 212.285 553.549 302.985 553.549C433.759 553.549 541.138 453.087 552.081 325.126L552.131 324.547L551.263 322.431L552.421 320.485L552.461 319.906C552.809 314.501 553 309.037 553 303.534C553 281.141 550.056 259.411 544.525 238.757L544.395 238.278L542.907 236.391L543.367 234.554L543.187 233.935C534.8 204.968 520.785 177.463 503.256 153.875L502.867 153.345L498.016 151.299L495.959 152.766L494.552 153.715C494.196 153.27 493.99 153.07 493.653 152.637C491.904 150.386 490.429 148.394 490.429 148.394L490.359 148.294L490.279 148.204C485.24 142.66 482.028 138.09 481.275 137.034L481.454 136.744L479.967 132.182L479.867 132.013C478.444 129.254 475.84 126.608 473.528 124.406C471.216 122.204 469.186 120.563 469.186 120.563L469.116 120.503L469.046 120.443C469.046 120.443 466.279 118.438 463.785 117.458C461.373 116.51 458.993 116.45 458.993 116.45L457.795 116.4L457.546 116.699C451.381 112.317 436.832 100.747 436.832 100.747L436.473 100.458L431.711 99ZM432.819 104.411L434.177 104.82C434.734 105.27 450.85 118.3 456.578 122.07L458.394 123.248L459.832 121.521C460.474 121.595 461.075 121.6 462.018 121.97C463.311 122.478 466.122 124.337 466.211 124.396C466.288 124.459 468.068 125.905 470.184 127.92C472.322 129.956 474.674 132.599 475.505 134.169L476.134 136.095L475.385 137.273L476.313 138.591C476.313 138.591 480.804 144.952 486.515 151.279C486.515 151.279 488.027 153.325 489.82 155.631C491.376 157.634 492.992 159.627 494.382 161.052C493.024 161.609 491.1 162.314 488.482 163.019C483.078 164.475 477.861 166.902 477.861 166.902C477.861 166.902 473.549 168.308 475.185 171.823C476.826 175.348 479.258 177.044 479.258 177.044C479.258 177.044 482.706 180.394 482.832 182.934C482.944 185.488 481.867 186.655 479.128 188.165C476.404 189.685 473.907 189.982 473.907 189.982C473.907 189.982 467.404 191.149 464.184 188.105C460.965 185.065 460.371 180.029 460.371 180.029C460.371 180.029 460.122 175.77 454.781 173.95C449.44 172.129 442.881 176.016 442.881 176.016C442.881 176.016 437.72 178.746 432.19 182.325C426.655 185.908 416.214 190.296 409.659 192.597L408.421 193.555L409.649 192.607C406.935 190.102 392.822 173.381 390.073 169.467C387.325 165.544 386.915 164.649 386.43 163.338C385.944 162.027 387.256 159.077 388.436 157.698C389.597 156.324 390.966 156.048 393.787 156.67C396.608 157.286 398.459 158.526 402.931 157.079C407.408 155.642 407.622 152.271 407.962 148.833C408.312 145.396 404.176 138.109 400.875 134.598C397.573 131.092 392.903 130.536 389.664 130.745C386.435 130.954 384.591 133.294 382.726 134.329C380.871 135.358 377.356 136.391 375.778 135.706C374.2 135.012 371.79 134.326 369.11 129.577C367.261 126.319 365.862 123.627 364.897 121.77C365.918 121.47 366.636 121.242 367.842 120.932C371.411 120.009 377.643 117.952 379.322 117.298V117.308C380.229 116.958 387.98 114.368 393.058 113.495H393.068C398.128 112.61 403.144 112.973 404.938 113.924C405.184 114.166 406.221 115.154 406.625 116.04C407.545 118.062 409.148 120.943 412.205 122.489H412.215L412.225 122.499C414.423 123.593 416.955 124.504 422.508 124.046C422.689 124.046 422.82 124.051 423.007 124.017C423.321 123.958 423.66 123.863 424.025 123.697C424.754 123.365 425.586 122.804 426.61 121.84L426.96 121.511L427.159 121.092C427.956 119.37 427.94 117.548 427.588 116.13C427.236 114.712 426.685 113.6 426.29 112.487L426.14 112.067L421.818 106.986C424.012 106.696 426.363 106.423 429.295 105.639C431.003 105.184 432.074 104.773 432.819 104.411ZM169.118 106.737L172.492 111.758L174.449 110.67C174.449 110.67 176.239 109.786 178.681 108.803C177.289 111.879 175.013 116.569 171.773 120.592C171.773 120.592 169.957 123.279 168.549 122.619C167.146 121.968 165.501 121.913 164.136 122.2C162.772 122.491 158.519 123.901 154.673 129.068C150.837 134.234 150.393 138.114 152.457 139.27C154.437 140.379 157.26 139.015 159.095 137.483L163.378 136.744C163.365 136.816 163.371 136.943 163.358 136.994C163.232 137.45 162.604 143.624 155.462 156.001C153.67 159.108 151.358 163.715 150.271 165.934L150.281 165.993C150.279 165.99 150.231 165.924 150.231 165.924C138.636 168.07 129.998 170.762 127.051 171.883C124.094 173 124.036 172.282 124.036 172.282C123.012 171.078 126.153 167.311 126.153 167.311C126.153 167.311 129.332 162.972 130.585 158.986C131.528 155.999 128.614 155.564 127.101 155.532C126.597 155.521 126.252 155.552 126.252 155.552C122.572 156.139 119.923 157.89 116.879 161.561C114.519 164.406 113.085 168.302 112.546 170.366C112.202 171.662 111.608 172.861 111.608 172.861C111.608 172.861 111.165 173.666 109.422 174.429C107.402 175.312 103.462 176.355 103.462 176.355C103.462 176.355 100.839 176.573 98.94 175.627C98.3272 175.325 97.2035 175.401 96.2247 175.547L96.4244 175.397C96.4244 175.397 96.6679 175.228 96.9734 175.028C97.2649 174.836 97.646 174.637 97.5824 174.658L98.6904 174.329L99.1796 173.52C99.1796 173.52 104.616 164.475 106.726 161.411C106.963 161.262 107.149 161.143 107.645 160.852C107.935 160.682 107.995 160.663 108.294 160.513L109.082 161.631L111.109 159.864C111.109 159.864 113.835 157.425 119.664 149.582L119.684 149.542L121.411 147.466L119.744 146.357C119.769 146.242 119.783 146.151 119.814 146.028C119.972 145.386 120.325 144.495 120.183 144.77C120.248 144.645 120.244 144.654 120.253 144.64L120.403 144.461C120.403 144.461 128.723 134.707 135.357 129.088C135.37 129.077 136.06 128.525 137.423 128.369L137.762 128.339L138.082 128.199C138.082 128.199 145.622 125.034 154.583 117.178L155.232 116.619L155.382 115.781C155.382 115.781 155.331 115.844 155.571 115.322C155.812 114.799 156.302 113.907 157.248 112.646C158.691 110.725 163.627 107.751 166.642 107.066C168.139 106.725 168.775 106.725 169.118 106.737ZM306.698 118.875C310.536 119.055 312.372 119.443 313.377 119.993H313.387C313.581 120.099 313.846 120.929 313.856 120.962L313.816 126.372L313.826 126.173C313.826 126.173 313.737 127.019 313.976 128.01C314.214 128.992 314.964 130.47 316.542 131.164C316.706 131.249 316.863 131.338 317.221 131.464C317.726 131.641 318.428 131.829 319.377 131.983C321.274 132.29 324.145 132.447 328.421 132.013H328.511L328.601 131.993C328.601 131.993 332.247 131.351 337.825 129.696C343.287 128.07 358.155 123.659 359.866 123.208C359.988 123.176 360.182 123.111 360.306 123.078C360.938 124.382 361.797 126.112 363.949 129.786C368.344 137.332 375.976 140.243 379.273 139.899C382.157 139.598 387.113 138.242 389.046 136.115C390.964 133.984 392.899 134.259 392.899 134.259C397.089 133.991 398.116 137.492 401.564 142.444C405.002 147.397 402.882 151.249 402.882 151.249C400.6 154.274 398.044 153.656 395.704 153.176C393.946 152.807 393.765 152.601 391.731 152.207C385.399 151.377 383.276 156.061 383.276 156.061C378.736 163.077 384.094 168.16 384.094 168.16C384.094 168.16 396.091 184.228 405.228 194.134C398.32 196.508 389.355 199.515 389.355 199.515C389.355 199.515 377.162 204.018 369.14 205.115C361.129 206.203 359.357 205.045 358.269 203.957C357.167 202.87 358.449 199.046 358.449 199.046C358.449 199.046 361.729 192.36 360.146 188.893C358.568 185.427 348.237 184.521 348.067 184.521C347.873 184.521 336.812 183.241 326.455 189.053C317.258 194.21 316.053 197.019 316.053 197.019C316.053 197.019 313.125 201.573 316.602 206.084C320.52 211.187 325.726 211.654 325.726 211.654C325.726 211.654 330.68 212.039 331.835 213.501C332.996 214.952 332.205 216.535 332.205 216.535C332.205 216.535 330.57 221.025 321.393 222.904C321.393 222.904 305.952 227.437 277.17 231.529C271.431 210.791 271.061 197.728 271.061 197.728C270.597 193.422 271.253 191.788 273.367 190.62C274.177 190.288 275.388 189.9 277.021 189.662L280.515 189.492L280.574 189.482C281.168 189.519 281.781 189.545 282.441 189.592C282.984 189.625 282.852 189.623 283.859 189.712H283.869C285.224 189.826 287.178 189.821 289.339 189.213C290.473 188.942 291.494 188.591 292.324 188.125C294.378 186.979 300.01 183.901 299.622 177.623C299.243 171.349 294.241 163.91 290.148 161.351C289.63 161.027 289.092 160.767 288.541 160.553C288.002 160.342 287.451 160.178 286.894 160.063C286.887 160.062 286.88 160.064 286.874 160.063C284.627 159.605 282.296 159.894 280.335 160.612C279.346 160.975 278.449 161.434 277.71 161.98C274.767 164.165 273.602 166.982 271.81 167.88C270.471 168.544 268.711 169.861 266.779 170.216C266.132 170.331 265.465 170.337 264.792 170.176C262.102 169.535 261.97 163.517 260.819 156.729C260.112 152.557 259.593 149.553 259.262 147.665C261.23 147.462 265.641 147.025 274.445 144.441C280.127 142.778 283.934 141.27 286.355 140.158C288.776 139.046 289.948 138.221 289.948 138.221L293.701 135.536L289.359 133.969C289.359 133.969 288.718 133.938 288.6 132.791C288.362 130.426 288.171 127.121 288.171 127.121L288.16 126.981L288.141 126.831C288.141 126.831 288.093 126.837 288.24 126.223C288.388 125.608 288.77 124.618 289.907 123.348C292.135 120.855 295.375 119.871 297.175 119.474C298.767 119.129 302.999 118.711 306.698 118.875ZM103.981 255.428C90.8129 255.36 97.8119 245.096 97.8119 245.096C97.8119 245.096 100.912 239.667 101.456 236.531C101.456 236.531 102.54 228.051 94.5575 228.604C86.5702 229.148 85.0042 236.111 85.0042 236.111C85.0042 236.111 84.4632 240 84.5749 242.87C84.6769 245.754 84.5643 251.846 80.9712 255.308C77.3926 258.77 73.5441 257.704 73.5441 257.704C73.5441 257.704 67.0794 254.88 65.7976 254.22C64.7939 253.7 63.8898 253.647 63.0124 253.781C68.505 227.148 78.3099 202.102 91.6825 179.4L92.9503 178.182L91.5328 180.289C92.1834 180.177 92.7207 180.019 92.7207 180.019C92.7207 180.019 94.6836 179.695 98.1213 180.598C102.574 181.783 108.154 178.192 108.154 178.192C108.154 178.192 112.391 175.65 114.343 171.484L116.09 166.602C116.09 166.602 117.508 161.884 121.461 160.383C121.461 160.383 122.998 159.554 125.494 159.525C127.985 159.501 127.4 161.242 127.4 161.242C127.4 161.242 127.129 162.377 124.555 165.674C121.987 168.961 121.291 171.484 121.291 171.484C121.291 171.484 119.748 174.985 122.229 176.126C122.229 176.126 123.397 176.813 126.791 175.687C130.19 174.555 141.454 171.589 148.334 170.535L148.384 170.525L148.374 170.545C147.082 174.226 145.437 179.984 146.088 183.213C147.078 188.122 151.708 188.125 151.708 188.125C151.708 188.125 152.656 188.129 154.054 187.865L154.543 188.025C154.543 188.025 155.012 188.153 155.332 188.175C155.651 188.196 156.019 188.173 156.45 188.105C157.311 187.97 158.398 187.636 159.834 186.907C160.09 186.777 160.246 186.774 160.453 186.707C162.109 188.269 162.569 192.8 162.569 193.745C162.569 195.027 162.536 202.128 157.618 205.604C157.618 205.604 155.623 207.122 152.826 207.122C150.015 207.122 148.194 206.303 148.194 206.303C148.194 206.303 143.42 204.979 140.478 206.702C137.545 208.441 134.036 212.039 131.264 217.244C128.501 222.449 126.196 231.736 126.322 238.587C126.419 243.981 127.151 249.086 127.69 252.568C127.69 252.568 116.533 255.501 103.981 255.428ZM503.147 162.19C518.301 183.761 530.492 208.325 538.106 234.105C537.913 234.12 537.739 234.105 537.537 234.145C535.677 234.524 535.5 235.905 532.625 236.371C529.746 236.837 526.42 237.851 523.172 242.77C519.918 247.679 523.172 253.801 523.172 253.801C523.172 253.801 524.917 256.672 525.757 258.153C526.592 259.639 530.943 268.909 525.947 275.673C525.947 275.673 523.269 278.792 518.54 279.845C514.359 280.768 515.423 275.884 514.996 273.267C514.996 273.267 514.371 262.193 508.986 255.847C504.252 250.283 495.65 260.162 491.367 263.454C487.377 266.507 475.703 278.55 458.933 287.352L458.315 279.286C458.315 279.286 457.91 274.96 455.569 268.215C450.816 254.494 446.136 248.2 446.136 248.2C446.136 248.2 443.264 241.801 436.582 241.801C430.12 241.801 429.634 247.711 429.634 247.711C429.634 247.711 428.108 252.399 425.631 253.85C423.218 255.254 416.072 259.42 412.285 255.288C407.711 250.306 405.208 244.481 404.718 238.916C404.237 233.342 406.515 231.08 406.515 231.08C406.515 231.08 406.99 229.633 414.351 229.633C422.601 229.633 424.124 227.097 424.124 227.097C424.124 227.097 425.698 225.649 425.572 222.415C425.431 219.186 424.182 212.245 421.778 207.841C420.195 204.952 416.637 200.365 413.602 196.85L408.911 196.001V195.991L409.41 197.298L413.602 196.819C416.472 195.751 420.43 194.205 424.693 192.277C433.438 188.344 437.603 185.056 441.604 182.774C441.604 182.774 450.419 177.337 455.619 177.483C455.619 177.483 456.835 177.443 456.947 179.04C457.059 180.638 457.446 182.992 457.995 184.361C458.539 185.725 461.57 193.206 471.252 194.304C480.934 195.411 485.068 188.883 485.068 188.883C485.068 188.883 488.377 183.787 482.662 177.732C482.662 177.732 478.006 172.735 477.861 172.352C477.861 172.352 477.353 171.603 478.669 171.224C479.912 170.863 492.475 167.33 498.365 164.835L499.628 164.237C499.628 164.237 500.531 163.9 500.861 163.777C501.688 163.363 502.584 162.791 503.147 162.19ZM347.697 188.814C351.1 188.778 353.477 189.063 353.477 189.063C353.477 189.063 357.456 189.498 356.791 192.188C356.111 194.883 353.864 199.385 353.776 201.701C353.674 204.003 353.822 206.68 358.329 208.559C362.844 210.434 369.329 209.857 369.329 209.857C369.329 209.857 376.051 209.518 387.049 205.964C398.037 202.414 409.35 198.327 409.35 198.327C414.568 195.357 408.725 196.551 408.591 196.171L409.35 198.327L409.36 198.377C419.003 207.831 420.76 219.341 420.76 219.341C420.76 219.341 422.058 223.877 419.383 224.222C417.052 224.518 411.606 224.572 411.606 224.572C411.606 224.572 409.541 224.776 406.176 225.46C402.816 226.145 400.677 229.722 400.196 232.198C399.725 234.675 398.275 241.476 403.99 252.144C409.69 262.806 416.907 262.326 416.907 262.326C423.171 261.777 425.1 260.67 428.746 258.193C432.286 255.78 433.903 250.428 434.107 249.398C434.321 248.364 434.799 247.332 435.615 247.332C436.45 247.332 436.167 247.334 438.09 247.063C440.023 246.791 441.474 248.156 443.052 251.395C444.081 253.468 449.58 262.536 451.167 267.906C452.75 273.262 454.136 278.623 454.262 283.439C454.325 285.333 454.58 287.501 454.881 289.424C446.831 293.439 428.563 302.303 416.658 306.469C416.658 306.469 407.545 310.165 403.84 310.262C403.84 310.262 403.019 310.292 403.67 309.394C404.316 308.496 405.019 307.835 406.136 305.82C407.257 303.79 409.28 299.23 409.28 294.52C409.28 289.815 403.843 285.204 396.263 286.025C388.688 286.835 381.449 288.944 372.724 292.304C364.008 295.664 356.489 302.791 355.484 308.695C354.469 314.599 360.855 318.009 360.855 318.009C360.855 318.009 368.063 321.658 368.981 323.629C369.893 325.6 369.22 327.432 369.22 327.432C369.22 327.432 368.587 329.4 365.417 331.216C362.261 333.046 353.657 337.475 353.657 337.475C353.657 337.475 342.95 343.38 326.664 344.812C326.664 344.812 311.816 346.072 303.275 346.499C303.171 346.508 303.064 346.515 302.955 346.519C303.141 341.061 302.903 336.2 302.336 331.915V331.904C301.959 329.05 301.431 326.451 300.789 324.098V324.088C300.469 322.913 300.117 321.806 299.741 320.754V320.743C299.365 319.691 298.957 318.701 298.533 317.769V317.758C298.107 316.824 297.663 315.949 297.195 315.133C293.287 308.267 286.905 304.638 283.759 303.104C282.973 302.719 281.925 302.389 280.724 302.136C279.523 301.882 278.167 301.706 276.751 301.636C275.01 301.55 273.227 301.696 271.5 301.976C270.417 302.152 269.333 302.334 268.376 302.685L268.365 302.695C267.132 303.148 266.132 303.572 265.311 304.013L265.3 304.023C264.482 304.463 263.836 304.91 263.284 305.4C262.949 305.697 262.695 306.055 262.415 306.389C262.231 306.609 262.009 306.796 261.837 307.037C261.833 307.043 261.831 307.051 261.826 307.057C261.398 307.661 260.991 308.334 260.539 309.114C260.535 309.121 260.533 309.127 260.528 309.134C259.619 310.696 258.604 311.429 257.823 311.769C257.038 312.111 256.485 312.059 256.485 312.059C256.485 312.059 249.559 312.272 247.311 301.707C245.748 294.304 246.184 289.402 247.012 286.353C247.218 285.596 247.442 284.956 247.671 284.417L247.681 284.406C247.909 283.87 248.137 283.438 248.34 283.099L248.35 283.089C248.753 282.416 249.042 282.127 249.049 282.12L249.059 282.11C249.059 282.11 249.259 281.878 249.588 281.571C250.154 281.044 251.324 280.289 253.272 279.694C253.998 279.473 254.728 279.247 255.697 279.115C260.81 278.416 264.098 279.671 268.016 280.643C271.638 281.55 274.479 281.18 278.757 279.245C279.101 279.089 279.391 279.003 279.756 278.826C280.979 278.23 282.03 277.541 282.9 276.729C283.335 276.325 283.733 275.889 284.078 275.422L284.088 275.411C284.777 274.477 285.272 273.408 285.596 272.187C286.084 270.345 286.164 268.157 285.795 265.529C284.844 258.746 284.584 257.152 278.588 236.569C291.719 234.76 300.668 233.199 316.562 229.511C316.562 229.511 331.322 226.895 334.401 221.495C336.188 218.339 339.425 214.022 334.191 209.676C334.191 209.676 333.572 208.902 330.338 208.169C327.104 207.435 324.626 206.941 321.902 204.994C319.174 203.037 319.227 200.771 319.227 200.771C319.227 200.771 318.996 198.61 323.42 196.119C323.42 196.119 327.552 193.097 335.758 190.499C339.866 189.205 344.295 188.848 347.698 188.812L347.697 188.814ZM129.088 277.659C129 282.083 128.343 291.447 123.677 293.641C123.677 293.641 122.096 294.469 119.454 292.484C116.813 290.498 113.962 290.419 112.806 290.377C112.454 290.364 111.733 290.437 110.849 290.697C108.836 291.287 105.968 292.86 104.59 296.736C102.614 302.297 102.77 309.792 103.183 314.206C103.6 318.624 107.611 325.636 112.447 325.636C112.447 325.636 114.626 326.315 117.398 323.46C120.156 320.614 121.775 320.366 123.008 320.405C124.246 320.448 126.641 321.718 128.209 334.231C129.7 346.098 130.847 356.155 130.735 366.954C131.901 368.373 132.73 370.079 133.765 371.756C137.707 371.319 144.046 370.626 151.349 369.839C163.624 368.523 171.872 367.196 179.5 368.342C187.138 369.483 189.592 375.45 189.592 375.45C189.592 375.45 190.117 376.968 188.365 378.085C186.67 379.173 184.729 380.747 183.763 382.407C182.796 384.087 181.769 387.595 184.541 392.29C187.319 396.966 194.935 400.015 201.422 399.238C207.904 398.476 217.62 395.982 223.374 394.486C229.623 392.85 235.143 389.772 235.862 384.873C236.576 379.974 228.415 373.733 228.415 373.733C228.415 373.733 224.468 370.764 223.993 370.089C223.507 369.414 224.472 369.121 224.472 369.121C224.472 369.121 229.079 368.012 231.06 367.114C233.022 366.191 238.451 363.982 247.342 361.204C256.232 358.417 274.575 355.145 274.575 355.145C274.575 355.145 284.696 353.529 297.325 352.509L300.141 351.836L297.365 352.499C297.331 353.694 297.284 354.911 297.235 356.183C296.541 375.003 300.739 384.663 300.739 384.663C303.123 389.844 305.699 393.545 309.204 395.924C312.695 398.298 317.468 396.681 319.007 395.924C320.542 395.147 324.804 393.194 328.441 390.883C332.078 388.571 331.948 387.595 336.347 383.535C340.751 379.491 346.43 380.601 346.43 380.601C346.43 380.601 351.816 380.74 354.895 386.969C357.978 393.199 357.348 402.078 356.562 405.298C355.795 408.517 354.396 410.623 351.391 410.059C348.38 409.501 343.414 408.999 341.598 408.931C339.777 408.863 334.654 408.691 329.988 409.91C325.434 411.099 319.272 414.389 313.407 423.915C308.848 431.291 311.09 438.54 312.139 441.405C312.96 443.648 315.219 446.763 317.2 450.609L320.874 451.837L320.479 450.407L317.2 450.629C310.971 451.382 300.433 452.88 290.038 455.391C277.306 458.488 265.159 460.972 256.516 466.541C256.516 466.541 250.047 470.836 253.771 475.017C257.485 479.202 261.368 480.996 261.368 480.996C261.368 480.996 263.662 482.002 263.624 482.623C263.58 483.429 263.546 484.123 261.837 485.109C261.837 485.109 255.069 489.073 241.891 489.292C228.713 489.505 222.906 489.384 219.041 485.908C215.846 483.038 219.84 476.953 219.84 476.953C219.84 476.953 221.442 473.979 219.84 469.895C218.237 465.826 209.069 465.753 209.069 465.753L196.371 465.104C181.343 464.71 161.499 463.037 152.667 461.939C152.667 461.939 152.609 461.924 152.507 461.909V461.899C152.42 461.778 152.34 461.646 152.257 461.53C152.257 461.53 143.16 445.129 144.122 439.109C144.122 439.109 144.445 435.077 150.141 433.339C154.108 432.12 153.592 435.978 165.255 438.08C165.255 438.08 175.306 440.781 177.933 433.478C180.55 426.171 175.177 417.007 175.177 417.007C175.177 417.007 168.141 404.111 159.425 403.62C154.812 403.363 156.071 406.462 149.113 408.113C149.113 408.113 139.827 409.005 136.884 403.441C133.32 396.701 131.831 389.027 131.953 383.905C132.06 379.049 132.216 378.664 132.532 377.246C132.75 376.246 133.464 374.407 133.765 371.756C133.765 371.756 137.443 366.604 130.166 366.615C128.593 366.804 126.712 366.983 124.765 367.134C119.851 367.479 112.733 366.856 103.882 364.239C95.025 361.607 89.4994 356.786 88.708 353.887C88.1544 351.881 88.8777 349.045 88.8777 349.045C88.8777 349.045 90.5306 342.654 89.4866 337.386C88.4184 332.127 86.6639 328.001 81.5704 324.927C76.4818 321.859 73.5943 322.392 73.5943 322.392C73.5943 322.392 69.032 321.689 69.2019 329.409C69.3816 337.135 70.3499 340.37 70.3499 340.37C70.3499 340.37 71.2241 343.091 69.8208 343.445C68.4224 343.795 66.2271 341.698 66.2271 341.698C66.2271 341.698 62.7456 338.499 59.8981 335.269L59.3987 331.236V331.216C58.376 322.125 57.8514 312.906 57.8514 303.554C57.8514 289.276 59.0902 275.289 61.4352 261.677L62.7629 258.702C63.7553 258.917 64.6596 259.261 64.6596 259.261C64.6596 259.261 70.1739 262.235 72.6357 262.745C75.0975 263.255 76.8832 262.43 78.4855 261.328C81.0444 259.555 84.0358 255.879 85.2837 252.393C86.3956 249.256 86.6413 240.773 86.6413 240.773L86.6613 240.843C86.6613 240.843 86.6548 238.799 86.6014 238.328C86.5431 237.852 86.245 235.641 87.5997 234.524C88.9495 233.388 89.8239 232.84 93.15 232.757C96.4518 232.675 97.4525 234.604 97.4525 234.604C97.4525 234.604 98.5805 236.175 98.5805 237.2C98.5805 238.219 98.251 238.857 98.2511 238.857C98.2511 238.857 96.4517 241.893 95.8253 243.389C95.1941 244.879 92.7357 249.814 93.4495 253.96C94.1681 258.097 100.637 260.03 100.637 260.03C100.637 260.03 105.789 261.242 113.135 260.16L128.314 257.714C128.698 263.23 129.151 274.037 129.088 277.659ZM272.997 237.319C273.004 237.345 275.488 247.281 277.379 253.711C279.263 260.149 280.103 266.511 280.384 267.836C280.666 269.167 280.6 271.534 278.847 272.937C277.104 274.341 272.832 275.537 271.929 275.673C271.021 275.813 269.326 275.466 267.087 274.694C264.844 273.927 262.615 273.786 262.615 273.786C262.615 273.786 257.229 272.872 251.494 274.624C245.755 276.368 241.412 282.237 241.063 289.588C240.718 296.935 240.784 300.656 243.658 307.158C246.523 313.664 251.704 317.372 255.617 317.44C259.541 317.508 262.748 315.485 264.991 312.339C267.22 309.183 267.856 308.695 267.856 308.695C270.517 307.229 277.301 306.589 280.734 307.857C284.171 309.109 290.474 313.066 293.951 320.864C296.762 327.166 297.645 334.211 297.494 346.899L300.309 349.075L300.38 347.605L297.464 346.909C289.501 347.569 280.274 348.656 280.274 348.656C280.274 348.656 259.441 351.615 240.364 357.5C224.166 362.492 221.087 365.247 221.087 365.247C221.087 365.247 217.629 368.133 220.508 372.294C220.508 372.294 222.164 374.908 225.51 377.535C228.836 380.167 231.519 382.672 231.14 383.944C230.751 385.226 229.732 385.801 229.732 385.801C229.732 385.801 225.071 389.953 205.974 393.158C205.974 393.158 193.684 395.53 189.902 391.82C186.124 388.101 187.785 385.611 187.785 385.611C187.785 385.611 188.042 384.775 190.8 383.056C190.8 383.056 195.411 380.162 193.935 374.67C192.463 369.159 183.604 362.313 174.029 362.372C174.029 362.372 162.842 362.399 134.229 366.065C134.229 366.065 134.191 366.066 134.099 366.085C134.108 364.835 134.081 363.501 133.999 362.072C133.557 354.012 132.97 341.58 131.883 334.34C130.8 327.101 128.803 315.903 122.209 315.573C122.209 315.573 118.949 315.321 114.273 319.866C109.981 324.022 106.101 316.427 105.888 311.79C105.63 306.347 106.525 300.85 107.874 298.223C109.219 295.596 112.935 295.47 113.634 295.528C114.343 295.591 116.326 296.353 118.696 297.824C121.065 299.305 124.325 299.312 126.252 297.385C128.17 295.472 130.855 293.225 131.952 284.767C133.04 276.313 133.037 267.547 132.012 257.045L131.992 256.995C135.902 256.281 142.38 255.198 149.382 254.509C160.676 253.402 172.622 253.239 177.643 253.87C177.643 253.87 179.993 254.168 179.61 255.008C179.309 255.669 177.563 257.025 177.563 257.025C177.563 257.025 176.909 257.414 174.389 260.259C171.869 263.104 171.131 265.868 171.025 268.325C170.908 270.777 173.533 278.017 182.754 279.955C191.985 281.882 202.55 278.298 202.55 278.298C202.55 278.298 208.523 276.923 214.659 271.45C214.835 271.308 214.908 271.22 215.148 271C215.457 270.713 215.767 270.471 216.076 270.162C216.38 269.858 216.523 269.542 216.775 269.234C216.843 269.144 216.898 269.068 216.965 268.974C222.027 262.392 216.136 255.078 216.136 255.078C216.136 255.078 215.065 253.602 212.991 252.932C212.991 252.932 212.088 252.686 212.612 252.103C212.912 251.77 213.549 250.789 214.868 249.777C215.816 249.18 217.08 248.494 219.261 247.711C219.271 247.708 219.3 247.704 219.311 247.701C224.198 246.441 238.646 241.878 272.987 237.339L272.997 237.319ZM537.607 237.599L538.136 238.168L539.923 240.444C545.272 260.565 548.148 281.72 548.148 303.534C548.148 308.746 547.949 313.916 547.629 319.047L545.862 322.022L546.88 324.528C545.87 326.092 545.056 327.294 543.237 330.298C537.085 340.431 536.119 348.616 536.119 348.616C536.119 348.616 535.534 351.797 535.86 353.647C536.161 355.371 536.774 356.157 536.798 356.662C536.841 357.167 536.44 361.319 534.332 365.277C532.21 369.234 530.369 370.278 530.369 370.278C530.369 370.278 526.696 372.931 526.186 371.047C525.681 369.153 525.832 367.549 526.017 366.355C526.192 365.151 527.424 358.691 527.245 356.292C527.07 353.894 524.919 355.823 524.919 355.823C524.919 355.823 524.413 356.401 523.471 357.6C522.524 358.804 517.22 365.553 515.196 367.922C510.393 373.545 506.034 377.579 494.352 386.999C494.318 387.014 494.286 387.049 494.262 387.069L494.212 387.149C493.193 385.456 492.152 384.207 491.596 383.485C490.217 381.713 487.722 382.499 484.658 375.1C481.143 366.636 480.728 359.625 481.005 355.294C481.282 350.968 482.313 349.308 484.309 347.458C486.305 345.598 495.11 346.429 495.11 346.429C495.11 346.429 499.426 347.319 503.296 340.919C507.137 334.524 506.86 324.062 505.622 318.847C504.384 313.623 502.607 309.083 495.45 308.326C488.293 307.573 485.068 316.372 485.068 316.372C485.068 316.372 483.623 319.74 482.103 321.673C480.593 323.591 476.473 323.04 476.473 323.04C474.681 322.836 472.48 323.516 470.343 319.117C468.222 314.723 463.326 303.165 463.326 303.165C461.684 299.261 460.647 295.809 459.996 293.182L456.468 291.735L456.058 295.298C458.942 305.393 464.978 318.125 467.478 323.33C470.023 328.627 475.734 329.166 479.857 328.141C483.984 327.102 485.346 324.833 487.623 319.876C489.896 314.933 491.127 314.585 491.127 314.585C491.127 314.585 492.033 313.281 496.228 313.766C500.424 314.247 501.319 317.2 501.319 317.2C501.319 317.2 503.727 322.903 503.246 328.89C502.77 334.862 501.461 337.56 500.082 339.691C498.703 341.823 491.546 341.129 491.546 341.129C491.546 341.129 479.237 339.755 478.14 354.545C477.047 369.331 481.983 379.572 481.983 379.572C483.78 383.49 485.634 385.557 487.144 386.659C488.659 387.752 490.099 389.205 490.099 389.205C490.099 389.205 490.358 389.436 490.728 389.924H490.718C481.944 397.032 479.352 399.336 472.36 404.279C472.36 404.279 464.379 410.23 455.649 414.94C446.899 419.64 436.632 419.083 436.632 419.083C436.632 419.083 433.84 418.782 435.194 416.767C436.534 414.752 438.268 409.849 438.938 407.353C439.618 404.853 440.952 398.517 435.863 396.502C430.775 394.487 421.209 397.451 421.209 397.451C421.209 397.451 399.231 403.306 390.272 413.143C381.571 422.704 388.885 426.959 388.885 426.959C388.885 426.959 392.302 429.338 395.613 430.513C398.74 431.625 398.107 432.616 397.33 433.198C397.33 433.198 387.518 439.451 375.927 442.782C375.927 442.782 360.068 447.646 344.652 448.642C329.356 449.63 322.883 450.018 322.86 450.019L322.87 450.009C321.219 446.766 319.506 443.86 319.506 443.86C319.506 443.86 319.11 443.286 318.607 442.292V442.282C318.356 441.783 318.074 441.176 317.799 440.485V440.475C317.523 439.783 317.252 439.006 317.02 438.159V438.149C316.789 437.303 316.591 436.389 316.471 435.425V435.414C316.233 433.481 316.29 431.351 316.911 429.175V429.165C317.221 428.079 317.681 426.981 318.308 425.891V425.881C318.935 424.789 319.619 423.794 320.325 422.886V422.876C321.032 421.965 321.77 421.15 322.511 420.41C325.476 417.452 328.522 415.809 330.227 415.039L330.238 415.029C331.084 414.648 331.586 414.493 331.595 414.49C331.595 414.49 338.881 412.875 346.15 414.56C349.601 415.351 352.178 415.074 353.906 414.61C354.765 414.381 355.41 414.113 355.843 413.891L355.853 413.881C356.271 413.665 356.502 413.502 356.502 413.502C356.502 413.502 356.757 413.384 357.171 413.082L357.181 413.072C357.595 412.77 358.157 412.285 358.758 411.535C358.966 411.276 359.185 410.94 359.397 410.617C359.494 410.469 359.591 410.359 359.687 410.197C359.991 409.687 360.293 409.096 360.575 408.43C360.578 408.424 360.582 408.417 360.585 408.41C360.674 408.201 360.741 407.927 360.825 407.702C361.012 407.2 361.203 406.712 361.364 406.124C361.461 405.771 361.528 405.332 361.614 404.946C361.732 404.406 361.862 403.906 361.953 403.299C361.954 403.291 361.962 403.287 361.963 403.279C362.436 400.136 362.538 395.978 361.903 391.849C361.902 391.842 361.904 391.836 361.903 391.829C361.691 390.454 361.397 389.088 361.005 387.757V387.746C359.433 382.41 356.306 377.738 350.713 376.196C345.105 374.657 340.821 375.355 337.935 376.426C336.498 376.961 335.409 377.58 334.68 378.075L334.669 378.085C333.952 378.574 333.571 378.934 333.571 378.934V378.944C333.566 378.949 332.064 380.596 330.317 382.378L330.307 382.388C328.559 384.17 326.569 386.074 325.595 386.561C323.633 387.537 320.624 389.276 320.624 389.276C320.624 389.276 316.421 391.799 313.566 392.43C311.678 392.853 304.892 383.835 304.192 376.908V376.897C303.869 373.702 303.38 370.804 303.034 367.064C303.029 367.009 303.029 366.931 303.024 366.875C302.687 363.172 302.487 358.66 302.714 352.21V352.13L302.704 352.12C304.687 352.004 306.707 351.908 308.734 351.831C326.078 351.204 334.672 349.137 343.893 347.069C353.108 345.005 366.078 337.47 368.001 336.018C369.923 334.586 373.958 332.807 374.769 326.515C375.585 320.227 368.15 316.043 368.15 316.043C368.15 316.043 362.231 312.919 360.983 311.531C359.74 310.137 360.893 308.796 360.893 308.796C360.893 308.796 364.242 301.585 374.958 297.365C385.665 293.131 392.869 291.996 397.379 291.506C401.905 291.025 403.436 292.65 404.058 293.422C404.679 294.185 404.677 295.784 404.158 297.415C403.662 298.911 401.999 302.45 401.023 304.184C400.067 305.912 398.491 310.089 399.496 312.06C400.506 314.026 403.58 314.945 407.562 314.226C411.548 313.503 422.07 310.525 431.29 306.679C440.516 302.834 455.928 295.299 455.928 295.299C455.928 295.299 455.969 295.278 456.037 295.239L457.186 293.572L459.996 293.182C464.944 290.453 473.412 285.458 479.457 280.355C488.546 272.717 497.419 264.696 499.682 262.686C501.939 260.661 504.015 259.035 506.031 259.132C508.046 259.234 509.594 260.666 510.832 266.09C512.085 271.518 512.316 275.986 512.899 278.628C513.467 281.264 514.284 284.33 517.411 284.957C520.538 285.583 524.752 282.858 526.335 281.503C527.938 280.163 530.807 275.789 530.618 269.933C530.618 269.933 530.949 262.144 526.924 254.749C526.924 254.749 525.23 251.772 524.608 250.956C524.181 250.383 523.845 249.794 524.558 248.4C525.277 247.012 526.82 244.417 529.699 242.79C531.884 241.547 533.975 241.252 535.18 240.864C535.18 240.864 536.53 240.548 538.224 239.606L537.607 237.599ZM128.788 375.279C127.967 378.586 127.887 381.907 128.678 387.757C129.46 393.633 132.615 405.82 137.193 409C143.273 413.23 147.246 413.159 151.349 412.844C155.437 412.518 158.267 409.38 158.267 409.38C158.267 409.38 159.872 407.727 161.591 408.232C163.32 408.742 168.126 411.44 171.584 418.354C175.046 425.268 175.81 432.877 170.046 434.237C164.283 435.567 154.364 430.134 154.364 430.134C154.364 430.134 148.724 426.991 144.121 430.453C139.504 433.915 139.379 439.226 141.686 445.757C142.953 449.34 145.483 455.17 149.033 461.24L152.477 462.687L152.137 462.228L148.973 461.24C143.442 460.166 133.227 457.999 129.187 455.979C125.502 454.134 123.526 454.464 124.016 450.628C124.507 446.904 120.353 441.714 120.353 441.714C120.353 441.714 114.592 435.466 109.402 431.581C104.211 427.687 102.005 428.846 102.005 428.846C102.005 428.846 99.6528 430.095 101.765 435.135C103.882 440.185 105.938 441.953 105.938 441.953C105.938 441.953 106.955 443.014 106.377 443.301C105.804 443.592 104.025 442.252 102.544 440.995C101.899 440.46 98.907 437.63 96.2846 435.185C95.267 433.59 94.1714 432.052 93.19 430.433L93.18 430.413L91.7126 427.928L91.7025 427.917C76.1145 401.488 65.3982 371.856 60.6565 340.28C61.7591 341.582 63.007 343.035 65.0189 345.112C70.2824 350.555 71.9469 347.128 71.9469 347.128C71.9469 347.128 73.178 343.705 71.6873 337.485C70.1967 331.246 70.4581 327.555 73.2646 327.652C76.0711 327.744 84.2268 329.403 86.7711 336.157C86.7711 336.157 87.8272 339.31 86.8609 343.345C85.8898 347.39 86.0719 350.97 86.7711 354.485C87.4751 358.001 90.4556 361.32 93.8787 364.049C97.3067 366.778 107.216 371.503 116.869 372.115C126.517 372.727 129.492 372.23 129.492 372.23C129.288 373.196 129.045 374.264 128.788 375.279ZM546.791 328.371C540.942 386.482 514.851 438.591 475.624 477.531C475.654 477.028 477.861 475.036 477.861 475.036C477.861 475.036 480.707 471.998 482.552 469.575C484.402 467.157 483.221 467.299 483.221 467.299C483.221 467.299 482.319 467.069 478.43 469.535C474.54 472.002 471.791 473.708 471.791 473.708C471.791 473.708 463.427 478.496 458.115 481.584C458.073 481.608 457.978 481.66 457.935 481.684C458.888 480.196 459.888 478.758 460.9 477.372V477.361C463.951 473.189 467.15 469.529 469.735 466.65C473.925 461.974 478.949 454.391 478.949 454.391C478.949 454.391 482.055 449.076 482.183 446.595C482.183 446.587 482.183 446.583 482.183 446.575C482.202 446.225 482.15 445.941 482.033 445.726V445.716C481.402 444.595 478.616 445.801 473.847 449.36C470.102 452.16 467.221 453.899 464.783 455.14C463.588 455.656 462.406 456.063 461.339 456.178C456.323 456.741 456.532 451.583 456.867 449.32C457.207 447.038 458.386 441.815 462.028 439.747C465.67 437.678 470.763 437.756 474.337 437.271C477.92 436.785 479.558 435.764 479.558 435.764C479.558 435.764 485.41 432.045 489.261 425.791C493.121 419.527 496.559 409.413 496.957 399.377C497.107 395.682 496.609 392.812 495.849 390.552H495.869C505.468 382.91 514.656 373.212 514.656 373.212C514.656 373.212 520.757 367.094 523.82 361.772C526.71 356.781 523.95 366.085 523.95 366.085C523.95 366.085 522.403 373.438 524.889 376.167C526.865 378.328 532.475 372.314 532.475 372.314C532.475 372.314 535.812 368.488 537.157 362.311C539.138 353.207 538.056 351.39 538.056 351.39C538.056 351.39 536.864 349.501 537.606 347.258C538.333 345.102 542.885 333.397 546.791 328.371ZM492.525 390.044L491.876 390.842L492.435 393.188C493.455 395.975 494.193 400.387 493.134 406.874C490.857 420.829 486.875 425.302 486.875 425.302C486.875 425.302 481.912 432.24 476.144 432.939C470.356 433.624 464.023 433.417 458.255 439.817C451.846 446.906 453.164 456.039 453.164 456.039C453.164 456.039 453.721 461.612 459.712 460.102C465.68 458.582 471.801 453.985 476.413 450.329C481.011 446.682 478.19 451.566 478.19 451.566C474.136 459.471 466.431 467.389 466.431 467.389C466.431 467.389 463.745 469.728 457.836 478.05C456.301 480.208 455.08 482.07 454.022 483.75C447.968 487.023 439.425 491.344 433.728 493.683C426.794 496.533 423.238 497.157 423.855 496.249C424.467 495.346 426.091 494.013 426.091 494.013C426.091 494.013 428.037 492.076 428.037 490.119C428.037 490.119 428.646 487.279 420.241 489.041C411.846 490.794 404.259 494.921 404.259 494.921C404.259 494.921 391.763 500.662 394.715 504.085C394.715 504.085 395.28 504.991 397.79 505.792C400.315 506.603 393.338 508.737 393.338 508.737C386.7 510.912 381.613 511.909 375.169 513.239C367.477 514.822 362.619 515.91 358.848 516.743C358.845 516.73 358.841 516.716 358.838 516.703L358.868 516.693C357.662 512.145 355.166 508.17 353.647 505.802C353.343 505.328 352.842 504.466 352.659 504.175V504.165C352.275 503.554 351.832 503.013 351.261 502.557C350.711 502.118 350.033 501.767 349.195 501.519C347.421 500.99 344.893 500.93 341.039 501.569C333.484 502.832 324.598 506.61 324.598 506.61C324.598 506.61 322.304 507.822 319.157 508.916C316.01 510.011 312.009 510.99 308.585 510.534C306.013 510.191 304.203 509.004 302.955 507.539C302.541 507.052 302.186 506.538 301.887 506.012V506.001C301.589 505.475 301.347 504.939 301.148 504.414V504.404C300.95 503.879 300.793 503.369 300.679 502.887V502.876C300.45 501.907 300.373 501.064 300.39 500.52C300.409 499.982 300.514 499.464 300.709 498.963V498.953C300.906 498.452 301.208 497.972 301.607 497.515C302.414 496.599 303.656 495.779 305.441 495.08C309.01 493.672 317.403 491.788 329.639 491.156C337.281 490.762 341.922 487.496 344.333 485.107C345.782 483.671 346.43 482.561 346.43 482.561C347.03 481.695 347.808 480.42 348.186 478.968V478.957C348.563 477.508 348.549 475.877 347.548 474.286L347.537 474.275C347.205 473.747 346.759 473.22 346.19 472.708L346.18 472.698C345.608 472.185 344.904 471.691 344.053 471.211L344.043 471.2C342.334 470.244 341.046 469.591 340.02 469.104L340.01 469.094C338.987 468.609 338.222 468.299 337.574 468.026L337.564 468.015C336.264 467.469 335.412 467.087 333.771 465.832C332.123 464.567 330.408 463.167 328.93 461.549C328.194 460.744 327.515 459.888 326.933 458.964L326.923 458.954C326.618 458.468 326.431 457.909 326.184 457.386C325.962 456.913 325.672 456.475 325.505 455.969V455.959C325.482 455.884 325.434 455.783 325.406 455.699C325.281 455.332 325.146 454.924 324.996 454.551L324.976 454.541L324.634 452.917C319.874 451.015 322.215 452.713 325.046 454.551C328.601 454.26 333.192 453.926 337.305 453.722C345.525 453.324 358.387 451.435 365.855 449.799C373.333 448.139 384.642 444.657 393.008 440.336C401.379 435.995 401.783 432.958 401.783 432.958C401.783 432.958 403.377 430.657 399.886 428.127C396.395 425.583 394.853 426.272 391.76 423.136C388.677 419.994 394.456 415.269 394.456 415.269C394.456 415.269 397.434 411.093 413.982 404.718C430.515 398.347 433.312 400.475 434.156 401.174C435.006 401.873 435.11 404.162 434.755 405.706C434.415 407.255 432.364 412.77 431.261 415.669C430.159 418.553 429.72 422.498 434.196 423.445C438.673 424.387 444.948 423.411 450.837 421.299C464.88 416.278 469.075 410.146 492.275 393.307C492.334 393.269 492.381 393.232 492.425 393.208L492.525 390.044ZM105.628 432.799C105.628 432.799 106.275 432.557 108.523 434.257C110.766 435.951 115.795 439.478 118.286 442.522C120.777 445.542 120.622 448.252 120.622 448.252C120.622 448.252 120.124 450.985 122.818 453.932C125.503 456.865 131.235 462.254 151.269 465.342C151.39 465.362 151.437 465.368 151.558 465.382L151.948 462.657L151.439 462.967L151.589 465.373C153.977 469.005 156.719 472.56 159.744 475.605C159.744 475.605 171.71 488.847 178.372 497.237C178.372 497.237 178.769 498.006 177.613 497.317C176.458 496.608 171.459 494.3 168.769 494.562C166.074 494.824 166.582 496.479 166.582 496.479C166.582 496.479 167.743 502.565 186.059 512.82C186.059 512.82 192.659 516.524 196.82 516.524C196.82 516.524 198.164 516.716 199.825 514.857C201.505 513.007 202.003 513.205 203.159 513.589C204.31 513.963 205.846 514.793 211.614 518.959C217.382 523.121 228.592 529.517 232.617 532.216C233.896 533.071 234.638 533.674 235.183 534.203C226.483 533.508 218.195 532.478 213.75 531.817C211.075 530.77 208.413 529.71 205.784 528.573C204.902 528.034 204.583 527.786 203.618 527.205C201.108 525.68 193.555 522.793 193.555 522.793C193.555 522.793 192.879 522.55 192.757 522.503C155.838 503.881 124.269 476.232 100.977 442.413C101.288 442.667 101.517 442.905 101.845 443.161C109.366 449.046 109.412 446.705 109.412 446.705C109.412 446.705 109.713 444.759 107.974 442.622C106.231 440.481 103.437 435.957 104.131 434.297C104.83 432.656 105.628 432.799 105.628 432.799ZM319.187 455.04C321.114 459.701 322.583 462.273 325.506 465.462C328.657 468.885 333.626 471.54 339.501 473.788C345.386 476.031 342.716 480.017 342.716 480.017C339.356 487.286 329.352 487.578 326.414 487.923C323.481 488.268 317.329 488.827 311.58 490.089C305.841 491.352 300.454 492.12 297.235 495.829C294.025 499.539 295.286 503.38 297.175 507.439C299.059 511.494 304.097 513.661 311.021 513.389C317.945 513.117 322.438 511.087 326.634 509.266C330.829 507.44 338.1 505.335 340.27 504.714C342.436 504.088 345.382 502.831 347.547 505.982C349.893 509.386 352.376 514.225 353.507 517.881C353.576 517.866 353.647 517.861 353.717 517.851C353.717 517.851 347.828 519.275 338.044 523.072C328.26 526.869 309.045 530 309.045 530C309.045 530 296.709 531.423 295.568 533.045C294.432 534.652 296.426 535.471 296.426 535.471C296.426 535.471 298.186 536.542 304.542 536.838C304.542 536.838 306.731 536.838 306.828 537.018C306.911 537.212 307.045 537.355 305.68 537.787C304.292 538.214 301.536 539.307 292.194 540.482C282.793 541.676 282.99 540.163 282.99 540.163C282.99 540.163 282.942 539.789 283.369 539.114C283.792 538.464 283.408 537.315 281.942 536.509C281.942 536.509 279.913 535.183 273.067 535.241C266.231 535.285 252.611 535.325 239.885 534.572C239.592 534.555 239.254 534.522 238.956 534.502L238.946 534.492L239.735 534.532C238.943 533.813 237.934 533.171 236.72 532.526C233.326 530.729 218.604 520.999 214.05 517.921C209.505 514.847 201.553 509.666 198.047 510.743C195.357 511.579 195.742 512.662 194.144 513.449C192.537 514.211 190.804 513.699 186.837 511.582C182.865 509.48 179.922 508.062 172.172 500.711C166.127 494.957 179.919 500.132 179.919 500.132C179.919 500.132 182.926 501.402 181.586 498.265C180.241 495.129 173.451 486.935 167.051 480.336C161.866 475.01 158.917 471.301 155.222 465.922L152.836 465.193L155.272 465.941C172.742 468.461 182.245 468.667 182.245 468.667C182.245 468.667 205.113 469.465 211.294 469.465C217.471 469.465 216.316 472.7 216.316 472.7C216.316 472.7 215.97 474.441 215.228 475.834C214.475 477.228 212.684 482.461 214.529 485.248C214.529 485.248 217.37 492.185 235.802 492.675C235.802 492.675 251.934 493.968 263.194 489.331C274.454 484.699 264.292 478.28 264.292 478.28C264.292 478.28 260.443 475.949 258.812 474.696C257.316 473.555 257.917 472.353 258.223 471.552C258.514 470.765 259.666 469.812 260.958 469.166C262.25 468.515 266.969 465.981 287.003 460.8C307.027 455.61 318.987 455.06 318.987 455.06C318.987 455.06 319.085 455.048 319.187 455.04ZM480.726 470.264C480.916 470.329 480.702 470.782 479.528 472.081C476.396 475.543 474.826 476.972 474.826 476.972C474.826 476.972 472.229 479.586 472.47 480.566C462.055 490.544 450.774 499.609 438.729 507.639C439.432 506.81 440.041 505.935 439.747 505.702C439.125 505.222 436.712 506.94 436.712 506.94C436.712 506.94 434.748 508.508 432.929 509.356C432.834 509.4 432.743 509.446 432.649 509.486C432.683 509.473 432.715 509.468 432.749 509.455C432.695 509.479 432.653 509.493 432.599 509.515C432.617 509.508 432.631 509.493 432.649 509.486C432.528 509.53 432.412 509.546 432.29 509.585C431.831 509.748 431.368 509.917 431.002 509.894C430.762 509.878 430.621 509.799 430.553 509.675C430.35 509.302 430.834 508.514 431.451 507.738C432.277 506.706 433.338 505.692 433.338 505.692C433.338 505.692 437.733 500.749 441.933 499.992C442.982 499.802 443.815 499.591 444.509 499.363C446.589 498.678 447.403 497.805 448.951 496.618C451.015 495.035 451.355 493.314 455.559 485.677C455.711 485.397 455.876 485.117 456.029 484.828L456.039 484.818C461.399 481.822 463.302 480.899 464.574 480.146C470.318 476.728 477.168 472.554 478.969 471.132C478.969 471.132 480.409 470.155 480.726 470.264ZM452.784 486.845C452.667 487.031 453.709 484.27 453.603 484.449C450.927 488.776 449.71 491.397 449.71 491.397C449.71 491.397 448.343 494.075 448.202 495.59C448.071 497.11 446.974 496.898 446.974 496.898C446.974 496.898 444.799 496.899 441.743 498.095C441.429 498.193 441.473 498.138 441.035 498.285C441.035 498.285 440.686 498.482 440.565 498.545C439.439 499.083 438.233 499.806 436.952 500.761C436.772 500.882 436.669 500.93 436.483 501.06C436.347 501.167 436.224 501.263 436.093 501.37C435.236 502.069 434.647 502.642 433.917 503.286C433.304 503.826 432.625 504.392 432.1 504.884C431.212 505.717 430.56 506.362 429.924 507.02C429.693 507.257 429.534 507.397 429.335 507.609C429.135 507.822 428.805 508.143 428.636 508.328C428.522 508.469 428.416 508.62 428.307 508.767C427.995 509.132 427.299 509.905 427.299 509.905C427.299 509.905 425.233 512.65 427.229 512.65C429.219 512.65 433.892 510.24 435.684 508.657C437.471 507.069 436.582 508.388 436.582 508.388C436.011 509.028 435.22 509.738 434.516 510.424C413.236 523.985 389.714 534.314 364.638 540.811C362.041 540.646 360.133 540.303 359.227 540.182C357.134 539.901 355.445 539.484 354.954 538.435C354.469 537.391 357.27 537.447 357.27 537.447C357.27 537.447 365.448 536.545 373.013 534.103C380.573 531.646 382.384 529.332 382.097 527.584C381.82 525.841 377.987 525.973 373.432 527.444C368.887 528.921 362.092 531.088 360.495 531.438C359.854 531.572 359.227 531.58 358.628 531.557C358.37 531.546 358.098 531.557 357.869 531.507C357.688 531.468 357.516 531.423 357.36 531.357C357.293 531.329 357.222 531.302 357.161 531.268C356.92 531.135 356.706 530.972 356.572 530.748L356.561 530.738C356.485 530.603 356.43 530.427 356.362 530.269C356.306 530.14 356.235 530.032 356.192 529.89C356.095 529.573 356.039 529.227 356.052 528.852C356.078 528.099 356.394 527.246 357.27 526.336C357.712 525.879 358.051 525.441 358.318 525.038C358.584 524.637 358.772 524.277 358.907 523.97C359.18 523.356 359.237 522.972 359.237 522.972C359.272 522.806 359.263 522.631 359.287 522.463C359.46 521.381 359.486 520.255 359.337 519.098C359.662 519.03 359.836 518.999 359.836 518.999C359.836 518.999 371.023 516.381 375.728 515.585C380.419 514.769 391.044 512.489 395.574 510.304C400.08 508.124 402.352 506.404 402.881 505.083C403.401 503.762 400.975 502.997 400.975 502.997C400.975 502.997 398.125 502.325 398.509 501.339C398.883 500.344 399.931 499.492 404.399 497.496C408.861 495.5 414.453 493.325 420.061 491.946C425.665 490.577 423.625 492.894 423.625 492.894C423.625 492.894 420.259 496.31 419.822 497.636C419.399 498.966 419.969 499.02 420.401 499.253C420.828 499.496 423.537 499.395 425.372 498.924C427.232 498.448 442.183 492.753 451.297 487.533C451.525 487.407 451.752 487.27 451.966 487.144L452.784 486.845ZM354.096 520.407C354.562 523.592 353.587 524.662 352.868 525.847C352.101 527.105 350.002 528.723 351.051 531.597C352.1 534.462 359.227 533.549 363.35 532.296C367.482 531.034 370.978 529.913 373.712 528.932C376.441 527.961 377.206 529.341 377.206 529.341C377.206 529.341 378.392 530.184 374.411 532.286C370.419 534.384 363.067 535.362 359.576 535.78C356.071 536.202 357.124 535.571 351.88 537.387C346.626 539.213 351.54 540.821 351.54 540.821C354.339 541.55 356.936 541.95 359.297 542.159C341.214 546.409 322.369 548.687 302.985 548.687C293.124 548.687 283.412 548.072 273.856 546.94C274.386 546.516 272.777 545.862 272.777 545.862C272.777 545.862 268.424 543.804 258.752 543.037C258.752 543.037 254.853 542.772 251.454 543.097C251.221 543.12 250.998 543.072 250.766 543.077C248.383 542.56 246.014 542.016 243.658 541.43C242.413 540.978 239.863 539.955 240.823 538.685C241.435 537.884 241.482 537.055 241.132 536.249C246.489 536.587 253.551 536.948 253.551 536.948C253.551 536.948 268.002 537.489 275.912 536.858C279.471 536.557 278.368 538.415 278.368 538.415C278.368 538.415 277.337 540.131 279.376 540.981C279.376 540.981 283.119 543.114 295.608 541.74C308.096 540.351 310.841 537.557 310.841 537.557C310.841 537.557 312.29 536.217 309.134 535.62C306.653 535.14 306.658 535.381 303.434 535.051C300.205 534.726 298.587 534.047 300.729 533.474C302.87 532.911 306.429 532.625 306.429 532.625C306.429 532.625 317.342 531.109 326.164 528.822C326.164 528.822 335.575 526.604 344.912 523.322C348.588 522.04 351.692 521.092 354.086 520.417L354.096 520.407ZM219.041 533.833C225.375 534.658 233.33 535.574 236.051 535.85C236.024 536.281 235.891 536.74 235.632 537.337C235.136 538.485 236.116 539.216 237.099 539.713C230.969 538.006 224.968 535.994 219.041 533.833ZM258.542 544.215C260.079 544.16 261.378 544.189 262.915 544.505C265.983 545.146 269.128 545.92 269.443 546.182C269.566 546.28 269.24 546.298 268.954 546.322C264.823 545.748 260.728 545.062 256.665 544.285C257.228 544.255 258.046 544.233 258.542 544.215Z" fill="#F59F0B"/>
<path d="M136.837 138.678H137.405C136.628 141.013 133.574 144.218 132.219 146.364C131.462 147.568 130.995 149.142 129.918 150.011C130.102 150.22 129.903 150.025 130.112 150.205C130.539 150.458 134.059 149.53 134.725 149.059C135.123 149.132 135.094 149.113 135.307 149.248C135.511 149.588 132.972 154.06 132.418 154.633V154.828C133.37 154.716 134.856 154.556 135.497 154.051C137.356 152.599 137.779 149.501 139.138 147.515C139.075 147.195 139.012 146.874 138.944 146.563C137.866 146.369 135.637 146.66 134.72 147.326H134.53C134.972 145.029 138.745 140.79 140.095 138.872C142.299 135.731 144.372 132.71 146.625 129.647C147.805 128.039 149.466 126.626 150.66 125.039C152.001 123.257 153.423 120.911 155.268 119.664V119.28H154.501C153.598 119.936 151.224 120.339 150.092 120.999C150.248 121.654 150.185 121.489 150.665 121.766C149.99 123.64 147.762 125.034 146.625 126.578C144.824 129.006 142.819 131.278 141.056 133.686C140.459 134.483 140.061 135.731 139.328 136.372C138.177 137.382 134.894 137.27 133.574 138.294H133.185C133.457 136.682 137.589 131.535 138.755 130.419V130.224C136.774 130.501 135.239 131.55 133.952 132.521C134.166 132.963 134.132 132.876 134.535 133.104C133.831 134.259 132.782 135.119 132.035 136.177C131.078 137.513 130.554 139.1 129.539 140.407C129.607 140.601 129.675 140.78 129.733 140.979C130.957 140.873 136.069 139.251 136.837 138.678ZM305.698 164.631C306.66 164.951 307.621 165.267 308.592 165.587C309.364 165.597 310.18 165.577 310.69 165.393C310.646 162.218 308.922 160.96 307.81 158.862C307.262 157.794 306.961 156.323 306.087 155.595C306.422 154.42 309.607 154.099 310.884 153.672C314.001 152.647 317.541 151.623 320.687 150.598C322.163 150.118 323.916 150.224 325.111 149.452C325.81 149.525 326.169 149.593 326.456 150.025C327.145 151.055 327.718 158.12 327.213 160.207C325.281 168.282 322.863 174.594 317.803 179.426V179.615C319.677 179.314 320.571 177.498 321.833 176.546C326.936 172.691 330.393 166.971 332.214 159.824C333.283 155.624 331.539 151.506 333.176 147.918H332.986C332.632 147.005 327.733 145.233 326.257 145.223C325.46 146.083 324.314 147.243 323.178 147.724C321.435 148.462 319.109 148.253 317.614 149.253C316.22 149.137 315.162 146.486 316.079 145.413C316.031 144.976 316.041 144.869 315.885 144.645C314.725 143.718 311.763 143.815 309.733 143.878C309.087 144.485 308.514 144.607 308.204 145.617H308.014C307.912 145.986 308.102 145.859 308.204 145.995C308.33 146.073 308.995 145.961 309.359 146.189C311.535 146.418 311.486 148.938 312.627 150.224C312.496 150.559 312.579 150.419 312.423 150.613C311.67 151.21 306.111 152.812 304.931 153.114C304.033 153.337 302.921 152.783 302.246 152.72C300.614 152.584 299.172 153.497 298.211 154.065C298.73 154.828 300.318 154.638 300.901 155.405C302.94 158.12 303.853 161.616 305.698 164.631ZM343.916 161.926C344.814 162.378 344.814 163.538 345.266 164.422C346.164 166.223 347.388 168.404 347.956 170.385V171.919C348.398 173.143 349.879 173.298 350.85 174.031C351.607 173.929 351.879 173.735 352.375 173.458C352.049 169.802 349.821 166.767 348.534 163.849C348.141 162.936 347.524 161.654 347.388 160.776C347.286 160.246 347.684 159.955 347.388 159.435C347.14 158.838 347.029 159.023 346.621 158.663C346.339 158.469 346.47 158.586 346.621 158.285C346.961 157.585 347.655 156.891 347.961 156.168C348.607 154.648 348.582 153.371 349.884 152.521C349.689 150.53 346.791 150.302 344.499 150.409C344.232 150.613 343.741 150.72 343.338 150.783C343.576 151.283 343.732 151.385 344.3 151.545C344.858 157.182 340.911 162.349 338.337 165.762C337.327 167.117 335.642 167.976 334.695 169.423H334.501V169.608C337.06 169.19 342.62 163.898 343.916 161.926ZM113.763 209.768C113.37 209.851 113.394 209.812 113.195 209.957C111.797 210.676 109.442 216.881 106.659 215.148C105.242 215.158 105.111 214.881 104.348 214.371C104.445 212.545 107.548 209.21 108.781 208.418C108.932 205.485 109.689 202.339 109.354 199.586C109.155 199.518 108.966 199.45 108.781 199.397C108.102 199.173 107.567 200.212 107.048 200.737C105.64 202.15 103.901 203.636 102.819 205.345C101.182 205.33 95.9529 205.282 94.9381 205.922H94.3603C94.841 204.679 98.5361 200.601 97.4339 198.814C97.3708 198.615 97.3125 198.426 97.2397 198.231C93.734 198.241 89.5096 204.48 88.4026 207.068C87.8442 208.36 87.8442 209.851 87.0624 210.909V211.103C89.6844 210.783 92.3161 210.458 94.9381 210.137C95.9335 209.923 97.3028 210.39 98.0117 209.948H100.702C101.148 209.375 101.595 208.792 102.047 208.219C103.649 206.525 105.776 204.811 107.038 202.849H107.616V205.524C106.145 206.85 103.863 208.899 103.197 210.904V212.439C102.212 216.712 104.28 218.892 108.004 218.591C110.432 216.328 114.433 214.473 113.957 209.953C113.753 209.783 113.943 209.977 113.763 209.768ZM91.4858 206.311H90.3254C90.8546 204.194 92.9328 201.771 95.5159 201.698V202.655C94.6177 203.815 93.7242 204.961 92.826 206.117C92.2773 206.107 91.782 206.107 91.4858 206.311ZM505.3 207.267C504.504 205.301 503.873 203.762 502.994 202.082C501.542 199.295 500.017 195.216 495.885 195.163C494.861 196.032 493.783 196.726 493.19 198.042C489.418 206.597 497.177 216.236 500.682 220.912C501.926 222.558 503.387 224.369 505.295 225.32C504.853 232.002 499.143 234.124 493.001 231.472C488.636 229.598 485.154 225.466 482.43 221.863C481.513 220.654 480.09 219.644 479.168 218.401C478.313 217.241 477.696 215.939 476.672 214.939V214.75H476.288C476.817 216.818 478.007 218.707 478.784 220.518C482.032 227.986 486.16 233.211 492.428 237.615C495.385 239.693 500.299 242.975 504.533 239.921C511.942 234.59 508.335 214.726 505.3 207.267ZM504.732 216.498C504.227 216.983 502.12 214.463 501.654 213.997C499.507 211.846 495.201 208.069 497.624 204.388H498.58C500.464 206.345 502.202 208.214 503.387 210.914C504.013 212.366 504.125 214.823 504.917 216.105C504.8 216.444 504.883 216.299 504.732 216.498ZM377.352 254.915V252.997C378.221 249.108 378.017 244.427 378.876 240.509C380.056 235.226 378.395 230.079 383.693 228.787C383.795 228.273 383.96 228.069 383.693 227.632C383.567 227.306 383.649 227.442 383.499 227.248C383.29 227.098 383.314 227.132 382.926 227.059C381.454 228.137 377.444 228.87 375.438 229.36C373.923 229.729 372.341 229.409 371.209 230.127C371.015 230.19 370.826 230.258 370.631 230.322C370.695 230.705 370.758 231.094 370.826 231.472C373.016 232.186 375.035 231.322 376.016 233.201C376.647 234.425 376.56 238.819 376.206 240.504C374.987 246.151 375.506 252.599 374.278 258.178C373.86 260.106 374.394 263.864 373.516 265.282V265.67C372.345 265.112 371.588 263.602 370.826 262.596C369.112 260.329 366.577 258.518 364.863 256.26C363.829 254.896 362.746 253.264 361.406 252.215C361.586 248.52 362.663 244.641 363.523 241.271C364.159 238.736 364.178 236.391 365.441 234.541C366.159 233.487 367.893 232.817 369.087 232.235C369.077 231.749 369.068 231.526 368.893 231.273C368.83 231.079 368.781 230.89 368.714 230.695C366.077 231.089 363.843 232.351 361.406 233.002C359.201 233.599 356.982 233.449 355.249 234.342C355.302 234.784 355.298 234.886 355.443 235.109C355.511 235.299 355.57 235.498 355.637 235.682C362.387 235.303 361.362 238.974 360.061 244.141C359.658 245.723 359.925 247.904 359.099 249.132V249.516H358.905C357.526 247.413 355.443 245.379 353.724 243.558C353.02 242.917 352.311 242.276 351.612 241.64C351.107 240.975 350.835 240.125 350.262 239.523C350.384 237.401 352.107 236.857 353.724 236.26C353.652 235.371 353.472 235.26 353.151 234.721C348.145 235.454 343.795 238.265 338.167 238.561V238.761H337.973C337.992 239.246 337.992 239.469 338.167 239.717V240.101C339.269 240.29 340.906 239.838 342.202 240.295C344.275 241.023 346.135 243.441 347.383 245.102C349.267 247.593 352.219 249.71 354.103 252.206C355.099 253.536 356.21 255.284 357.565 256.245C357.381 259.625 356.453 263.179 355.642 266.238C355.225 267.806 355.472 269.807 354.686 271.035C354.564 271.37 354.642 271.225 354.487 271.424C352.661 267.938 349.126 265.282 346.805 262.198C342.353 256.275 337.4 250.938 332.782 245.102C332.782 244.291 332.831 243.801 333.171 243.373C333.53 242.261 334.919 241.222 336.24 241.062C336.312 240.479 336.405 240.407 336.05 239.906C335.982 239.722 335.924 239.533 335.851 239.334C331.952 239.931 328.471 241.747 324.717 242.8C322.77 243.344 320.216 243.077 318.76 244.141C318.565 244.204 318.371 244.267 318.182 244.335C318.289 245.073 318.478 245.189 318.76 245.68C320.294 245.655 321.891 245.233 323.367 245.68C327.218 246.85 329.986 251.2 332.205 254.138C333.176 255.43 334.686 256.483 335.667 257.785C339.779 263.267 344.436 268.205 348.534 273.735C350.126 275.881 352.273 277.741 353.71 280.067C354.579 280.047 354.759 279.945 355.244 279.683C356.283 275.172 356.861 270.623 358.138 266.039C358.716 263.941 359.444 261.465 359.668 259.125C361.26 259.693 362.542 262.072 363.513 263.354C366.524 267.34 370.763 270.647 373.501 274.876C374.302 274.842 374.385 274.75 374.846 274.497C375.691 267.981 376.521 261.446 377.352 254.915ZM74.3846 287.768C74.3215 299.746 73.6951 318.207 83.0323 320.815C86.4312 321.752 88.3103 319.499 89.3737 317.925C93.1901 312.244 92.1171 301.193 88.4074 296.415C86.7614 296.58 84.4016 300.494 83.6101 301.786C83.212 301.708 83.246 301.732 83.0323 301.591C82.5905 301.392 82.6196 301.271 82.2603 301.018C81.969 296.488 82.8769 292.269 83.0323 287.952C88.1015 288.447 92.4569 291.332 97.633 291.599C97.6281 290.7 97.633 289.491 98.0068 288.918C97.9634 288.472 97.9726 288.375 97.8126 288.142C97.1086 287.583 93.2047 286.656 92.0539 286.612V286.418H91.8597C92.5686 280.717 90.9566 276.309 87.0527 274.696C84.8726 274.308 82.6973 273.92 80.5171 273.536C79.4052 273.133 78.8614 272.244 78.0214 271.618C77.7398 269.773 77.3756 267.704 78.7934 266.622C78.6915 265.932 78.638 265.806 78.2156 265.466V265.277H78.0214C77.3756 266.384 76.8318 267.671 76.4919 269.122C75.3557 273.895 77.9923 277.95 80.9056 278.921C82.8332 279.236 84.7512 279.562 86.674 279.877C88.1986 280.47 88.8736 281.718 89.9321 282.766C89.8884 285.252 87.5043 285.524 85.5135 284.879C82.406 283.869 79.0993 283.165 75.9141 282.004C75.0789 281.693 74.2972 281.179 73.2193 281.038C73.0882 282.252 72.9571 283.47 72.8308 284.684C75.5208 285.515 78.2156 286.35 80.9007 287.185C80.7891 293.973 78.1136 302.111 81.4785 307.35C81.8864 307.452 82.1729 307.53 82.4399 307.739C86.2273 307.476 87.0187 304.437 88.9707 302.359C90.6313 306.34 89.3882 313.298 85.7126 314.269C84.1297 315.357 81.8136 313.949 80.9104 313.118C77.7641 310.21 77.0988 305.782 75.9238 300.824C75.5208 299.154 76.084 295.765 75.3508 294.478C75.38 292.516 75.7976 288.972 74.7682 287.952V287.763H74.3846V287.768ZM535.851 320.052C535.157 316.818 536.113 312.876 535.463 309.87V306.797C534.992 304.597 535.176 301.669 534.705 299.503C533.778 295.221 534.589 290.152 532.972 286.627C532.015 286.398 531.073 286.219 529.714 286.238C529.223 286.743 528.854 287.005 528.942 287.588C529.345 289.331 531.598 289.686 532.21 291.434C532.273 292.269 532.336 293.099 532.404 293.929C533.04 296.653 532.943 300.174 533.55 302.961V305.267C533.86 306.67 534.336 310.297 533.938 311.419C533.263 313.41 531.098 315.206 529.714 316.605C526.053 320.271 521.76 324.932 515.298 325.631C515.171 325.961 515.254 325.821 515.103 326.02C515.21 328.418 517.405 327.942 518.954 328.904C519.337 328.836 519.721 328.768 520.1 328.7C520.692 328.341 521.027 327.525 521.44 326.971C522.411 325.704 524.178 325.034 525.086 323.713H525.281C525.291 329.564 525.422 336.148 525.475 341.766H526.048C527.373 336.08 527.267 329.093 527.204 322.164C529.733 319.805 531.34 316.386 533.924 314.104V313.721H534.128C534.157 319.795 534.307 326 534.307 332.157C534.307 334.133 533.817 338.848 534.307 339.654V340.805H534.691C535.215 338.741 535.341 335.838 535.846 333.517V330.249C536.41 327.646 536.405 322.65 535.851 320.052ZM190.995 332.337C189.311 331.638 187.228 330.098 186.193 328.69C183.1 324.442 179.701 314.376 181.969 306.792C183.809 300.645 187.805 296.464 194.263 294.876C197.531 294.085 201.046 295.177 203.105 296.226C208.971 299.246 211.481 303.538 213.282 310.632C215.613 319.795 212.642 328.205 206.558 330.997C206.936 334.706 207.325 338.421 207.708 342.135C209.864 342.077 211.845 341.621 213.666 341.174C216.72 340.412 219.837 340.319 222.697 339.635C224.79 339.134 227.805 339.567 229.417 338.479C229.801 337.658 228.218 331.929 227.888 330.598C227.611 329.491 227.844 328.36 227.31 327.53V327.146C226.868 327.204 226.412 327.268 225.965 327.336C226.053 333.138 221.916 332.346 217.317 333.478C215.021 334.056 212.224 334.789 209.641 334.828C209.641 334.002 209.641 333.162 209.636 332.332C209.854 331.929 213.224 330.467 213.85 330.025C216.089 328.477 218.371 326.02 219.818 323.699C220.799 322.111 221.595 319.989 222.115 318.12C222.785 315.745 222.862 312.439 222.314 310.05C221.93 308.409 222.081 307.122 221.546 305.631C219.473 299.868 215.127 295.658 209.636 293.337C207.145 292.288 204.329 292.249 201.381 291.608C198.764 291.045 194.054 292.21 192.151 292.764C182.901 295.493 176.623 299.95 173.705 308.899C172.559 312.434 172.913 317.328 173.899 320.62C176.166 328.2 182.508 335.284 191.962 335.415V335.605C192.263 336.032 192.253 336.886 192.535 337.333C192.418 337.663 192.491 337.522 192.34 337.722C191.544 338.265 190.379 338.013 189.267 338.29C186.985 338.867 179.624 340.654 177.934 339.062C176.856 338.707 176.137 337.294 176.011 335.993C175.53 336.012 175.302 336.012 175.055 336.182H174.656C175.365 339.897 176.069 343.621 176.769 347.331H176.968V347.525C183.693 346.364 190.418 345.209 197.138 344.063C196.176 340.538 195.22 337.017 194.258 333.492C193.714 332.652 191.986 332.754 190.995 332.337ZM519.716 311.016C520.134 312.075 520.95 313.832 521.824 314.473C522.241 314.779 522.464 314.667 522.79 315.051C529.146 315.6 531.729 304.646 529.136 298.338C528.684 297.246 526.635 294.041 524.713 295.265H524.324C524.45 294.93 524.363 295.08 524.518 294.876C524.513 293.963 524.416 293.662 524.14 293.148C523.751 293.084 523.382 293.021 522.979 292.963C522.79 293.114 522.936 293.031 522.6 293.148C522.732 294.313 523.139 294.347 523.178 295.643C520.09 298.474 517.444 305.262 519.716 311.016ZM521.819 300.834C522.246 299.8 523.105 299.134 523.741 298.333C524.14 298.261 524.106 298.285 524.31 298.139C525.766 298.134 526.174 298.416 527 298.911C528.466 302.363 528.68 308.399 526.247 311.021C525.863 311.434 525.13 311.584 524.708 311.977C520.692 311.672 520.367 304.33 521.819 300.834ZM432.695 376.498C430.539 375.168 430.238 368.365 429.432 365.359C427.844 359.46 427.087 353.274 425.397 347.297C424.314 343.471 422.853 339.499 423.285 334.808C423.96 334.138 424.407 333.254 425.208 332.696C426.291 331.943 428.024 331.589 428.854 330.584C428.99 330.336 428.767 329.962 428.66 329.428C426.431 329.778 424.392 331.128 422.508 331.929C418.663 333.565 414.895 334.531 410.986 336.153C409.762 336.663 408.485 337.527 406.941 337.692V338.848C407.072 338.911 407.203 338.974 407.33 339.042C407.534 339.261 412.345 337.139 413.865 338.469C415.594 339.076 415.375 341.334 416.361 342.703C416.065 345.685 413.093 350.268 411.933 352.885C409.117 359.319 406.252 365.471 403.105 371.511C401.901 373.818 400.469 377.989 398.876 379.771V379.96C397.827 378.523 397.9 374.857 397.342 372.861C395.637 366.865 394.54 360.28 392.729 354.42C392.394 353.298 391.243 348.21 391.967 347.122C392.214 344.471 395.963 343.31 398.114 342.509C398.056 342.062 397.988 341.611 397.924 341.164C394.516 341.674 390.986 343.485 387.932 344.621C385.043 345.699 382.396 346.146 379.478 347.122C378.031 347.607 376.39 348.467 374.686 348.656V348.855H374.492C374.555 349.399 374.613 349.686 374.87 350.006C375.652 350.526 379.872 348.297 381.595 349.627C384.295 350.555 384.378 354.852 385.242 357.692C387.582 365.359 388.772 373.847 391.005 381.713C391.564 383.674 392.894 389.894 391.583 391.506C390.855 393.643 387.286 394.497 385.242 395.347C385.31 395.74 385.363 396.124 385.426 396.503C388.378 396.066 391.064 394.692 393.71 393.784C398.871 392.065 403.746 390.628 408.709 388.787C408.626 388.341 408.573 387.884 408.51 387.447C406.388 388.015 404.751 388.656 401.785 388.598C401.391 388.268 401.013 387.952 400.634 387.632C400.309 386.612 399.993 385.583 399.668 384.563C399.876 382.14 402.979 377.663 404.086 375.527C407.354 369.249 410.214 362.907 413.108 356.323C414.21 353.808 416.769 350.127 417.148 347.302C418.031 347.845 417.789 349.428 418.104 350.564C418.76 352.866 419.124 355.333 419.833 357.862C421.192 362.718 421.726 367.938 423.096 373.041C423.605 374.91 424.363 378.129 423.484 380.149C422.62 382.111 419.401 383.407 417.332 384.179C417.415 384.587 417.517 385.063 417.721 385.335C417.74 385.369 422.129 383.937 422.897 383.606C428.262 381.329 433.763 378.95 439.226 376.886C439.153 376.435 439.1 375.988 439.036 375.546C437.677 375.891 434.569 377.658 432.695 376.498ZM523.552 392.667C522.858 393.298 521.824 393.458 521.056 394.012C518.624 395.755 516.079 398.683 514.331 401.116C512.933 403.068 511.739 405.209 510.491 407.272C509.947 408.176 509.826 409.224 509.146 409.953V410.341C510.821 410.06 511.807 408.972 512.991 408.229C516.191 406.248 519.056 404.437 522.013 402.281C523.445 401.232 524.514 399.61 526.043 398.62C526.184 396.333 526.65 394.527 525.669 392.856C525.067 392.73 524.387 392.657 523.552 392.667ZM521.251 399.576C520.09 400.431 518.968 401.63 517.793 402.465C516.783 403.165 515.57 403.543 514.72 404.383H514.526C515.157 402.402 518.497 399.003 520.09 397.858C520.916 397.255 521.95 397.095 522.79 396.503H523.552C523.727 396.726 523.717 396.716 523.941 396.891C523.756 398.343 522.197 398.863 521.251 399.576ZM106.082 407.069C105.276 404.636 104.732 402.262 103.969 399.96C103.586 398.766 103.668 397.406 103.003 396.498V395.925C104.309 396.396 106.3 396.347 107.427 397.081H108.403C108.184 396.08 107.985 394.405 107.427 393.619C106.844 392.672 103.125 392.662 102.056 391.9C100.541 390.71 99.1091 387.297 98.0166 385.554C95.2974 381.247 91.6946 376.658 87.6402 373.643C85.4892 372.045 83.9937 370.385 80.1433 370.375C79.6966 370.696 79.245 371.016 78.8031 371.337C77.9388 375.168 79.4781 382.252 81.6776 384.019V384.403C80.7599 384.155 79.7694 383.66 79.1819 383.058H78.9876C79.0216 384.16 79.2353 385.602 79.7548 386.321C79.9782 387.268 81.5125 388.04 82.4448 388.244C83.649 393.279 85.3193 398.445 87.0576 403.048C88.4608 406.733 89.1746 410.239 90.6992 413.798C91.4518 415.527 93.2338 416.789 93.7777 418.6H94.3458C93.9136 416.979 93.0299 415.459 92.4327 413.993C90.6652 409.744 89.262 405.238 87.8102 400.936C86.8682 398.11 86.2176 395.372 85.3144 392.672C84.9794 391.652 85.0765 390.598 84.5473 389.783V389.593C85.8534 389.831 86.6351 390.511 87.6257 390.943C89.8641 391.919 92.0102 392.288 94.3506 393.245C96.0646 393.949 98.2156 394.925 100.313 395.163C100.546 396.911 101.542 401.475 102.425 402.66V403.233C99.5024 401.227 99.5655 398.377 94.3506 398.814C94.0884 399.115 93.7291 399.382 93.3941 399.581C92.9182 400.771 92.8891 402.723 93.3941 404C94.6419 407.141 98.5992 413.667 101.848 414.57C103.095 415.464 104.926 414.362 105.489 413.405C106.664 414.027 106.912 416.716 107.407 418.027C108.437 420.732 109.942 424.286 112.413 425.52V425.714H112.816C112.496 423.543 111.272 421.591 110.51 419.746C108.81 415.609 107.48 411.244 106.082 407.069ZM100.512 391.511C98.4827 391.371 96.759 390.569 95.1324 389.977C90.7915 388.365 86.8634 386.991 83.0323 385.165C82.571 383.422 79.3421 377.187 81.1095 374.993C81.2358 374.799 81.3669 374.599 81.4931 374.41C81.8864 374.328 81.867 374.361 82.0709 374.221C87.9898 374.93 93.9282 382.13 96.8609 386.127C98.0068 387.685 98.9488 390.006 100.512 391.128V391.511ZM103.586 408.219C103.003 408.933 102.435 409.632 101.857 410.336C101.347 410.71 100.775 410.866 100.323 411.298C97.0212 411.196 96.9046 407.967 95.5208 405.918C95.5448 404.029 96.2588 404.024 97.0503 403.029C97.497 403 97.5941 403 97.8175 402.849C100.799 402.868 101.474 404.204 103.202 405.345C103.484 406.486 103.664 406.976 103.586 408.219ZM216.56 437.804C215.759 436.488 214.181 436.144 213.098 435.114C212.763 435.002 212.904 435.08 212.714 434.925C215.191 433.648 217.827 432.235 220.401 431.089C221.09 431.856 224.29 434.935 225.397 434.347C225.591 434.289 225.781 434.235 225.97 434.162C225.907 433.075 225.849 431.987 225.776 430.895C223.353 428.477 219.784 426.476 215.778 425.714V425.903H215.589C216.04 427.234 217.521 428.501 218.677 429.171V429.744C216.4 430.079 214.38 431.181 212.331 431.861C210.928 432.313 209.233 432.249 208.092 433.012H207.524C208.354 430.681 211.102 428.783 212.515 426.86C215.312 423.087 217.531 418.469 221.935 416.294C221.819 414.522 216.71 410.856 214.827 412.065C214.356 412.313 214.686 411.963 214.443 412.444C214.156 413.143 215.108 414.007 214.827 415.134C214.457 416.615 210.792 423.582 209.83 424.359V424.558C207.849 423.883 206.344 422.019 204.455 421.096C204.79 419.329 206.276 417.979 207.145 416.678C209.345 413.356 211.107 410.195 214.443 408.025C214.414 405.471 210.291 402.805 207.524 402.849C207.534 404.029 208.131 404.689 207.912 405.728C207.232 408.855 205.8 412.016 204.649 414.76C203.892 416.532 203.552 418.639 202.338 419.936C202.076 420.081 199.949 419.907 199.454 419.562C198.73 419.552 198.007 419.586 197.541 419.746V420.13C200.775 423.262 204.275 424.335 208.684 426.287C208.072 429.467 204.868 431.589 203.304 433.978C202.498 433.978 201.848 433.925 201.386 433.59C200.945 433.662 200.911 433.682 200.619 433.784C200.697 436.615 203.047 439.018 205.412 439.547C206.999 437.77 208.99 436.911 211.374 435.901C213.554 438.173 214.181 441.422 215.021 445.117C215.385 446.734 214.793 448.506 215.215 449.919C215.953 452.414 217.283 453.157 218.478 454.905H219.823C220.668 450.39 218.594 446.01 217.516 442.422C217.201 440.892 216.88 439.343 216.56 437.804ZM520.09 405.34C518.93 406.326 517.322 406.777 516.06 407.646C514.113 409.016 512.379 410.846 510.496 412.259C509.636 412.91 508.388 413.488 507.801 414.371C506.83 415.828 507.024 418.28 505.878 419.557V420.319C507.412 419.766 508.131 417.974 509.34 417.061C510.821 415.94 512.078 414.454 513.564 413.4C514.501 412.75 515.56 412.39 516.448 411.672C517.055 411.783 517.007 411.851 517.415 412.065C517.322 416.945 514.749 420.387 513.186 423.98C512.734 425.024 512.598 426.656 511.836 427.428C511.481 427.797 510.724 427.884 510.311 428.19C509.029 429.608 507.747 431.011 506.456 432.429C505.242 434.099 504.683 436.328 503.392 437.993C503.378 438.547 503.378 439.042 503.572 439.334C503.766 439.489 504.111 439.62 504.344 439.722C506.82 437.377 509.219 435.42 511.263 432.609C514.453 428.219 516.05 422.669 518.371 417.435C519.828 414.128 521.935 410.87 521.824 406.102C521.6 405.889 521.416 405.617 521.255 405.335H520.09V405.34ZM506.64 435.702V435.891H506.446C506.781 433.585 508.534 432.949 509.34 431.269H509.724C509.476 433.177 508.029 434.891 506.64 435.702ZM219.439 438.77C219.051 440.431 223.13 444.145 224.426 445.117C225.072 445.597 225.941 446.714 226.927 446.263C227.432 446.224 227.587 446.17 227.893 446.068C228.116 445.554 228.451 444.903 228.082 444.349C227.98 441.931 221.717 439.232 219.439 438.77ZM237.886 453.551C238.211 453.716 238.478 453.653 238.847 453.361C239.522 452.808 239.153 451.846 239.619 451.055C240.697 450.283 242.605 450.482 244.042 450.089C247.971 449.054 252.554 449.127 256.91 448.166C258.973 447.714 262.387 448.943 264.018 447.981C264.212 447.909 264.411 447.85 264.591 447.777C264.499 445.267 259.692 444.189 257.089 444.918C255.938 445.243 254.598 445.957 253.443 446.258C252.544 446.321 251.646 446.389 250.748 446.442C250.447 443.32 248.903 440.887 248.83 437.62C251.719 437.557 255.341 437.178 257.274 436.085C257.235 435.104 257.055 435.104 256.701 434.551C254.501 434.022 250.728 433.939 249.014 435.114C248.529 435.095 248.301 435.095 248.058 434.925C246.985 433.565 247.495 430.798 246.524 429.36V428.593C248.592 428.146 251.971 427.777 253.054 426.287C253.205 426.088 253.122 426.238 253.244 425.908C253.069 425.733 252.996 425.573 252.86 425.325C249.854 424.568 248.553 425.087 245.951 426.097C245.14 423.495 246.116 421.436 243.455 420.713C244.023 419.727 245.912 419.771 247.101 419.372C248.956 418.761 251.068 417.935 252.676 417.071C252.802 416.741 252.71 416.877 252.87 416.682C252.763 415.711 252.491 415.745 252.098 415.148C249.325 414.934 247.111 415.202 245.562 416.682H245.193C245.421 415.25 246.315 413.201 247.106 412.075C247.65 411.288 248.65 411.395 249.029 410.346H249.223V410.152C248.83 409.647 248.451 409.132 248.068 408.627C247.164 407.996 245.863 407.933 244.999 407.272C243.722 407.253 242.498 407.258 241.736 407.656C241.838 408.394 242.168 408.86 242.314 409.385C242.843 411.371 240.935 417.489 240.197 418.416C239.6 419.169 232.666 421.674 230.782 421.106C230.335 420.965 229.034 420.31 228.67 419.945C228.514 419.756 228.597 419.907 228.475 419.572C231.199 417.008 233.161 411.307 236.929 410.157C236.997 409.836 237.06 409.516 237.128 409.195C236.186 408.224 231.617 403.427 229.252 404.966C229.058 405.034 228.869 405.083 228.684 405.151C228.684 406.792 229.5 408.03 229.063 409.768C228.179 413.22 226.213 417.314 224.45 420.145C223.392 421.839 221.085 423.689 220.993 426.107C224.13 425.792 224.887 422.553 227.325 421.674C228.034 422.33 228.733 422.97 229.442 423.607C230.447 425.112 230.257 427.384 230.782 429.36C231.68 433.522 232.583 437.688 233.472 441.849C233.593 443.903 233.724 445.942 233.86 448.001C234.37 449.875 235.9 453.104 237.886 453.551ZM244.018 438.96C244.169 440.747 245.271 445.792 246.135 447.03C246.14 447.151 246.14 447.292 246.14 447.418C243.824 447.913 241.416 448.583 238.837 448.574C238.439 445.83 237.128 443.427 237.114 440.504C240.061 440.446 241.581 439.256 244.018 438.96ZM232.879 423.024C233.185 422.504 238.284 421.693 238.842 422.058C240.881 423.004 240.153 426 241.338 427.821C240.935 428.768 236.254 430.196 234.807 430.317C234.55 428.287 234.21 424.121 232.879 423.024ZM241.721 430.322H241.916C242.285 432.07 242.493 435.07 243.455 436.474C242.765 438.154 238.522 438.013 236.919 438.969C236.249 438.566 235.366 433.745 235.385 432.439C236.851 432.308 240.658 431.045 241.721 430.322ZM208.48 441.261C208.189 441.917 208.223 442.975 207.912 443.757C206.252 447.826 205.708 448.676 208.296 452.594C209.447 452.594 209.602 452.414 210.219 452.016C210.981 448.826 211.102 442.762 208.48 441.261ZM427.514 442.417C421.906 441.033 417.191 443.801 411.365 443.383C410.811 442.796 410.394 442.461 410.029 441.655C405.975 441.771 401.498 450.807 405.611 453.565C407.81 455.056 414.079 454.192 416.754 453.565C418.235 453.216 420.556 452.89 421.746 453.75C423.358 454.949 423.071 459.489 422.508 462.019C421.867 466.753 421.221 471.492 420.585 476.241C420.017 479.115 419.439 481.994 418.857 484.879C421.804 484.864 424.577 481.854 425.407 479.688C425.888 478.435 425.63 477.251 425.985 475.847C427 471.817 427.135 467.01 428.097 462.786C428.714 460.047 428.296 457.45 428.854 454.91C429.272 453.012 429.549 446.675 429.058 444.922C428.762 443.946 428.009 443.179 427.514 442.417ZM164.504 500.446C163.848 499.95 163.392 499.071 162.775 498.528C160.478 496.488 157.779 494.522 155.283 492.759C153.214 491.312 150.389 490.448 148.548 488.734C148.5 488.316 149.145 487.297 148.747 486.233C147.121 481.888 141.032 476.852 137.22 474.522C135.458 473.424 132.501 472.924 130.884 471.822C129.689 471.749 129.068 471.701 128.772 472.584C128.301 473.638 129.786 475.114 130.301 475.852C131.617 477.707 133.122 479.873 134.914 481.218C136.254 482.232 137.784 483.121 138.944 484.301H139.522C138.774 482.232 136.565 481.111 134.914 479.887C133.404 478.766 132.734 476.818 131.457 475.464C131.559 474.857 131.627 474.91 131.845 474.502C137.152 474.541 140.595 479.411 142.984 482.567C144.052 483.98 145.756 484.806 145.868 487.185C145.305 487.185 144.819 487.19 144.528 486.991H143.95C144.863 489.53 147.951 489.317 150.102 490.647C154.414 493.313 157.885 497.498 161.624 500.819C162.896 501.956 165.115 503.077 165.465 505.053C162.858 504.918 161.012 503.466 159.342 502.359C156.361 500.416 151.588 497.027 149.539 494.289C149.15 493.784 149.024 493.021 148.573 492.565C148.043 492.026 147.305 491.866 146.849 491.225H146.082C145.892 493.221 148.058 494.653 149.34 495.833C153.316 499.474 157.575 502.835 162.595 505.442C164.406 506.379 167.708 507.977 169.709 506.787C169.442 504.034 166.3 501.805 164.504 500.446ZM282.829 513.123C273.049 506.432 258.624 499.649 241.911 500.067C241.1 500.572 239.468 500.169 238.458 500.446C237.06 500.815 236.206 501.528 235.196 502.169C235.157 506.889 242.217 509.438 246.145 510.424C248.49 511.021 250.559 509.924 251.913 509.457C252.957 505.471 248.145 504.888 245.955 502.922H245.562V502.737C260.304 502.155 271.335 506.272 279.76 512.541C281.862 514.104 284.275 516.343 285.334 518.877C285.727 519.824 285.897 521.373 285.334 522.15C284.562 524.286 282.008 524.097 279.566 524.651C273.923 525.937 266.189 522.752 263.615 520.227C263.091 521.15 263.853 522.563 263.042 523.495C262.188 525.816 259.216 525.214 256.507 525.796C252.054 526.763 245.081 524.481 242.484 522.728C241.76 522.232 241.236 521.339 240.561 520.805C240.527 520.31 240.474 520.149 240.362 519.844C240.755 519.479 241.221 518.936 241.513 518.499C247.043 518.086 249.854 518.363 253.049 521.383C252.967 521.771 253.001 521.747 252.85 521.946C252.491 522.684 251.661 522.771 250.549 522.728V523.092C252.574 523.111 253.428 522.805 254.579 522.135C254.642 521.752 254.71 521.363 254.773 520.985C254.113 520.305 253.652 519.392 252.85 518.863C249.694 516.799 243.183 515.75 239.6 518.105C239.036 520.824 240.726 522.3 242.29 523.475C245.426 525.845 248.072 527.224 252.476 528.472C253.889 528.865 255.147 528.506 256.706 528.846C258.065 529.156 260.42 529.229 261.891 528.846C264.339 528.224 267.742 525.641 264.96 522.689V522.509C266.412 523.043 267.602 524.466 268.995 525.209C272.69 527.137 278.808 528.729 284.373 527.51C287.101 526.908 289.922 526.908 290.699 524.432C291.568 523.082 290.369 521.189 289.942 520.416C288.15 517.226 285.79 515.138 282.829 513.123ZM247.286 504.281C247.966 504.738 248.354 505.694 249.014 506.204C249 506.69 248.995 506.923 248.82 507.171C247.572 510.555 240.537 508.049 238.828 506.777C238.293 506.389 238.085 505.573 237.682 505.058C237.754 504.66 237.73 504.68 237.881 504.485C238.405 503.009 239.905 503.5 241.139 502.757C243.576 502.767 245.781 503.257 247.286 504.281ZM425.577 506.199H423.654C422.377 507.219 420.289 507.35 418.837 508.117C417.565 508.802 416.016 509.729 414.812 510.618C413.807 511.341 413.229 512.648 412.311 513.488C412.331 514.449 412.35 514.595 413.083 514.837C413.278 514.988 413.132 514.915 413.457 515.032C413.661 514.803 413.846 514.721 414.04 514.449C414.2 514.332 413.904 513.944 413.846 513.313C415.705 511.448 417.084 510.419 419.804 509.273C420.498 508.996 421.974 508.142 422.877 508.7H423.266C423.134 510.594 418.818 516.42 417.502 517.343V517.911C421.037 517.003 423.397 509.933 425.766 507.355C425.708 506.918 425.718 506.806 425.572 506.593V506.199H425.577ZM410.204 520.416C409.068 521.436 406.286 521.533 405.023 522.529H404.829C405.329 521.8 406.237 521.494 406.752 520.805C407.121 520.3 407.276 519.712 407.708 519.271C407.626 518.877 407.66 518.906 407.519 518.702V518.314C401.911 517.285 392.545 522.121 389.651 524.655C388.898 525.311 388.451 526.292 387.728 526.971C387.742 527.51 387.806 527.787 387.917 528.117C391.321 528.346 397.701 526.258 398.473 523.509C398.624 523.388 398.527 523.499 398.473 523.315V522.932C396.147 522.796 393.016 523.296 391.569 524.655H391.379C392.642 522.733 397.313 521.033 399.823 520.242C400.658 519.979 402.494 519.513 403.29 520.047C403.47 520.12 403.664 520.174 403.858 520.242C403.406 522.16 400.668 524.306 398.862 524.85V525.238C401.814 524.558 404.509 523.218 407.116 522.164C408.908 521.431 410.933 521.252 412.501 520.242C413.613 519.513 417.395 514.376 417.691 512.939C413.249 513.624 412.889 518.013 410.204 520.416ZM395.026 524.262V524.84C394.662 525.078 394.399 525.602 394.059 525.796C393.064 526.379 391.738 526.316 390.792 526.952C390.355 526.903 390.258 526.913 390.034 526.753H389.845C390.364 525.112 393.53 524.364 395.026 524.262ZM314.919 542.31C314.987 542.131 315.04 541.931 315.108 541.742C310.369 541.548 305.625 541.358 300.896 541.164C300.299 541.562 299.381 541.334 298.59 541.548C297.609 541.829 296.521 542.281 295.71 542.708C295.837 543.034 295.749 542.893 295.905 543.087C297.06 544 303.79 544.053 305.13 543.087H305.509V542.708C303.474 542.063 299.765 543.684 298.211 542.708H298.012V542.509C303.12 542.155 308.84 542.3 314.157 542.315C313.637 542.669 312.564 542.563 312.039 542.893C311.85 542.961 311.661 543.024 311.471 543.087V543.471C312.627 543.655 313.773 543.854 314.924 544.039C315.103 544.243 314.904 544.063 315.113 544.228C313.414 545.359 309.024 544.893 307.436 544.039V543.655C306.572 543.257 302.625 544.063 301.862 544.228C301.216 544.374 300.551 544.16 300.129 544.417C299.328 544.461 299.25 544.558 298.789 544.801C298.896 545.423 298.959 545.359 299.177 545.762C300.415 546.054 302.557 546.083 303.97 546.53V546.34H304.164V546.146C303.445 545.869 301.45 546.02 300.702 545.583H300.318C300.959 545.078 307.237 544.233 308.393 545.005C308.723 545.122 308.582 545.039 308.777 545.194C307.752 545.379 306.723 545.583 305.698 545.762C305.82 546.093 305.742 545.952 305.892 546.146C306.208 546.36 306.829 546.36 307.427 546.34C307.233 546.7 307.165 546.865 306.849 547.103C306.912 547.219 306.98 547.355 307.043 547.486C309.762 547.481 312.049 547.209 314.336 546.724C315.696 546.428 317.366 546.971 318.371 546.34H319.91V545.952C317.293 545.947 310.758 545.694 309.155 546.724H308.587C308.747 546.52 308.568 546.704 308.772 546.53C309.529 545.656 311.059 546.093 312.413 545.762C314.55 545.253 318.085 544.383 319.91 545.762C320.425 546.083 320.105 545.728 320.1 546.34C320.619 546.325 320.979 546.325 321.25 546.156H322.6V545.762C320.847 545.34 318.284 544.544 316.837 543.66C315.997 543.14 316.376 542.441 314.919 542.31ZM119.726 188.059C119.298 189.613 118.395 190.938 117.808 192.283C116.506 195.26 115.346 198.231 114.161 201.13C113.156 203.538 112.535 207.418 111.088 209.38V209.763C113.108 209.404 114.477 207.369 115.696 206.117C118.691 203.038 125.018 195.337 124.921 189.598C124.62 189.302 124.343 188.812 124.149 188.447C122.955 188.161 121.411 188.03 119.726 188.059ZM120.498 196.134C119.619 197.581 119.133 199.008 118.187 200.363C117.322 201.601 115.953 202.558 115.113 203.825H114.914C115.162 202.359 115.953 201.174 116.463 199.979C117.604 197.255 118.386 194.551 119.721 192.108C120.459 192.123 121.022 192.181 121.449 192.487C121.911 192.74 121.585 192.4 121.833 192.876C122.226 193.832 120.964 195.357 120.498 196.134ZM461.503 137.153C459.493 135.133 457.963 132.599 455.929 130.618V130.428C454.934 130.783 451.559 133.769 450.937 134.658C449.723 134.196 449.039 132.885 448.053 132.162C444.771 129.695 441.683 126.495 435.958 126.592C435.235 127.151 434.176 127.165 433.263 127.549C430.685 128.666 428.005 130.89 426.927 133.507C425.718 136.43 426.946 140.746 427.878 142.922C429.782 147.311 432.889 151.016 435.565 154.643C437.784 157.629 440.284 160.722 444.402 161.752C449.044 162.907 451.306 157.459 453.05 155.4C454.846 153.288 458.789 152.783 460.158 150.025C460.663 149.02 460.323 147.039 459.969 146.185C459.095 144.116 454.788 138.309 453.05 137.158C453.176 135.998 453.705 135.959 454.195 135.235C455.4 135.823 455.841 137.522 456.696 138.503C457.793 139.756 459.347 140.426 460.537 141.572C462.372 141.587 463.474 141.115 464.373 140.227H464.572C464.106 138.94 462.416 138.052 461.503 137.153ZM450.554 157.901C447.16 158.702 445.475 156.478 443.639 154.633C439.095 150.093 436.016 144.471 432.491 138.882C431.282 136.959 428.194 133.376 429.801 130.618H430.563C431.535 132.07 433.181 133.08 434.22 134.463C437.089 138.27 440.6 141.596 443.44 145.413C445.188 147.768 447.126 149.977 448.815 152.327C449.68 153.536 450.35 155.07 451.515 155.973C451.306 156.847 450.933 157.255 450.554 157.901ZM453.428 144.262C454.982 146.393 457.094 147.602 457.075 151.366C456.482 151.929 456.312 152.453 455.346 152.706C455.152 152.861 455.293 152.778 454.963 152.905C452.248 148.379 448.33 144.597 445.174 140.411C444.144 139.042 442.547 137.93 441.522 136.571C439.765 134.24 437.672 132.375 435.754 130.234C435.201 129.598 434.938 128.986 434.229 128.501C434.395 128.083 434.385 128.224 434.608 127.928C437.861 127.957 439.43 130.152 441.328 131.584C446.028 135.104 449.971 139.479 453.428 144.262Z" fill="#F59F0B"/>
<circle cx="303" cy="305" r="264" stroke="#F59F0B" stroke-width="24"/>
<path d="M519.5 542L568 481.5" stroke="#F59F0B" stroke-width="20"/>
<path d="M711 685.5L759.5 625" stroke="#F59F0B" stroke-width="20"/>
<path d="M711 693.5L759.5 633" stroke="#F59F0B" stroke-width="20"/>
<path d="M711 694L759 655" stroke="#F59F0B" stroke-width="20"/>
<rect width="93.5333" height="229.592" transform="translate(523 549.072) rotate(-50)" fill="#F59F0B"/>
</svg>
